<svg viewBox="0 0 14 14" fill="none" xmlns="http://www.w3.org/2000/svg">
<path d="M10.2085 10.562C10.0924 10.562 9.98112 10.5173 9.89911 10.4376C9.81703 10.3579 9.77095 10.2499 9.77095 10.1373C9.77095 10.0247 9.81703 9.91662 9.89911 9.83694C9.98112 9.75732 10.0924 9.71258 10.2085 9.71258C11.1768 9.71258 11.521 9.24257 11.521 7.91179C11.4788 7.43741 11.2655 6.99265 10.9187 6.65599C10.5719 6.31927 10.1138 6.11224 9.62512 6.07135C9.42649 6.07622 9.22973 6.1106 9.04178 6.17329C8.98502 6.19633 8.92389 6.20732 8.86241 6.20551C8.80092 6.20375 8.74055 6.18925 8.68531 6.16298C8.63007 6.1367 8.58124 6.09927 8.5421 6.05318C8.50302 6.00708 8.47449 5.95345 8.45845 5.8958C8.23643 5.22239 7.77449 4.64784 7.15546 4.27526C6.53648 3.90269 5.80095 3.75647 5.08091 3.86285C4.36087 3.96924 3.70345 4.32126 3.22666 4.85574C2.74986 5.39022 2.48488 6.07215 2.47929 6.77921C2.47929 8.72724 2.92262 9.71258 3.79179 9.71258C3.90783 9.71258 4.0191 9.75732 4.10115 9.83694C4.1832 9.91662 4.22929 10.0247 4.22929 10.1373C4.22929 10.2499 4.1832 10.3579 4.10115 10.4376C4.0191 10.5173 3.90783 10.562 3.79179 10.562C2.33346 10.562 1.60429 9.28787 1.60429 6.77921C1.58607 5.88659 1.89027 5.01595 2.46413 4.3183C3.03798 3.62065 3.84529 3.14 4.74601 2.95974C5.64672 2.77948 6.58402 2.91098 7.39532 3.33142C8.20662 3.75186 8.84071 4.43472 9.18762 5.26154C9.34162 5.23455 9.49783 5.22128 9.65428 5.2219C10.3747 5.26481 11.0541 5.56198 11.5645 6.05742C12.0748 6.55287 12.3809 7.21242 12.4251 7.91179C12.396 8.63664 12.396 10.562 10.2085 10.562Z" fill="white"/>
<path d="M8.65085 9.08965C8.53512 9.08835 8.42434 9.04373 8.34169 8.96507L7.00002 7.66261L5.65836 8.96507C5.57543 9.0401 5.46573 9.08093 5.35239 9.07901C5.23905 9.07703 5.1309 9.03246 5.05075 8.95465C4.97059 8.87684 4.92468 8.77185 4.92268 8.66182C4.92067 8.55179 4.96274 8.44533 5.04002 8.36481L6.69085 6.76221C6.7311 6.72212 6.77917 6.69029 6.83225 6.66855C6.88534 6.6468 6.94239 6.63559 7.00002 6.63559C7.05765 6.63559 7.1147 6.6468 7.16779 6.66855C7.22093 6.69029 7.26899 6.72212 7.30919 6.76221L8.96002 8.36481C9.04198 8.44443 9.088 8.55236 9.088 8.66494C9.088 8.77746 9.04198 8.88545 8.96002 8.96507C8.87672 9.04277 8.76635 9.08722 8.65085 9.08965Z" fill="white"/>
<path d="M7 11.0886C6.88397 11.0886 6.77267 11.0439 6.69066 10.9642C6.60858 10.8846 6.5625 10.7766 6.5625 10.6639V7.06229C6.5625 6.94965 6.60858 6.84166 6.69066 6.76199C6.77267 6.68237 6.88397 6.63757 7 6.63757C7.11602 6.63757 7.22733 6.68237 7.30934 6.76199C7.39142 6.84166 7.4375 6.94965 7.4375 7.06229V10.6639C7.4375 10.7766 7.39142 10.8846 7.30934 10.9642C7.22733 11.0439 7.11602 11.0886 7 11.0886Z" fill="white"/>
</svg>
