<svg width="48" height="48" viewBox="0 0 48 48" fill="none" xmlns="http://www.w3.org/2000/svg">
<path d="M45 24C45 18.4304 42.7875 13.089 38.8492 9.15075C34.911 5.21249 29.5696 2.99999 24 2.99999C18.712 2.99511 13.6169 4.98537 9.7323 8.57321C5.84771 12.1611 3.45968 17.0823 3.04522 22.354C2.63075 27.6257 4.22037 32.8598 7.49654 37.0106C10.7727 41.1614 15.4942 43.9234 20.718 44.745V30.069H15.39V24H20.721V19.374C20.721 14.112 23.856 11.202 28.653 11.202C30.951 11.202 33.354 11.613 33.354 11.613V16.782H30.705C28.095 16.782 27.285 18.402 27.285 20.061V24H33.108L32.178 30.069H27.282V44.745C32.2215 43.9628 36.7198 41.4437 39.9678 37.6409C43.2157 33.8381 45.0001 29.0011 45 24Z" fill="#1877F2"/>
<path d="M32.175 30.069L33.105 24H27.282V20.061C27.282 18.402 28.092 16.782 30.702 16.782H33.351V11.61C33.351 11.61 30.948 11.199 28.65 11.199C23.85 11.199 20.718 14.109 20.718 19.371V24H15.39V30.069H20.721V44.745C22.8956 45.0872 25.1104 45.0872 27.285 44.745V30.069H32.175Z" fill="white"/>
</svg>
