<svg width="312" height="74" viewBox="0 0 312 74" fill="none" xmlns="http://www.w3.org/2000/svg">
<path d="M108.684 34.728V39.66H98.388V44.988H106.092V49.776H98.388V60H92.232V34.728H108.684ZM115.016 37.824C113.936 37.824 113.048 37.512 112.352 36.888C111.68 36.24 111.344 35.448 111.344 34.512C111.344 33.552 111.68 32.76 112.352 32.136C113.048 31.488 113.936 31.164 115.016 31.164C116.072 31.164 116.936 31.488 117.608 32.136C118.304 32.76 118.652 33.552 118.652 34.512C118.652 35.448 118.304 36.24 117.608 36.888C116.936 37.512 116.072 37.824 115.016 37.824ZM118.076 39.912V60H111.92V39.912H118.076ZM128.693 33.36V60H122.537V33.36H128.693ZM152.09 49.632C152.09 50.208 152.054 50.808 151.982 51.432H138.05C138.146 52.68 138.542 53.64 139.238 54.312C139.958 54.96 140.834 55.284 141.866 55.284C143.402 55.284 144.47 54.636 145.07 53.34H151.622C151.286 54.66 150.674 55.848 149.786 56.904C148.922 57.96 147.83 58.788 146.51 59.388C145.19 59.988 143.714 60.288 142.082 60.288C140.114 60.288 138.362 59.868 136.826 59.028C135.29 58.188 134.09 56.988 133.226 55.428C132.362 53.868 131.93 52.044 131.93 49.956C131.93 47.868 132.35 46.044 133.19 44.484C134.054 42.924 135.254 41.724 136.79 40.884C138.326 40.044 140.09 39.624 142.082 39.624C144.026 39.624 145.754 40.032 147.266 40.848C148.778 41.664 149.954 42.828 150.794 44.34C151.658 45.852 152.09 47.616 152.09 49.632ZM145.79 48.012C145.79 46.956 145.43 46.116 144.71 45.492C143.99 44.868 143.09 44.556 142.01 44.556C140.978 44.556 140.102 44.856 139.382 45.456C138.686 46.056 138.254 46.908 138.086 48.012H145.79ZM179.418 34.728V39.66H169.122V44.988H176.826V49.776H169.122V60H162.966V34.728H179.418ZM191.798 60.288C189.83 60.288 188.054 59.868 186.47 59.028C184.91 58.188 183.674 56.988 182.762 55.428C181.874 53.868 181.43 52.044 181.43 49.956C181.43 47.892 181.886 46.08 182.798 44.52C183.71 42.936 184.958 41.724 186.542 40.884C188.126 40.044 189.902 39.624 191.87 39.624C193.838 39.624 195.614 40.044 197.198 40.884C198.782 41.724 200.03 42.936 200.942 44.52C201.854 46.08 202.31 47.892 202.31 49.956C202.31 52.02 201.842 53.844 200.906 55.428C199.994 56.988 198.734 58.188 197.126 59.028C195.542 59.868 193.766 60.288 191.798 60.288ZM191.798 54.96C192.974 54.96 193.97 54.528 194.786 53.664C195.626 52.8 196.046 51.564 196.046 49.956C196.046 48.348 195.638 47.112 194.822 46.248C194.03 45.384 193.046 44.952 191.87 44.952C190.67 44.952 189.674 45.384 188.882 46.248C188.09 47.088 187.694 48.324 187.694 49.956C187.694 51.564 188.078 52.8 188.846 53.664C189.638 54.528 190.622 54.96 191.798 54.96ZM211.732 43.26C212.452 42.156 213.352 41.292 214.432 40.668C215.512 40.02 216.712 39.696 218.032 39.696V46.212H216.34C214.804 46.212 213.652 46.548 212.884 47.22C212.116 47.868 211.732 49.02 211.732 50.676V60H205.576V39.912H211.732V43.26ZM232.17 54.78V60H229.038C226.806 60 225.066 59.46 223.818 58.38C222.57 57.276 221.946 55.488 221.946 53.016V45.024H219.498V39.912H221.946V35.016H228.102V39.912H232.134V45.024H228.102V53.088C228.102 53.688 228.246 54.12 228.534 54.384C228.822 54.648 229.302 54.78 229.974 54.78H232.17ZM241.755 43.26C242.475 42.156 243.375 41.292 244.455 40.668C245.535 40.02 246.735 39.696 248.055 39.696V46.212H246.363C244.827 46.212 243.675 46.548 242.907 47.22C242.139 47.868 241.755 49.02 241.755 50.676V60H235.599V39.912H241.755V43.26ZM269.934 49.632C269.934 50.208 269.898 50.808 269.826 51.432H255.894C255.99 52.68 256.386 53.64 257.082 54.312C257.802 54.96 258.678 55.284 259.71 55.284C261.246 55.284 262.314 54.636 262.914 53.34H269.466C269.13 54.66 268.518 55.848 267.63 56.904C266.766 57.96 265.674 58.788 264.354 59.388C263.034 59.988 261.558 60.288 259.926 60.288C257.958 60.288 256.206 59.868 254.67 59.028C253.134 58.188 251.934 56.988 251.07 55.428C250.206 53.868 249.774 52.044 249.774 49.956C249.774 47.868 250.194 46.044 251.034 44.484C251.898 42.924 253.098 41.724 254.634 40.884C256.17 40.044 257.934 39.624 259.926 39.624C261.87 39.624 263.598 40.032 265.11 40.848C266.622 41.664 267.798 42.828 268.638 44.34C269.502 45.852 269.934 47.616 269.934 49.632ZM263.634 48.012C263.634 46.956 263.274 46.116 262.554 45.492C261.834 44.868 260.934 44.556 259.854 44.556C258.822 44.556 257.946 44.856 257.226 45.456C256.53 46.056 256.098 46.908 255.93 48.012H263.634ZM281.353 60.288C279.601 60.288 278.041 59.988 276.673 59.388C275.305 58.788 274.225 57.972 273.433 56.94C272.641 55.884 272.197 54.708 272.101 53.412H278.185C278.257 54.108 278.581 54.672 279.157 55.104C279.733 55.536 280.441 55.752 281.281 55.752C282.049 55.752 282.637 55.608 283.045 55.32C283.477 55.008 283.693 54.612 283.693 54.132C283.693 53.556 283.393 53.136 282.793 52.872C282.193 52.584 281.221 52.272 279.877 51.936C278.437 51.6 277.237 51.252 276.277 50.892C275.317 50.508 274.489 49.92 273.793 49.128C273.097 48.312 272.749 47.22 272.749 45.852C272.749 44.7 273.061 43.656 273.685 42.72C274.333 41.76 275.269 41.004 276.493 40.452C277.741 39.9 279.217 39.624 280.921 39.624C283.441 39.624 285.421 40.248 286.861 41.496C288.325 42.744 289.165 44.4 289.381 46.464H283.693C283.597 45.768 283.285 45.216 282.757 44.808C282.253 44.4 281.581 44.196 280.741 44.196C280.021 44.196 279.469 44.34 279.085 44.628C278.701 44.892 278.509 45.264 278.509 45.744C278.509 46.32 278.809 46.752 279.409 47.04C280.033 47.328 280.993 47.616 282.289 47.904C283.777 48.288 284.989 48.672 285.925 49.056C286.861 49.416 287.677 50.016 288.373 50.856C289.093 51.672 289.465 52.776 289.489 54.168C289.489 55.344 289.153 56.4 288.481 57.336C287.833 58.248 286.885 58.968 285.637 59.496C284.413 60.024 282.985 60.288 281.353 60.288ZM301.427 60.288C299.675 60.288 298.115 59.988 296.747 59.388C295.379 58.788 294.299 57.972 293.507 56.94C292.715 55.884 292.271 54.708 292.175 53.412H298.259C298.331 54.108 298.655 54.672 299.231 55.104C299.807 55.536 300.515 55.752 301.355 55.752C302.123 55.752 302.711 55.608 303.119 55.32C303.551 55.008 303.767 54.612 303.767 54.132C303.767 53.556 303.467 53.136 302.867 52.872C302.267 52.584 301.295 52.272 299.951 51.936C298.511 51.6 297.311 51.252 296.351 50.892C295.391 50.508 294.563 49.92 293.867 49.128C293.171 48.312 292.823 47.22 292.823 45.852C292.823 44.7 293.135 43.656 293.759 42.72C294.407 41.76 295.343 41.004 296.567 40.452C297.815 39.9 299.291 39.624 300.995 39.624C303.515 39.624 305.495 40.248 306.935 41.496C308.399 42.744 309.239 44.4 309.455 46.464H303.767C303.671 45.768 303.359 45.216 302.831 44.808C302.327 44.4 301.655 44.196 300.815 44.196C300.095 44.196 299.543 44.34 299.159 44.628C298.775 44.892 298.583 45.264 298.583 45.744C298.583 46.32 298.883 46.752 299.483 47.04C300.107 47.328 301.067 47.616 302.363 47.904C303.851 48.288 305.063 48.672 305.999 49.056C306.935 49.416 307.751 50.016 308.447 50.856C309.167 51.672 309.539 52.776 309.563 54.168C309.563 55.344 309.227 56.4 308.555 57.336C307.907 58.248 306.959 58.968 305.711 59.496C304.487 60.024 303.059 60.288 301.427 60.288Z" fill="#03045E"/>
<g clip-path="url(#clip0_143_454)">
<path d="M47.4935 53.6425C47.4319 53.8357 47.3679 54.0268 47.3063 54.22C43.3475 54.2755 39.391 54.3475 35.4322 54.3721C34.4703 54.3721 33.5061 54.2242 32.4731 54.1378C32.5608 53.7679 32.6058 53.5644 32.6532 53.363C32.8498 52.8923 33.0915 52.4319 33.2336 51.9489C33.2414 51.9294 33.2477 51.9095 33.2526 51.8893C34.1055 48.8063 34.9276 45.7233 35.7734 42.6506C35.9961 41.8428 36.1216 41.181 35.1811 40.5151C34.5959 40.104 34.295 39.2592 34.115 38.5604C33.9208 37.8034 33.9145 37.0191 34.0963 36.2598C34.2781 35.5004 34.6439 34.7832 35.1695 34.1558C35.6951 33.5285 36.3684 33.0052 37.1448 32.6207C37.9212 32.2362 38.783 31.9994 39.673 31.9258C42.7149 31.7018 45.7403 33.8578 46.1004 36.5051C46.3373 38.3158 46.0531 39.9704 44.3639 41.257C44.278 41.3396 44.2149 41.438 44.1792 41.5448C44.1435 41.6516 44.1362 41.764 44.1577 41.8736C44.9901 44.9772 45.8406 48.0773 46.7093 51.174C46.7519 51.322 46.7946 51.47 46.8396 51.6159C47.0457 52.288 47.2779 52.9642 47.4935 53.6425Z" fill="#15253C"/>
<path d="M56.0986 50.5865C55.6733 50.876 55.2498 51.1675 54.828 51.461C53.0269 52.7038 51.0408 53.3882 49.0229 53.9886C48.0853 54.3268 47.1548 54.693 46.2032 54.9992C44.284 55.6236 42.3595 56.24 40.3505 56.31C39.5392 56.3611 38.7255 56.2999 37.9273 56.1279C35.9077 55.6263 33.9016 55.0573 31.9089 54.4209C30.3722 53.9266 28.8566 53.3402 27.3428 52.7538L26.7559 52.5157H26.733C25.591 52.0734 25.0676 51.1829 25.1821 50.0001C25.206 49.8725 25.2409 49.7478 25.2861 49.6279C24.8949 49.0636 24.8015 48.4272 24.8032 47.7107V47.2084C25.419 46.9236 26.0769 46.7748 26.7418 46.7701C27.0943 46.7701 27.4467 46.7802 27.8115 46.8102C29.0346 46.9202 30.2453 47.7888 31.4596 48.3211C31.4102 48.8834 31.3609 49.4498 31.2692 50.4904C32.3672 50.7246 33.3963 51.1548 34.422 51.1368H34.7093C34.1436 51.1312 33.7747 52.0574 33.6285 52.5157L34.2335 52.7638C34.2105 52.8959 34.1823 53.054 34.1436 53.2682C34.9119 53.3522 35.6292 53.5023 36.3447 53.4963C39.2896 53.4723 42.2327 53.4022 45.1775 53.3482C45.2233 53.1601 45.2709 52.974 45.3167 52.7859C45.2744 52.6117 45.2304 52.4376 45.1881 52.2635C46.2032 52.7859 45.8678 53.004 45.7603 52.5157L47.079 50.7186L47.28 49.1056C49.1938 48.7514 51.1095 48.3251 53.0251 48.0549C53.2331 48.0229 53.4393 47.9969 53.6472 47.9709C54.1908 47.923 54.7376 47.9553 55.2739 48.0669C55.2316 48.7814 55.073 49.4898 54.3804 49.8941L53.4516 51.0848L56.0422 50.4704L56.0986 50.5865Z" fill="#03045E"/>
<path d="M27.351 52.75H26.7554V52.5159L27.351 52.75Z" fill="#03045E"/>
<path d="M58.9254 20.6945C58.1562 21.4044 57.4733 22.2442 56.5881 22.7781C55.7029 23.312 55.4508 24.1144 55.4592 25.0542L55.4163 51.0086L54.3038 52.5343H47.2978L46.048 52.6342H46.0101L45.9785 52.5303C45.9616 52.4703 45.9447 52.4083 45.9258 52.3483C45.7277 51.6824 45.519 51.0186 45.3483 50.3487C44.6134 47.4906 43.8947 44.6285 43.1922 41.7624C43.1653 41.5983 43.2004 41.4304 43.2913 41.2885C43.312 41.2559 43.3376 41.2262 43.3671 41.2005C43.7029 40.9242 43.9934 40.6021 44.2292 40.2447C44.8867 39.2449 44.9858 38.0691 44.8298 36.8173C44.5284 34.3758 41.974 32.3762 39.3985 32.5762C38.6467 32.6438 37.9186 32.8624 37.2626 33.2175C36.6067 33.5725 36.0378 34.056 35.5939 34.6356C35.15 35.2153 34.8411 35.8779 34.6879 36.5795C34.5346 37.2811 34.5404 38.0057 34.7049 38.705C34.8567 39.3488 35.1096 40.1267 35.6049 40.5046C36.3994 41.1185 36.294 41.7304 36.1065 42.4762C35.3899 45.3197 34.6965 48.1671 33.9757 51.0086C33.8394 51.4585 33.6755 51.9005 33.4846 52.3323V53.1321H24.0131V49.9328C24.012 49.9161 24.012 49.8994 24.0131 49.8828C24.0131 48.971 24.0074 48.0585 23.9962 47.1453C23.9527 39.5908 23.926 32.0376 23.9161 24.4858C23.9161 23.7919 23.659 23.382 23.1152 22.9441C22.2722 22.2662 21.5661 21.4544 20.7969 20.7005C21.3533 20.7005 21.9097 20.6865 22.464 20.6865L58.9254 20.6945Z" fill="#FCAE37"/>
<path d="M78.6897 49.8023C78.6897 50.6988 78.621 51.6034 78.5822 52.4919C78.5668 52.4228 78.545 52.3557 78.517 52.2918C78.5399 52.0917 78.5629 51.8775 78.5822 51.6694C78.4324 51.019 78.124 51.4112 77.9302 51.5713C76.1096 53.1041 73.8517 53.8125 71.5964 53.5586C70.3469 53.4365 69.0533 53.2924 67.9801 52.4419C67.2752 51.8815 66.6901 51.0971 66.0574 50.4206C65.5939 51.3912 65.1498 52.5199 64.5576 53.5226C62.6931 56.6805 60.1307 58.7738 57.0924 60.0206C53.7927 61.3535 50.3133 62.022 46.811 61.9958C39.6595 61.9958 32.508 61.9458 25.3565 61.8457C23.7689 61.8226 22.1866 61.6323 20.6299 61.2773C17.671 60.6029 15.1667 58.9639 13.5365 55.812C13.3057 55.3677 13.0924 55.4417 12.7259 55.6559C11.8659 56.1602 10.99 56.7365 10.0665 56.9527C7.27324 57.6091 4.86062 56.7025 2.95378 54.1109C2.86743 53.9908 2.70353 53.9508 2.57488 53.8748C2.60131 54.1329 2.63127 54.3871 2.66476 54.6392L2.57488 54.5932C2.32965 52.633 2.40192 50.6383 2.78812 48.7076C3.95654 43.1682 6.85204 39.2017 11.3883 36.8383C12.6765 36.1658 14.0917 35.7936 15.4663 35.3593C15.9368 35.2112 16.1113 34.9951 16.0831 34.4648C15.9597 32.1273 16.4144 29.914 17.2515 27.7987C18.0164 25.8655 18.9557 24.0484 20.2475 22.4894C20.577 22.0891 20.9225 21.7049 21.2714 21.3267C21.5763 20.9985 21.8583 20.9965 22.1667 21.3727C22.9562 22.3393 23.7862 23.2599 24.5564 24.2445C24.7309 24.5245 24.8189 24.8623 24.8066 25.2051C24.8195 32.5616 24.8195 39.9195 24.8066 47.2787V47.781C24.8066 48.4894 24.9631 50.0827 24.9631 50.7066C24.8486 51.8894 25.5785 52.1377 26.7205 52.58H26.7434V52.8141H27.3444C28.8582 53.4005 29.994 53.4188 31.5308 53.9131C33.521 54.5535 35.5271 55.1225 37.5491 55.6201C38.3473 55.7921 39.6264 56.2951 40.4376 56.2441C42.4467 56.1741 43.7178 55.6206 45.637 54.9962C46.5798 54.69 48.0265 54.0716 49.1032 53.7483C51.1211 53.1579 53.0285 52.7681 54.8296 51.5253C55.2526 51.2331 55.6761 50.9416 56.1002 50.6508L56.0315 50.5207L56.1592 50.7066L54.5 52C55.1926 51.5998 55.2404 48.5477 55.2631 48.1172C55.2737 47.9171 55.2772 47.735 55.2808 47.5489C55.3319 43.9466 55.3019 40.3324 55.3037 36.7242C55.3037 33.0279 55.316 29.3316 55.3037 25.6353C55.2897 25.3564 55.3355 25.0778 55.4371 24.8234C55.5387 24.569 55.0692 23.4245 55.2631 23.2527C56.1443 22.3681 57.5647 22.2933 58.3736 21.3187C58.9376 20.6402 58.9376 20.6142 59.5297 21.3027C60.9273 22.9477 62.212 24.6767 62.9063 26.8501C63.2024 27.7787 63.4615 28.7272 63.68 29.6838C63.8245 30.3102 64.0783 30.6144 64.6757 30.7405C68.433 31.541 71.4801 33.7764 74.0936 36.8583C77.1583 40.4765 78.651 44.8092 78.6897 49.8023Z" fill="#22237C"/>
<path d="M27.3189 52.8114L26.4678 53.0614L26.7232 52.5773L27.3189 52.8114Z" fill="#22237C"/>
<path d="M78.5824 51.5973C78.5631 51.7974 78.5401 52.0135 78.5172 52.2197C78.3551 51.8855 78.0996 52.1876 77.9304 52.3197C76.0866 53.7914 73.8398 54.4651 71.5966 54.2189C70.3471 54.1028 69.0535 53.9667 67.9803 53.1522C67.2754 52.6179 66.6903 51.8674 66.0576 51.221C65.5941 52.1476 65.15 53.2223 64.5579 54.1869C62.6933 57.2047 60.1309 59.204 57.0926 60.3907C53.7822 61.6666 50.3071 62.3044 46.8112 62.2779C39.6597 62.2779 32.5082 62.2305 25.3567 62.1358C23.7702 62.1125 22.1886 61.931 20.6301 61.5935C17.6712 60.9531 15.174 59.3921 13.5385 56.3742C13.3077 55.95 13.0944 56.02 12.7278 56.2241C11.8678 56.7064 10.992 57.2568 10.0685 57.4649C7.27521 58.0933 4.86259 57.2248 2.95575 54.7472C2.8735 54.6628 2.77519 54.6012 2.66849 54.5671C2.63501 54.315 2.60505 54.0608 2.57861 53.8026C2.70726 53.8787 2.87116 53.9187 2.95751 54.0388C4.86435 56.6304 7.27697 57.5369 10.0703 56.8805C10.9937 56.6644 11.8696 56.08 12.7296 55.5837C13.0962 55.3696 13.3094 55.2956 13.5403 55.7398C15.1775 58.8918 17.6747 60.5308 20.6336 61.2052C22.1903 61.5602 23.7726 61.7505 25.3602 61.7736C32.5117 61.8763 39.6632 61.9263 46.8148 61.9237C50.317 61.9499 53.7964 61.2814 57.0962 59.9484C60.1344 58.7017 62.6968 56.6084 64.5614 53.4504C65.1535 52.4498 65.5976 51.3191 66.0611 50.3485C66.6938 51.0249 67.2754 51.8094 67.9838 52.3698C69.0571 53.2203 70.3506 53.3704 71.6001 53.4864C73.8554 53.7404 76.1133 53.032 77.9339 51.4992C78.1242 51.3391 78.4326 50.9469 78.5824 51.5973Z" fill="#22237C"/>
<path d="M78.3129 50.0054C78.2935 50.2055 78.7127 49.7984 78.6898 50.0045C78.3421 53.1236 77.3742 56.1121 75.8595 58.7439C74.1253 61.7457 71.4698 64.7385 68.7206 66.3455C66.4295 67.6823 64.0152 68.4728 61.4457 68.4768C53.1487 68.4928 44.851 68.5041 36.5528 68.5108C30.0005 68.5108 23.4464 68.5108 16.8941 68.4688C14.0399 68.4718 11.2616 67.4242 8.97596 65.4829C5.30504 62.391 3.08979 58.2104 2.39896 52.9752C2.36548 52.723 2.33552 52.4689 2.30908 52.2107C2.43773 52.2868 2.60163 52.3268 2.68798 52.4469C4.59482 55.0385 7.00744 55.945 9.80073 55.2886C10.7242 55.0725 11.6001 54.4881 12.4601 53.9918C12.8266 53.7777 13.0399 53.7036 13.2707 54.1479C14.9079 57.2999 17.4052 58.9389 20.3641 59.6133C21.9208 59.9683 23.5031 60.1585 25.0907 60.1816C32.2422 60.2844 39.3937 60.3344 46.5452 60.3317C50.0475 60.3579 53.5269 59.6895 56.8266 58.3565C59.8649 57.1097 62.4273 55.0165 64.2918 51.8585C64.884 50.8579 65.3281 49.7272 65.7916 48.7566C66.4243 49.433 67.0058 50.2175 67.7143 50.7778C68.7875 51.6284 70.0811 51.7785 71.3306 51.8945C73.5859 52.1485 75.8437 51.4401 77.6644 49.9073C77.8547 49.7472 78.1631 49.355 78.3129 50.0054Z" fill="#03045E"/>
<path d="M21.5996 19.4307C21.1563 18.7891 20.6056 18.1968 20.3034 17.4914C19.9996 16.7769 19.8296 16.0093 19.8024 15.2292C19.7348 13.2406 19.7746 11.2498 19.7825 9.26527C19.7925 7.65294 20.4306 6.9784 21.9794 6.95989C23.6613 6.94892 25.3446 6.94892 27.0291 6.95989C28.4665 6.97017 29.065 7.59536 29.065 9.06167C29.065 10.2956 29.0868 11.548 29.065 12.7922C29.0491 13.3969 29.2359 13.6436 29.8503 13.6334C31.6853 13.6005 33.5223 13.6005 35.3593 13.619C35.8762 13.619 36.0492 13.4133 36.0392 12.9012C36.0174 11.6344 36.0233 10.3676 36.0392 9.1028C36.0233 7.72286 36.745 6.97634 38.083 6.95989C39.745 6.95989 41.4071 6.94755 43.0672 6.95989C44.5622 6.98456 45.2402 7.69818 45.2402 9.22208C45.2402 10.4889 45.2521 11.7557 45.2402 13.0226C45.2402 13.512 45.4091 13.7136 45.8903 13.7095C47.7054 13.6971 49.5205 13.6909 51.3337 13.7095C51.8983 13.7095 52.0474 13.4586 52.0375 12.928C52.0136 11.6838 52.0176 10.4396 52.0236 9.1974C52.0255 7.57685 52.612 6.97223 54.1528 6.95989C55.8586 6.95989 57.5644 6.95989 59.2702 6.95989C60.4471 6.95989 61.2941 7.72903 61.3199 8.9465C61.3696 11.2971 61.3776 13.6519 61.306 16.0004C61.2881 16.5701 60.9382 17.1459 60.6698 17.6806C60.4061 18.1463 60.116 18.5954 59.801 19.0256C59.1569 18.9351 58.5127 18.7644 57.8686 18.7665C47.0255 18.7884 36.1817 18.8234 25.3373 18.8714C24.4406 18.8714 23.548 18.822 22.6513 18.9002C22.2895 18.9413 21.9495 19.2498 21.5996 19.4307Z" fill="#FEAE36"/>
<path d="M20.9189 19.0465C21.2788 18.8075 21.6284 18.4001 22.0005 18.3594C22.9143 18.2562 23.8405 18.3241 24.7625 18.3214C35.9129 18.2707 47.064 18.2245 58.2157 18.1829C58.8781 18.1829 59.5405 18.4056 60.2029 18.5251L58.8352 20.6597H23.4663C22.9286 20.6597 22.3889 20.6732 21.8492 20.6787L20.9189 19.0465Z" fill="#FE4144"/>
</g>
<defs>
<clipPath id="clip0_143_454">
<rect width="81" height="74" fill="white"/>
</clipPath>
</defs>
</svg>
