<svg width="42" height="41" viewBox="0 0 42 41" fill="none" xmlns="http://www.w3.org/2000/svg">
<path fill-rule="evenodd" clip-rule="evenodd" d="M21 1.93366e-06C9.399 1.93366e-06 0 9.39 0 20.979C0 30.249 6.018 38.109 14.361 40.884C15.411 41.076 15.795 40.428 15.795 39.873C15.795 39.375 15.777 38.055 15.765 36.303C9.924 37.572 8.694 33.492 8.694 33.492C7.737 31.068 6.36 30.423 6.36 30.423C4.455 29.121 6.504 29.148 6.504 29.148C8.613 29.298 9.723 31.308 9.723 31.308C11.595 34.518 14.637 33.588 15.834 33.054C16.023 31.698 16.566 30.774 17.166 30.249C12.504 29.721 7.602 27.921 7.602 19.881C7.602 17.592 8.421 15.717 9.762 14.253C9.546 13.722 8.826 11.589 9.972 8.703C9.972 8.703 11.73 8.136 15.744 10.851C17.4571 10.3843 19.2244 10.1462 21 10.143C22.785 10.152 24.582 10.383 26.259 10.851C30.267 8.136 32.028 8.7 32.028 8.7C33.174 11.589 32.454 13.722 32.238 14.25C33.582 15.72 34.398 17.592 34.398 19.881C34.398 27.939 29.484 29.715 24.807 30.231C25.56 30.879 26.232 32.16 26.232 34.119C26.232 36.921 26.205 39.183 26.205 39.873C26.205 40.434 26.586 41.085 27.651 40.881C31.8281 39.4882 35.4614 36.8168 38.0365 33.2451C40.6117 29.6734 41.9983 25.3822 42 20.979C41.9968 15.4124 39.7826 10.0749 35.8445 6.1407C31.9063 2.20646 26.5666 -0.0023857 21 1.93366e-06Z" fill="#161514"/>
</svg>
