<svg width="48" height="48" viewBox="0 0 48 48" fill="none" xmlns="http://www.w3.org/2000/svg">
<path d="M44.7 24.483C44.7 23.055 44.583 21.621 44.337 20.217H24.417V28.302H35.823C35.5877 29.5958 35.0922 30.8285 34.3667 31.9253C33.6412 33.0221 32.7006 33.9603 31.602 34.683V39.933H38.409C42.405 36.273 44.7 30.873 44.7 24.483Z" fill="#4285F4"/>
<path d="M24.42 45C30.114 45 34.917 43.14 38.415 39.93L31.611 34.683C29.718 35.964 27.273 36.69 24.426 36.69C18.918 36.69 14.247 32.994 12.57 28.026H5.55V33.435C7.3188 36.9187 10.0188 39.8438 13.3499 41.8854C16.6811 43.927 20.513 45.0051 24.42 45Z" fill="#34A853"/>
<path d="M12.561 28.026C11.6763 25.419 11.6763 22.593 12.561 19.986V14.577H5.547C4.06993 17.5006 3.30038 20.7304 3.30038 24.006C3.30038 27.2816 4.06993 30.5113 5.547 33.435L12.561 28.026Z" fill="#FBBC04"/>
<path d="M24.42 11.31C27.4279 11.2612 30.3353 12.3919 32.52 14.46L38.55 8.463C34.7177 4.89319 29.657 2.93767 24.42 3.003C20.5119 2.99805 16.6791 4.07724 13.3477 6.12056C10.0163 8.16387 7.31702 11.0912 5.55 14.577L12.558 19.98C14.226 15.006 18.906 11.31 24.414 11.31H24.42Z" fill="#EA4335"/>
</svg>
