<svg width="17" height="17" viewBox="0 0 17 17" fill="none" xmlns="http://www.w3.org/2000/svg">
<path d="M8.61333 7.69958C8.5425 7.6925 8.4575 7.6925 8.37958 7.69958C6.69375 7.64291 5.355 6.26166 5.355 4.56166C5.355 2.82625 6.7575 1.41666 8.5 1.41666C10.2354 1.41666 11.645 2.82625 11.645 4.56166C11.6379 6.26166 10.2992 7.64291 8.61333 7.69958Z" stroke="#AAAAAA" stroke-linecap="round" stroke-linejoin="round"/>
<path d="M5.07167 10.3133C3.3575 11.4608 3.3575 13.3308 5.07167 14.4713C7.01958 15.7746 10.2142 15.7746 12.1621 14.4713C13.8762 13.3238 13.8762 11.4538 12.1621 10.3133C10.2212 9.01709 7.02667 9.01709 5.07167 10.3133Z" stroke="#AAAAAA" stroke-linecap="round" stroke-linejoin="round"/>
</svg>
