<svg width="17" height="17" viewBox="0 0 17 17" fill="none" xmlns="http://www.w3.org/2000/svg">
<path d="M17 0H0V17H17V0Z" stroke="#AAAAAA" stroke-width="0.00064"/>
<path d="M13.8125 6.375H12.3958V4.60417C12.3958 3.57093 11.9854 2.58001 11.2548 1.8494C10.5242 1.11879 9.53325 0.708336 8.50001 0.708336H7.79168C6.75844 0.708336 5.76752 1.11879 5.03691 1.8494C4.3063 2.58001 3.89584 3.57093 3.89584 4.60417V6.375H2.47918C2.29132 6.375 2.11115 6.44963 1.97831 6.58247C1.84547 6.71531 1.77084 6.89547 1.77084 7.08334V15.5833C1.77084 15.7712 1.84547 15.9514 1.97831 16.0842C2.11115 16.217 2.29132 16.2917 2.47918 16.2917H13.8125C14.0004 16.2917 14.1805 16.217 14.3134 16.0842C14.4462 15.9514 14.5208 15.7712 14.5208 15.5833V7.08334C14.5208 6.89547 14.4462 6.71531 14.3134 6.58247C14.1805 6.44963 14.0004 6.375 13.8125 6.375ZM5.31251 4.60417C5.31251 3.94665 5.57371 3.31607 6.03864 2.85113C6.50358 2.3862 7.13416 2.125 7.79168 2.125H8.50001C9.15753 2.125 9.78811 2.3862 10.253 2.85113C10.718 3.31607 10.9792 3.94665 10.9792 4.60417V6.375H5.31251V4.60417ZM13.1042 14.875H3.18751V7.79167H13.1042V14.875Z" fill="#AAAAAA" stroke="#AAAAAA" stroke-width="0.00064"/>
<path d="M5.3125 12.3958C5.8993 12.3958 6.375 11.9201 6.375 11.3333C6.375 10.7465 5.8993 10.2708 5.3125 10.2708C4.7257 10.2708 4.25 10.7465 4.25 11.3333C4.25 11.9201 4.7257 12.3958 5.3125 12.3958Z" fill="#AAAAAA" stroke="#AAAAAA" stroke-width="0.00064"/>
<path d="M8.14584 12.3958C8.73265 12.3958 9.20834 11.9201 9.20834 11.3333C9.20834 10.7465 8.73265 10.2708 8.14584 10.2708C7.55904 10.2708 7.08334 10.7465 7.08334 11.3333C7.08334 11.9201 7.55904 12.3958 8.14584 12.3958Z" fill="#AAAAAA" stroke="#AAAAAA" stroke-width="0.00064"/>
<path d="M10.9792 12.3958C11.566 12.3958 12.0417 11.9201 12.0417 11.3333C12.0417 10.7465 11.566 10.2708 10.9792 10.2708C10.3924 10.2708 9.91669 10.7465 9.91669 11.3333C9.91669 11.9201 10.3924 12.3958 10.9792 12.3958Z" fill="#AAAAAA" stroke="#AAAAAA" stroke-width="0.00064"/>
</svg>
