<svg  viewBox="0 0 30 28" fill="none" xmlns="http://www.w3.org/2000/svg">
<ellipse cx="15" cy="14" rx="15" ry="14" fill="#D2DEF7"/>
<path d="M20.5971 17.295L17.7425 14.655C18.0473 14.1487 18.2076 13.5792 18.2083 13C18.2083 12.3078 17.986 11.6311 17.5693 11.0555C17.1527 10.4799 16.5605 10.0313 15.8677 9.76642C15.1748 9.50152 14.4125 9.4322 13.677 9.56725C12.9414 9.7023 12.2658 10.0356 11.7356 10.5251C11.2053 11.0146 10.8442 11.6383 10.6979 12.3172C10.5516 12.9961 10.6266 13.6999 10.9136 14.3394C11.2006 14.9789 11.6866 15.5256 12.3101 15.9101C12.9337 16.2947 13.6667 16.5 14.4167 16.5C15.0441 16.4993 15.6611 16.3514 16.2096 16.07L19.0696 18.705C19.2768 18.8688 19.5434 18.9544 19.8161 18.9447C20.0887 18.935 20.3473 18.8307 20.5403 18.6526C20.7332 18.4745 20.8462 18.2357 20.8568 17.9841C20.8673 17.7324 20.7746 17.4863 20.5971 17.295ZM11.7083 13C11.7083 12.5055 11.8672 12.0222 12.1648 11.6111C12.4624 11.2 12.8854 10.8795 13.3802 10.6903C13.8751 10.5011 14.4197 10.4516 14.945 10.548C15.4704 10.6445 15.953 10.8826 16.3317 11.2322C16.7105 11.5819 16.9685 12.0273 17.073 12.5123C17.1775 12.9972 17.1238 13.4999 16.9188 13.9567C16.7139 14.4135 16.3667 14.804 15.9213 15.0787C15.476 15.3534 14.9523 15.5 14.4167 15.5C13.6984 15.5 13.0095 15.2366 12.5016 14.7678C11.9937 14.2989 11.7083 13.663 11.7083 13Z" fill="#6E7AFA"/>
</svg>
