<svg width="461" height="429" viewBox="0 0 461 429" fill="none" xmlns="http://www.w3.org/2000/svg">
<g clip-path="url(#clip0_112_75)">
<g clip-path="url(#clip1_112_75)">
<mask id="mask0_112_75" style="mask-type:luminance" maskUnits="userSpaceOnUse" x="0" y="33" width="461" height="363">
<path d="M461 33.2255H0V395.774H461V33.2255Z" fill="white"/>
</mask>
<g mask="url(#mask0_112_75)">
<path d="M375.448 208.205C375.448 213.299 375.218 218.342 374.758 223.333C374.397 227.229 373.904 231.09 373.278 234.916C372.613 238.968 371.798 242.969 370.833 246.923V246.928C370.203 249.53 369.51 252.11 368.756 254.67C366.566 262.11 363.843 269.405 360.606 276.506C359.902 278.051 359.176 279.585 358.426 281.108C355.59 286.878 352.413 292.498 348.913 297.941C339.094 313.228 326.839 327.033 312.565 338.884C311.021 340.164 309.455 341.423 307.867 342.661C274.168 368.901 231.635 383.247 187.724 383.184C84.0457 383.184 0 304.844 0 208.205C0 111.565 84.0457 33.2253 187.724 33.2253C230.123 33.163 271.284 46.5401 304.45 71.1603C306.005 72.3086 307.54 73.4827 309.056 74.6826C316.451 80.5289 323.353 86.8967 329.7 93.7299H329.705C359.269 125.495 375.516 166.152 375.448 208.205Z" fill="#F2F2F2"/>
<path d="M55.4159 238.43C37.533 228.509 24.0356 209.969 25.788 190.64C42.1373 205.225 63.4946 213.951 86.0811 215.271C94.7938 215.752 104.538 215.44 110.952 220.957C114.942 224.39 116.8 229.56 117.105 234.613C117.409 239.667 116.323 244.695 115.243 249.656L115.614 250.871C94.8038 250.943 73.2988 248.351 55.4159 238.43Z" fill="#E6E6E6"/>
<path d="M26.2241 190.62C33.3892 205.22 45.308 217.346 60.2873 225.273C63.5075 226.953 66.931 228.396 70.5691 229.065C74.1207 229.693 77.7876 229.422 81.1889 228.281C84.3833 227.277 87.5259 225.905 90.9264 225.642C94.5108 225.366 97.8291 226.655 100.436 228.912C103.626 231.674 105.561 235.34 107.32 238.986C109.272 243.035 111.231 247.269 114.975 250.18C115.429 250.533 114.814 251.168 114.362 250.815C107.849 245.751 106.785 237.267 101.579 231.302C99.1502 228.518 95.8062 226.401 91.8337 226.456C88.36 226.505 85.1179 227.917 81.893 228.96C78.5068 230.055 75.1147 230.569 71.5397 230.088C67.8829 229.595 64.3916 228.273 61.1394 226.677C53.7937 223.007 47.1127 218.283 41.3414 212.677C34.7166 206.315 29.3082 198.943 25.3504 190.88C25.1056 190.381 25.9809 190.123 26.2241 190.62Z" fill="white"/>
<path d="M55.3028 222.985C53.5347 225.147 50.9998 226.653 48.1505 227.233C45.3012 227.814 42.3234 227.432 39.7486 226.154C39.2286 225.894 39.6377 225.129 40.1584 225.389C42.5537 226.583 45.3277 226.939 47.9796 226.393C50.6316 225.847 52.987 224.435 54.6205 222.414C54.9761 221.975 55.6564 222.548 55.3028 222.985ZM79.6413 228.989C78.8971 223.476 75.9508 218.425 71.3897 214.847C70.9375 214.492 71.5511 213.857 72.0028 214.211C76.7416 217.944 79.7963 223.204 80.5571 228.943C80.6292 229.491 79.713 229.534 79.6413 228.989ZM35.854 205.914C36.725 205.21 37.395 204.315 37.8037 203.311C38.2124 202.306 38.3469 201.223 38.1954 200.157C38.1158 199.612 39.0322 199.57 39.1113 200.112C39.2729 201.29 39.1228 202.486 38.6738 203.597C38.2249 204.708 37.491 205.699 36.5361 206.485C36.4528 206.566 36.3394 206.615 36.2192 206.621C36.0988 206.627 35.9806 206.589 35.8885 206.517C35.7986 206.441 35.7445 206.335 35.738 206.222C35.7315 206.11 35.7732 205.998 35.854 205.914Z" fill="white"/>
<path d="M83.6736 153.194C83.7337 153.533 83.7937 153.873 83.8607 154.215C84.6935 158.777 85.9224 163.268 87.5355 167.644C87.6544 167.985 87.7805 168.328 87.9096 168.664C91.9164 179.169 97.9807 188.889 105.794 197.33C108.906 200.686 112.289 203.817 115.911 206.695C120.913 210.669 126.676 214.607 129.883 219.739C130.225 220.27 130.53 220.822 130.798 221.389L117.176 250.353C117.11 250.405 117.05 250.46 116.984 250.512L116.496 251.691C116.298 251.554 116.096 251.41 115.898 251.273C115.783 251.195 115.671 251.11 115.556 251.03C115.48 250.977 115.404 250.922 115.333 250.876C115.307 250.858 115.283 250.84 115.264 250.825C115.192 250.78 115.13 250.73 115.066 250.688C113.933 249.879 112.805 249.061 111.682 248.235C111.674 248.232 111.674 248.232 111.67 248.222C103.123 241.901 95.0664 234.859 88.4128 226.902C88.2126 226.662 88.0053 226.42 87.8115 226.167C84.8337 222.565 82.1768 218.741 79.8672 214.736C78.6102 212.538 77.4733 210.283 76.4609 207.978C73.8572 202.019 72.2754 195.716 71.7734 189.298C70.7746 176.506 74.1765 163.557 82.9923 153.923C83.2181 153.677 83.4408 153.437 83.6736 153.194Z" fill="#E6E6E6"/>
<path d="M84.0374 153.42C80.3274 169.099 82.0119 185.469 88.8516 200.205C90.3375 203.354 92.1389 206.427 94.6113 209.003C97.042 211.497 100.145 213.339 103.597 214.337C106.797 215.328 110.192 215.996 113.076 217.695C116.117 219.485 117.934 222.376 118.558 225.642C119.32 229.637 118.498 233.651 117.547 237.549C116.49 241.877 115.319 246.356 116.428 250.782C116.563 251.318 115.662 251.481 115.528 250.945C113.599 243.246 118.23 235.877 117.927 228.192C117.785 224.606 116.483 221.039 113.275 218.854C110.47 216.943 106.969 216.251 103.721 215.274C100.31 214.248 97.2693 212.755 94.7261 210.364C92.1246 207.918 90.1906 204.904 88.6248 201.805C85.1304 194.751 82.8476 187.23 81.8597 179.516C80.68 170.718 81.1236 161.797 83.1714 153.137C83.2984 152.602 84.1636 152.887 84.0374 153.42Z" fill="white"/>
<path d="M86.3496 195.581C83.5414 196.315 80.5447 196.094 77.8947 194.959C75.2446 193.824 73.1138 191.847 71.8829 189.382C71.6357 188.883 72.4567 188.502 72.7043 189.002C73.8461 191.299 75.831 193.14 78.301 194.192C80.7711 195.245 83.5633 195.439 86.1739 194.742C86.7415 194.591 86.9138 195.431 86.3496 195.581ZM101.904 214.034C104.871 209.213 105.781 203.528 104.451 198.111C104.318 197.575 105.218 197.411 105.351 197.947C106.724 203.586 105.764 209.502 102.665 214.511C102.369 214.989 101.61 214.508 101.904 214.034ZM81.8473 171.036C82.9974 170.963 84.11 170.625 85.0853 170.052C86.0605 169.479 86.8678 168.69 87.4348 167.754C87.7239 167.274 88.4828 167.755 88.1955 168.232C87.5639 169.262 86.6712 170.133 85.5952 170.768C84.5192 171.404 83.2928 171.784 82.023 171.875C81.904 171.893 81.7823 171.868 81.6824 171.805C81.5825 171.743 81.5119 171.647 81.485 171.537C81.4624 171.426 81.4878 171.311 81.5556 171.217C81.6234 171.123 81.7282 171.058 81.8473 171.036Z" fill="white"/>
<path d="M130.038 73.7807L153.014 324.49L107.061 327.71V76.9704C112.538 73.593 120.398 73.0647 130.038 73.7807ZM243.454 73.7807L220.478 324.49L266.432 327.71V76.9704C260.955 73.593 253.095 73.0647 243.454 73.7807Z" fill="#CCCCCC"/>
<path d="M259.55 338.073H113.453C111.11 338.07 108.864 337.202 107.208 335.658C105.551 334.113 104.62 332.02 104.617 329.837V80.6498C104.62 78.4662 105.551 76.3727 107.208 74.8287C108.864 73.2846 111.11 72.4161 113.453 72.4136H259.55C261.893 72.4161 264.139 73.2846 265.795 74.8287C267.452 76.3727 268.384 78.4662 268.387 80.6498V329.837C268.384 332.02 267.452 334.113 265.795 335.658C264.139 337.202 261.893 338.07 259.55 338.073ZM113.453 75.1477C111.889 75.1493 110.388 75.7295 109.281 76.761C108.174 77.7926 107.552 79.1911 107.551 80.6498V329.837C107.552 331.295 108.174 332.694 109.281 333.725C110.388 334.757 111.889 335.337 113.453 335.338H259.55C261.116 335.337 262.616 334.757 263.722 333.725C264.829 332.694 265.452 331.295 265.453 329.837V80.6498C265.452 79.1911 264.829 77.7926 263.722 76.761C262.616 75.7295 261.116 75.1493 259.55 75.1477H113.453Z" fill="#CCCCCC"/>
<path d="M266.92 113.88H106.084V116.614H266.92V113.88ZM266.92 159.447H106.084V162.182H266.92V159.447Z" fill="#CCCCCC"/>
<path d="M158.276 73.7807H155.343V198.18H158.276V73.7807ZM217.66 73.7807H214.727V198.18H217.66V73.7807ZM285.253 345.591H92.6399C89.1391 345.591 85.7818 344.294 83.3065 341.987C80.8312 339.68 79.4405 336.551 79.4405 333.288C79.4405 330.025 80.8312 326.895 83.3065 324.588C85.7818 322.281 89.1391 320.985 92.6399 320.985H285.253C288.753 320.985 292.11 322.281 294.586 324.588C297.061 326.895 298.452 330.025 298.452 333.288C298.452 336.551 297.061 339.68 294.586 341.987C292.11 344.294 288.753 345.591 285.253 345.591Z" fill="#CCCCCC"/>
<path d="M266.92 191.801H107.061V200.914H266.92V191.801Z" fill="#CCCCCC"/>
<path d="M158.732 220.805L158.529 220.713C147.631 215.807 133.361 215.811 112.256 220.73L112.031 220.782L111.963 220.574C109.731 213.751 107.202 206.023 111.953 202.221C112.02 191.063 122.519 182.003 135.416 182.003C148.311 182.003 158.809 191.058 158.879 202.213C165.947 207.25 162.579 214.693 158.845 220.623L158.732 220.805Z" fill="#2F2E41"/>
<path d="M225.711 196.913C225.516 197.818 225.111 198.671 224.524 199.413C223.936 200.155 223.182 200.768 222.312 201.209C221.443 201.65 220.481 201.908 219.494 201.964C218.506 202.021 217.516 201.875 216.596 201.537L178.085 237.61L174.649 226.409L212.898 192.91C213.61 191.507 214.849 190.395 216.381 189.786C217.914 189.177 219.632 189.114 221.212 189.607C222.792 190.1 224.123 191.116 224.951 192.464C225.781 193.81 226.052 195.393 225.711 196.913Z" fill="#FFB6B6"/>
<path d="M130.531 231.641C130.531 231.641 127.036 239.021 135.658 243.573C144.279 248.125 174.411 241.837 179.301 240.958C184.19 240.081 202.451 214.608 202.451 214.608L199.869 202.116L175.65 221.712L130.531 231.641Z" fill="#03045E"/>
<path d="M124.172 272.455L124.66 281.113C124.66 281.113 123.217 288.782 124.404 290.437C125.582 292.084 157.721 292.292 157.721 292.292C157.721 292.292 159.844 281.621 161.673 272.282L124.172 272.455ZM216.574 386.931L223.293 385.665L221.369 360.369L211.453 362.236L216.574 386.931ZM226.198 354.011L232.445 351.393L224.341 327.189L215.122 331.054L226.198 354.011Z" fill="#FFB6B6"/>
<path d="M231.639 340.374L219.878 346.581L190.873 303.136C170.511 315.923 150.599 322.046 130.527 325.314C123.74 326.44 116.821 325.869 115.519 319.431C115.458 319.13 115.409 318.827 115.373 318.523C114.572 311.49 123.956 302.476 125.149 293.872L150.834 292.434L154.002 296.22L183.706 279.198C189.68 275.775 197.536 277.627 201.254 283.333C201.451 283.634 201.633 283.943 201.801 284.26L231.639 340.374Z" fill="#2F2E41"/>
<path d="M224.441 369.6L210.983 370.765L186.582 324.25C162.385 328.128 139.558 329.371 119.814 324.679C113.129 323.111 109.043 316.677 110.686 310.308C110.764 310.01 110.852 309.715 110.953 309.423C113.317 302.703 119.502 297.949 124.375 290.557L159.973 291.061L155.997 303.848L190.578 299.677C197.532 298.838 203.883 303.531 204.763 310.157C204.81 310.507 204.84 310.858 204.854 311.211L224.441 369.6Z" fill="#2F2E41"/>
<path d="M138.071 214.191C146.054 214.191 152.526 208.159 152.526 200.718C152.526 193.277 146.054 187.244 138.071 187.244C130.088 187.244 123.616 193.277 123.616 200.718C123.616 208.159 130.088 214.191 138.071 214.191Z" fill="#FFB6B6"/>
<path d="M129.597 219.055L142.851 220.509C143.41 220.57 143.934 220.792 144.351 221.144C144.768 221.497 145.056 221.962 145.177 222.474L147.285 231.465L160.424 245.886C160.424 245.886 165.142 254.132 163.373 263.477C161.603 272.823 160.826 279.767 160.826 279.767C160.826 279.767 125.58 292.084 124.401 290.436C123.221 288.786 122.838 281.295 122.838 281.295L118.12 232.37C118.12 232.37 123.428 224.124 126.377 224.124C128.28 224.064 128.036 220.072 129.597 219.055Z" fill="#03045E"/>
<path d="M161.184 282.775C163.043 282.775 164.55 281.09 164.55 279.011C164.55 276.932 163.043 275.247 161.184 275.247C159.325 275.247 157.818 276.932 157.818 279.011C157.818 281.09 159.325 282.775 161.184 282.775Z" fill="#03045E"/>
<path d="M213.239 380.417L223.483 375.632L225.414 379.83L238.367 382.271C239.007 382.391 239.589 382.699 240.028 383.15C240.466 383.6 240.739 384.17 240.806 384.775C240.873 385.38 240.73 385.99 240.399 386.514C240.069 387.038 239.567 387.45 238.967 387.69L226.451 392.69L222.385 389.4L223.452 393.889L218.732 395.774L213.239 380.417ZM223.267 351.997L233.418 347.045L235.428 351.211L248.425 353.439C249.067 353.549 249.654 353.847 250.101 354.29C250.549 354.733 250.832 355.298 250.91 355.903C250.989 356.507 250.859 357.118 250.537 357.647C250.216 358.178 249.722 358.598 249.127 358.847L236.707 364.052L232.579 360.829L233.731 365.3L229.049 367.262L223.267 351.997ZM129.813 196.492C125.994 196.498 122.267 195.401 119.143 193.354L119.039 193.286V193.167C119.043 189.725 120.512 186.423 123.124 183.989C125.736 181.554 129.277 180.185 132.972 180.181H138.838C142.532 180.185 146.073 181.554 148.685 183.989C151.297 186.423 152.766 189.725 152.771 193.167C152.766 193.956 152.432 194.711 151.84 195.273C151.247 195.835 150.442 196.16 149.597 196.177L130.143 196.489C130.032 196.491 129.922 196.492 129.813 196.492Z" fill="#2F2E41"/>
<path d="M153.748 190.673C155.618 189.667 155.931 186.907 154.447 184.51C152.962 182.112 150.241 180.985 148.371 181.992C146.5 182.998 146.187 185.758 147.672 188.155C149.157 190.552 151.877 191.68 153.748 190.673ZM124.493 187.999C126.593 186.041 127.057 183.3 125.53 181.876C124.003 180.454 121.062 180.886 118.962 182.844C116.862 184.801 116.398 187.542 117.925 188.965C119.453 190.389 122.393 189.956 124.493 187.999Z" fill="#2F2E41"/>
<path d="M252.42 311.187H237.992C237.666 311.187 237.345 311.253 237.05 311.38C236.753 311.507 236.492 311.693 236.282 311.925C235.75 311.833 235.201 311.861 234.684 312.006C234.165 312.15 233.69 312.407 233.3 312.756C232.908 313.104 232.612 313.533 232.433 314.01C232.255 314.486 232.2 314.994 232.274 315.495C232.347 315.994 232.547 316.47 232.855 316.884C233.165 317.298 233.575 317.638 234.053 317.875C234.529 318.113 235.061 318.241 235.601 318.251C236.142 318.259 236.678 318.149 237.164 317.927L238.361 321.552C238.503 321.982 238.789 322.357 239.176 322.625C239.565 322.891 240.034 323.035 240.516 323.035H249.896C250.379 323.035 250.848 322.891 251.236 322.625C251.623 322.357 251.909 321.982 252.05 321.552L254.575 313.907C254.678 313.593 254.701 313.26 254.642 312.936C254.582 312.612 254.443 312.305 254.233 312.04C254.024 311.776 253.751 311.561 253.436 311.413C253.121 311.264 252.773 311.187 252.42 311.187ZM235.673 317.339C235.025 317.339 234.403 317.099 233.944 316.672C233.487 316.244 233.228 315.665 233.228 315.061C233.228 314.457 233.487 313.878 233.944 313.449C234.403 313.022 235.025 312.783 235.673 312.783C235.718 312.783 235.759 312.793 235.803 312.795C235.706 313.161 235.718 313.546 235.838 313.907L236.87 317.035C236.506 317.232 236.094 317.337 235.673 317.339Z" fill="#3F3D56"/>
<path d="M187.995 301.296C187.008 301.381 186.016 301.264 185.085 300.952C184.153 300.64 183.307 300.143 182.604 299.493C181.902 298.843 181.361 298.058 181.019 297.192C180.677 296.327 180.543 295.402 180.627 294.484L132.503 270.446L143.029 264.163L188.431 288.705C190.078 288.939 191.576 289.726 192.642 290.92C193.707 292.114 194.266 293.629 194.212 295.182C194.159 296.734 193.496 298.214 192.349 299.34C191.204 300.467 189.654 301.163 187.995 301.296Z" fill="#FFB6B6"/>
<path d="M124.994 226.271C124.994 226.271 116.406 225.269 114.202 234.273C111.999 243.277 127.107 268.378 129.412 272.492C131.717 276.606 163.135 285.604 163.135 285.604L175.233 279.713L148.145 263.711L124.994 226.271Z" fill="#03045E"/>
<path d="M185.525 189.067H188.458C189.884 189.067 191.251 189.595 192.26 190.535C193.268 191.475 193.835 192.75 193.835 194.079H180.147C180.147 192.75 180.713 191.475 181.722 190.535C182.73 189.595 184.098 189.067 185.525 189.067Z" fill="#CCCCCC"/>
<path d="M92.5136 95.5462C108.563 95.5462 121.573 83.4193 121.573 68.46C121.573 53.5007 108.563 41.3738 92.5136 41.3738C76.4647 41.3738 63.4545 53.5007 63.4545 68.46C63.4545 83.4193 76.4647 95.5462 92.5136 95.5462Z" fill="#FF6584"/>
<path d="M181.485 67.0485C173.795 59.5287 164.864 52.6687 154.29 49.0436C151.345 48.0295 148.291 47.3142 145.181 46.91C145.156 46.9068 145.132 46.9115 145.108 46.9096C145.058 46.8975 145.006 46.8881 144.954 46.8815C140.605 46.3651 136.19 46.6135 131.939 47.6139C129.86 48.1002 127.832 48.7586 125.879 49.5815C123.92 50.4728 122.021 51.476 120.193 52.5852C116.325 54.7432 112.067 56.224 107.628 56.9546C105.4 57.3285 103.143 57.5349 100.88 57.572C98.9156 57.6086 97.0633 57.6722 95.2024 58.3337C93.2146 59.0305 91.429 60.1507 89.9881 61.6049C88.5472 63.0591 87.4909 64.8071 86.9036 66.7095C86.8583 66.8788 86.8719 67.0573 86.9425 67.219C87.0131 67.3807 87.137 67.5174 87.2963 67.6091C87.7997 67.9452 88.2904 68.3265 88.8193 68.6258C89.2898 68.8265 89.7923 68.9544 90.307 69.0041C91.1479 69.1694 91.9898 69.33 92.8328 69.4857C95.9385 70.0593 99.057 70.567 102.188 71.0089C108.525 71.9029 114.895 72.5327 121.301 72.8983C134.131 73.6227 147.005 73.262 159.766 71.8206C166.939 71.011 174.062 69.8627 181.108 68.38C181.251 68.3412 181.38 68.2685 181.484 68.1693C181.588 68.0701 181.662 67.9475 181.7 67.8136C181.738 67.6796 181.738 67.5388 181.7 67.4047C181.663 67.2706 181.589 67.148 181.485 67.0485ZM93.8927 85.1585C90.9474 84.1445 87.8936 83.4292 84.7839 83.025C84.7589 83.0217 84.7353 83.0264 84.7104 83.0246C84.6598 83.0125 84.6085 83.0031 84.5568 82.9964C80.2076 82.4801 75.793 82.7285 71.5421 83.7289C69.4633 84.2151 67.4353 84.8736 65.4823 85.6965C63.5225 86.5877 61.6234 87.5909 59.7962 88.7002C55.9286 90.8583 51.6701 92.339 47.2311 93.0695C45.003 93.4434 42.7462 93.6499 40.4825 93.6869C38.5184 93.7236 36.6661 93.7872 34.8052 94.4487C32.8174 95.1453 31.0318 96.2655 29.591 97.7198C28.15 99.174 27.0938 100.922 26.5064 102.824C26.4611 102.994 26.4747 103.172 26.5453 103.334C26.6159 103.496 26.7398 103.632 26.8991 103.724C27.4025 104.06 27.8932 104.441 28.4222 104.741C28.8926 104.941 29.3951 105.069 29.9098 105.119C30.7507 105.284 31.5926 105.445 32.4356 105.601C35.5413 106.174 38.6599 106.682 41.7913 107.124C48.1277 108.018 54.4983 108.648 60.9032 109.013C73.7339 109.738 86.6086 109.377 99.3695 107.936C106.541 107.126 113.664 105.978 120.711 104.495C120.853 104.456 120.984 104.384 121.087 104.284C121.191 104.185 121.265 104.062 121.303 103.928C121.341 103.794 121.341 103.654 121.304 103.52C121.266 103.386 121.192 103.263 121.089 103.163C113.398 95.6436 104.466 88.7836 93.8927 85.1585Z" fill="#E6E6E6"/>
<path d="M303.449 287.082L281.103 259.718L263.47 269.011L300.835 310.369L303.449 287.082Z" fill="#3F3D56"/>
<path d="M354.926 242.599C355.422 254.067 357.327 265.443 360.606 276.507C359.902 278.051 359.176 279.585 358.426 281.108C355.59 286.878 352.413 292.498 348.913 297.941C339.094 313.228 326.838 327.033 312.565 338.884C311.021 340.164 309.455 341.423 307.867 342.662C298.818 331.033 293.935 318.201 292.004 304.995C291.759 303.318 291.559 301.623 291.408 299.937V299.928C291.037 295.83 290.917 291.716 291.051 287.607C291.056 287.279 291.065 286.945 291.08 286.613C291.251 282.22 291.676 277.818 292.317 273.458V273.453C292.39 272.951 292.463 272.45 292.546 271.95C292.781 270.446 293.045 268.942 293.334 267.448C295.013 258.828 297.355 250.332 300.344 242.025V242.02C300.427 241.779 300.51 241.543 300.602 241.305C300.926 240.403 301.254 239.51 301.591 238.617C301.612 238.546 301.638 238.478 301.668 238.412C302.104 237.245 302.548 236.088 303.003 234.94C303.126 234.62 303.253 234.301 303.384 233.983C303.898 232.702 304.421 231.43 304.954 230.178C305.12 229.777 305.291 229.375 305.462 228.979C305.595 228.674 305.722 228.369 305.858 228.068V228.063C306.635 226.273 307.423 224.517 308.22 222.796C310.454 217.956 312.751 213.405 314.99 209.207L314.995 209.202C324.289 191.828 332.736 180.545 332.736 180.545L364.459 190.114C360.674 196.371 357.746 205.598 356.143 216.485C354.907 225.137 354.501 233.875 354.926 242.595V242.599Z" fill="#3F3D56"/>
<path d="M302.202 239.815C302.016 239.409 301.806 239.014 301.591 238.617C300.475 236.604 299.04 234.761 297.332 233.148C297.078 232.907 296.815 232.666 296.541 232.438C293.596 229.91 290.015 228.115 286.129 227.218C282.242 226.32 278.177 226.352 274.307 227.306L274.288 227.316L274.141 227.352L274.175 227.508C274.321 228.229 274.534 228.938 274.811 229.626C274.884 229.813 274.967 229.991 275.05 230.169C275.085 230.251 275.128 230.323 275.168 230.405C275.168 230.405 275.162 230.41 275.172 230.41C275.172 230.415 275.177 230.419 275.177 230.424C275.27 230.592 275.358 230.766 275.455 230.929C275.255 230.752 275.065 230.569 274.879 230.383C274.698 230.21 274.531 230.027 274.365 229.845C273.796 229.226 273.281 228.564 272.826 227.867L272.747 227.744L272.611 227.794C270.766 228.39 269.006 229.193 267.37 230.186L267.194 230.296C265.944 231.061 264.537 231.572 263.063 231.796C261.588 232.021 260.079 231.953 258.634 231.599C256.356 231.052 253.981 230.952 251.659 231.305C249.336 231.659 247.119 232.459 245.146 233.654C243.84 234.449 242.658 235.409 241.636 236.507C241.548 236.603 241.46 236.702 241.372 236.798C241.186 237.008 241.011 237.222 240.839 237.441C239.002 239.731 237.874 242.447 237.579 245.292L237.568 245.397L237.662 245.456C239.316 246.513 241.187 247.239 243.156 247.589C241.919 247.75 240.666 247.779 239.422 247.676H239.417C238.852 247.632 238.291 247.559 237.735 247.457L237.632 247.438H237.627L237.5 247.416L237.52 247.635C237.666 250.419 238.606 253.117 240.243 255.449L240.291 255.513C240.31 255.536 240.326 255.561 240.341 255.586C241.034 256.575 241.611 257.631 242.062 258.735C243.204 261.479 243.456 264.475 242.785 267.352C242.025 270.428 242.278 273.646 243.509 276.587C244.741 279.527 246.893 282.054 249.688 283.838C252.142 285.412 255.002 286.348 257.974 286.55C258.379 286.581 258.79 286.599 259.201 286.599C261.552 286.606 263.878 286.155 266.031 285.273L266.108 285.246L266.128 285.164C266.542 283.919 267.124 282.728 267.859 281.618C267.618 282.493 267.497 283.391 267.497 284.294V284.594L267.776 284.444C268.015 284.312 268.26 284.171 268.479 284.038C269.801 283.235 270.996 282.265 272.034 281.158C272.439 280.721 272.85 280.297 273.281 279.874L273.285 279.869C274.121 279.04 275.006 278.228 275.925 277.454C277.88 275.817 279.973 274.328 282.182 273.002C284.391 271.68 286.699 270.51 289.09 269.503H289.095C289.364 269.384 289.637 269.27 289.907 269.161C291.097 268.677 292.244 268.104 293.334 267.448C293.372 267.424 293.407 267.407 293.441 267.383C298.167 264.499 301.641 260.145 303.246 255.097C304.85 250.048 304.479 244.634 302.202 239.815Z" fill="#03045E"/>
<path opacity="0.15" d="M243.591 273.821C243.457 274.375 243.355 274.936 243.287 275.5C242.378 272.82 242.246 269.961 242.905 267.217C243.007 266.798 243.084 266.373 243.143 265.946C244.046 268.487 244.201 271.206 243.591 273.821ZM243.96 254.055C242.512 254.243 241.043 254.249 239.594 254.075C239.214 253.407 238.886 252.715 238.612 252.004C240.227 253.019 242.046 253.718 243.96 254.055ZM239.477 247.529C238.943 248.803 238.588 250.136 238.421 251.496C237.975 250.202 237.711 248.858 237.638 247.501L237.626 247.282L237.856 247.323C238.393 247.417 238.933 247.486 239.477 247.529ZM245.272 233.519C247.243 232.323 249.459 231.521 251.78 231.166C254.1 230.813 256.476 230.912 258.752 231.462C260.198 231.817 261.707 231.886 263.184 231.662C264.659 231.437 266.067 230.926 267.317 230.16L267.493 230.051C269.128 229.057 270.887 228.251 272.731 227.653L272.872 227.608L272.949 227.727C273.679 228.85 274.562 229.881 275.577 230.791C274.961 229.72 274.528 228.566 274.297 227.369L274.265 227.212L274.43 227.171C278.061 226.275 281.866 226.192 285.536 226.928C289.207 227.665 292.639 229.199 295.552 231.408C298.465 233.616 300.777 236.435 302.298 239.634C303.82 242.834 304.509 246.323 304.308 249.818C303.539 246.968 302.17 244.29 300.281 241.937C298.393 239.585 296.022 237.605 293.307 236.113C290.592 234.621 287.585 233.646 284.463 233.244C281.34 232.842 278.164 233.023 275.116 233.775L274.949 233.816L274.983 233.973C275.214 235.169 275.645 236.324 276.262 237.395C275.247 236.486 274.363 235.455 273.634 234.331L273.557 234.212L273.416 234.257C271.572 234.856 269.813 235.661 268.178 236.656L268.002 236.764C266.753 237.53 265.344 238.041 263.868 238.266C262.393 238.49 260.883 238.421 259.437 238.066C255.653 237.15 251.645 237.487 248.097 239.017C244.548 240.549 241.681 243.179 239.98 246.462C239.224 246.123 238.49 245.741 237.785 245.318L237.688 245.261L237.7 245.156C237.943 242.811 238.75 240.547 240.061 238.532C241.372 236.518 243.153 234.804 245.272 233.519Z" fill="black"/>
<path d="M427.014 117.088L426.549 116.801L426.212 117.211C423.601 120.275 421.524 123.702 420.057 127.368C420.26 123.145 421.052 118.965 422.414 114.933L422.561 114.509L422.139 114.286C416.669 111.399 410.841 109.146 404.785 107.578L404.125 107.414C399.483 106.227 395.162 104.141 391.443 101.292C387.724 98.4439 384.691 94.8967 382.542 90.8821C377.547 81.6687 369.657 74.0941 359.923 69.1691C350.19 64.2442 339.078 62.2031 328.067 63.3184H328.063C327.945 63.3274 327.822 63.3411 327.706 63.3548C327.505 63.373 327.31 63.3958 327.114 63.4186C326.714 63.4687 326.322 63.5189 325.931 63.5735C325.598 63.619 325.261 63.6692 324.928 63.7239C324.753 63.7467 324.582 63.774 324.411 63.8059C324.239 63.8332 324.063 63.8606 323.893 63.8925H323.888C320.605 64.4712 317.387 65.3331 314.276 66.4671H314.272V66.4715L313.484 66.7587C312.674 67.0685 311.868 67.3966 311.07 67.7429C310.888 67.8204 310.713 67.9024 310.532 67.9799C310.483 68.0027 310.429 68.0254 310.38 68.0528C309.867 68.2806 309.358 68.5176 308.855 68.7682C308.782 68.8001 308.708 68.8365 308.635 68.873L308.165 69.1054C307.134 69.6248 306.121 70.1762 305.125 70.7595C305.042 70.805 304.964 70.8507 304.881 70.9007C304.792 70.9554 304.7 71.0102 304.612 71.0648C304.558 71.0921 304.504 71.1286 304.45 71.1604C304.299 71.247 304.152 71.3382 304.006 71.4339C303.712 71.6116 303.419 71.7939 303.13 71.9807C302.832 72.1676 302.539 72.3635 302.246 72.5594L301.952 72.7554L302.006 73.0925C302.055 73.3705 302.099 73.6485 302.152 73.9219C302.202 74.1953 302.25 74.4641 302.305 74.733C302.388 75.1841 302.48 75.6307 302.574 76.0636C302.637 76.3507 302.695 76.6332 302.764 76.9111C302.828 77.1982 302.896 77.4852 302.969 77.7723C303.111 78.3647 303.262 78.9388 303.424 79.5039C303.502 79.7865 303.585 80.069 303.673 80.3469C303.722 80.5155 303.771 80.6842 303.824 80.8481C303.864 80.9621 303.903 81.076 303.942 81.1899C303.951 81.2264 303.962 81.2674 303.976 81.3084C303.987 81.347 304 81.385 304.015 81.4223C304.069 81.5909 304.122 81.755 304.177 81.9145C304.205 82.0011 304.235 82.0875 304.269 82.1696C304.338 82.3656 304.411 82.5661 304.485 82.7574C304.562 82.9761 304.645 83.1949 304.729 83.409C304.748 83.4638 304.768 83.5139 304.787 83.5685C304.802 83.6096 304.817 83.6506 304.837 83.6915C304.856 83.7372 304.875 83.7872 304.895 83.8329C304.978 84.0379 305.061 84.2475 305.149 84.4525C305.179 84.5254 305.208 84.6029 305.242 84.6758C306.035 86.5322 307.008 88.3168 308.151 90.0072C306.885 88.9956 305.666 87.9233 304.494 86.7901C302.685 85.0382 301.018 83.1632 299.508 81.1808C299.385 81.0259 299.264 80.8664 299.151 80.7069C298.921 80.4016 298.696 80.0963 298.476 79.7864C298.242 79.4674 298.017 79.1348 297.797 78.8067C297.651 78.588 297.504 78.3647 297.362 78.146C297.22 77.9364 297.088 77.7313 296.961 77.5217L296.579 76.9111H296.575V76.9157L296.037 77.4078C295.822 77.6038 295.607 77.7997 295.397 77.9956C288.826 84.1578 284.066 91.792 281.576 100.164L281.503 100.415L281.429 100.675C281.288 101.139 281.146 101.591 280.995 102.051V102.055C280.848 102.511 280.691 102.967 280.525 103.413C280.374 103.837 280.218 104.256 280.051 104.675C279.997 104.817 279.938 104.958 279.875 105.099C279.772 105.373 279.66 105.641 279.548 105.915C279.494 106.038 279.441 106.165 279.386 106.289C279.255 106.589 279.122 106.89 278.99 107.186C278.971 107.232 278.946 107.282 278.922 107.327C278.883 107.419 278.839 107.51 278.8 107.596C278.697 107.815 278.589 108.038 278.487 108.257C278.414 108.398 278.345 108.544 278.277 108.685C278.248 108.749 278.213 108.813 278.184 108.877C278.003 109.241 277.817 109.601 277.622 109.957C277.401 110.376 277.177 110.795 276.937 111.205C276.727 111.588 276.507 111.962 276.277 112.335C275.881 112.996 275.466 113.652 275.035 114.29C274.869 114.536 274.702 114.782 274.532 115.028C274.492 115.088 274.454 115.147 274.415 115.202C274.273 115.416 274.126 115.621 273.975 115.83C273.872 115.972 273.769 116.113 273.667 116.25C273.496 116.496 273.314 116.733 273.128 116.965C273.08 117.038 273.026 117.106 272.972 117.175C272.699 117.53 272.425 117.876 272.146 118.223C272.136 118.227 272.136 118.232 272.132 118.236C272.121 118.236 272.121 118.241 272.117 118.245C271.994 118.396 271.872 118.546 271.745 118.692C271.579 118.906 271.398 119.116 271.217 119.321C270.924 119.667 270.616 120.018 270.304 120.36C270.293 120.369 270.289 120.378 270.278 120.383C268.659 122.157 266.904 123.819 265.029 125.359C264.994 125.386 264.97 125.413 264.935 125.436C264.672 125.65 264.407 125.864 264.134 126.074C264.022 126.16 263.908 126.247 263.796 126.334C263.61 126.48 263.42 126.625 263.234 126.757C263.212 126.778 263.188 126.797 263.161 126.812C262.995 126.94 262.833 127.058 262.667 127.177C262.467 127.327 262.266 127.468 262.061 127.61C261.093 128.293 260.099 128.939 259.079 129.546C258.928 129.642 258.766 129.738 258.609 129.829C258.517 129.883 258.424 129.938 258.335 129.984C257.965 130.198 257.593 130.407 257.221 130.608C256.849 130.813 256.468 131.009 256.092 131.201C255.285 131.61 254.489 132.039 253.711 132.486C253.32 132.713 252.929 132.941 252.543 133.174C251.008 134.103 249.53 135.098 248.108 136.158C246.688 137.218 245.326 138.346 244.027 139.534C243.866 139.68 243.704 139.831 243.542 139.986C243.22 140.282 242.907 140.583 242.609 140.883C242.13 141.343 241.67 141.817 241.215 142.296C238.818 144.832 236.696 147.582 234.88 150.508C233.969 151.968 233.139 153.473 232.397 155.014C231.835 156.167 231.321 157.347 230.857 158.54C230.548 159.338 230.261 160.143 229.992 160.956C229.859 161.362 229.732 161.771 229.611 162.182C229.195 163.571 228.847 164.975 228.564 166.383C228.334 167.513 228.149 168.645 228.007 169.777C227.934 170.347 227.875 170.917 227.821 171.482C227.695 172.87 227.631 174.261 227.628 175.653C227.62 179.827 228.163 183.986 229.248 188.037C229.488 188.93 229.753 189.818 230.045 190.703C230.191 191.144 230.348 191.582 230.504 192.019C230.901 193.113 231.339 194.196 231.82 195.268C232.108 195.91 232.411 196.548 232.729 197.182C234.749 201.209 237.326 204.971 240.394 208.374C240.898 208.934 241.418 209.485 241.954 210.027C241.959 210.027 241.954 210.032 241.954 210.032C243.284 211.385 244.692 212.669 246.173 213.878H246.177C246.769 214.366 247.37 214.838 247.981 215.295C247.986 215.291 247.986 215.295 247.986 215.295C248.603 215.76 249.224 216.206 249.859 216.639C250.177 216.854 250.499 217.068 250.827 217.282C251.468 217.705 252.121 218.115 252.788 218.508H252.792C253.457 218.909 254.132 219.291 254.815 219.656C256.19 220.39 257.597 221.078 259.044 221.702L259.289 221.807L259.539 221.702C261.858 220.729 264.251 219.911 266.695 219.255C267.233 219.11 267.776 218.977 268.314 218.85C269.672 218.535 271.042 218.271 272.42 218.057C271.076 218.684 269.78 219.396 268.538 220.184C267.575 220.79 266.627 221.451 265.674 222.181C265.355 222.422 265.038 222.673 264.72 222.928L263.928 223.566L264.921 223.872C265.283 223.98 265.644 224.089 266.006 224.19C266.5 224.336 266.988 224.468 267.468 224.591C268.514 224.864 269.566 225.106 270.626 225.316C270.885 225.366 271.139 225.416 271.398 225.466C271.902 225.557 272.41 225.648 272.918 225.73C272.939 225.735 272.96 225.738 272.982 225.739C273.511 225.821 274.043 225.899 274.571 225.967C275.553 226.1 276.536 226.204 277.519 226.281C277.626 226.295 277.734 226.3 277.846 226.305C278.086 226.322 278.32 226.341 278.561 226.355C279.088 226.386 279.621 226.409 280.154 226.427C280.192 226.427 280.227 226.432 280.266 226.432C280.535 226.441 280.804 226.45 281.072 226.454C281.072 226.454 281.072 226.459 281.078 226.454C281.347 226.459 281.615 226.464 281.884 226.464H283.37C283.649 226.464 283.928 226.468 284.211 226.468C284.603 226.468 284.999 226.473 285.389 226.478C285.492 226.478 285.599 226.482 285.708 226.482C286.333 226.491 286.958 226.505 287.584 226.519C287.624 226.519 287.663 226.523 287.702 226.523C288.328 226.541 288.954 226.56 289.579 226.587C289.716 226.591 289.852 226.596 289.994 226.605C290.596 226.628 291.198 226.656 291.798 226.687C291.969 226.697 292.146 226.71 292.321 226.719C292.776 226.742 293.236 226.769 293.691 226.801C293.959 226.815 294.223 226.833 294.492 226.856C295.578 226.933 296.658 227.02 297.743 227.12C298.105 227.147 298.467 227.183 298.829 227.22C299.796 227.316 300.767 227.421 301.742 227.535C302.178 227.58 302.612 227.635 303.047 227.69C303.096 227.694 303.145 227.698 303.194 227.708C303.732 227.777 304.264 227.845 304.802 227.917C305.155 227.963 305.506 228.013 305.858 228.063C306.221 228.114 306.582 228.163 306.944 228.223C307.139 228.25 307.335 228.282 307.535 228.314C308.005 228.382 308.478 228.455 308.953 228.537C308.996 228.541 309.038 228.548 309.08 228.555C310.087 228.72 311.099 228.893 312.106 229.079C312.698 229.185 313.285 229.293 313.871 229.408C314.331 229.494 314.789 229.585 315.249 229.676C315.327 229.69 315.406 229.708 315.484 229.726C315.501 229.731 315.519 229.735 315.538 229.736C316.232 229.877 316.931 230.023 317.625 230.178C320.036 230.697 322.443 231.274 324.845 231.909C325.398 232.051 325.951 232.2 326.504 232.351C326.738 232.415 326.968 232.479 327.198 232.542C327.676 232.674 328.15 232.807 328.63 232.948C329.05 233.066 329.475 233.189 329.895 233.317C330.16 233.395 330.424 233.472 330.688 233.554C331.099 233.673 331.509 233.795 331.915 233.928C332.262 234.028 332.604 234.133 332.946 234.247C333.435 234.397 333.929 234.553 334.418 234.716C334.56 234.762 334.706 234.808 334.848 234.857C335.444 235.049 336.041 235.244 336.637 235.45C337.219 235.646 337.801 235.846 338.377 236.047C338.778 236.187 339.179 236.324 339.575 236.471C340.021 236.63 340.465 236.789 340.905 236.954C341.54 237.186 342.181 237.423 342.816 237.664C343.403 237.883 343.985 238.107 344.572 238.338C344.679 238.379 344.791 238.42 344.899 238.466C345.408 238.663 345.916 238.867 346.419 239.072C346.747 239.2 347.07 239.332 347.392 239.464C348.801 240.039 350.207 240.632 351.611 241.246H351.616C352.496 241.634 353.391 242.002 354.291 242.354C354.501 242.435 354.711 242.517 354.926 242.595C355.283 242.736 355.644 242.868 356.006 243.005C356.241 243.092 356.476 243.178 356.715 243.26C357.062 243.388 357.414 243.511 357.766 243.629C358.137 243.757 358.505 243.884 358.881 244.003C359.013 244.048 359.144 244.089 359.282 244.135C359.717 244.272 360.151 244.409 360.591 244.541C360.635 244.554 360.679 244.568 360.729 244.582C361.188 244.719 361.648 244.854 362.112 244.982C362.149 244.995 362.186 245.006 362.224 245.015C362.723 245.155 363.231 245.292 363.735 245.424C364.478 245.616 365.226 245.798 365.974 245.967C366.111 245.999 366.248 246.031 366.385 246.058C366.786 246.149 367.182 246.235 367.582 246.317C368.008 246.409 368.438 246.49 368.863 246.572C369.294 246.654 369.724 246.737 370.149 246.81C370.378 246.851 370.608 246.892 370.833 246.928L371.435 247.024C371.851 247.092 372.265 247.152 372.686 247.215C372.698 247.214 372.71 247.216 372.72 247.22C373.195 247.289 373.664 247.352 374.138 247.407C374.592 247.466 375.047 247.516 375.502 247.566C375.595 247.575 375.693 247.585 375.791 247.594C376.167 247.635 376.544 247.676 376.919 247.708C377.028 247.717 377.135 247.726 377.242 247.735C377.614 247.767 377.985 247.799 378.357 247.821C378.432 247.83 378.506 247.835 378.582 247.835C378.915 247.862 379.247 247.885 379.579 247.898C379.814 247.917 380.044 247.926 380.278 247.94C380.401 247.944 380.518 247.949 380.64 247.953C380.962 247.972 381.285 247.981 381.612 247.99C382.008 248.004 382.405 248.013 382.796 248.022C383.271 248.031 383.749 248.035 384.223 248.035H384.234C384.698 248.035 385.167 248.031 385.631 248.022H385.808L386.321 248.008C386.585 248.004 386.848 247.994 387.108 247.985C387.606 247.967 388.1 247.944 388.594 247.917C388.789 247.908 388.99 247.895 389.186 247.885C389.273 247.881 389.366 247.871 389.455 247.867C389.762 247.849 390.066 247.83 390.374 247.808C390.691 247.785 391.014 247.758 391.331 247.726C391.742 247.689 392.152 247.648 392.563 247.607C392.886 247.575 393.209 247.539 393.527 247.503C393.569 247.499 393.612 247.493 393.654 247.484C393.962 247.452 394.269 247.416 394.573 247.375C394.934 247.329 395.291 247.279 395.648 247.229C395.687 247.224 395.722 247.22 395.761 247.215C396.377 247.125 396.998 247.033 397.618 246.928C398.268 246.819 398.918 246.7 399.564 246.577C399.804 246.532 400.038 246.482 400.278 246.437C400.409 246.409 400.547 246.386 400.674 246.358C400.875 246.317 401.07 246.276 401.265 246.231C401.3 246.226 401.339 246.218 401.372 246.213C401.646 246.158 401.915 246.095 402.189 246.031C402.737 245.908 403.274 245.78 403.812 245.643C404.052 245.588 404.292 245.53 404.521 245.47C404.59 245.452 404.658 245.434 404.721 245.415C405.714 245.155 406.699 244.881 407.674 244.591C408.105 244.464 408.53 244.331 408.955 244.19C409.869 243.898 410.775 243.591 411.673 243.269C411.912 243.187 412.152 243.096 412.392 243.009C412.744 242.878 413.096 242.746 413.442 242.613C413.755 242.49 414.068 242.367 414.386 242.239C414.543 242.18 414.699 242.116 414.856 242.053C415.325 241.861 415.795 241.665 416.259 241.469C416.572 241.333 416.879 241.201 417.187 241.064C417.677 240.845 418.161 240.622 418.645 240.398C418.767 240.34 418.884 240.28 419.002 240.225C419.309 240.08 419.617 239.929 419.93 239.784C420.424 239.537 420.917 239.291 421.406 239.036C421.572 238.954 421.734 238.867 421.9 238.781C422.438 238.499 422.971 238.211 423.499 237.919C424.667 237.268 425.819 236.587 426.955 235.878C427.239 235.705 427.522 235.523 427.801 235.345C428.329 235.008 428.847 234.661 429.365 234.315C429.419 234.279 429.468 234.242 429.522 234.211C429.781 234.033 430.04 233.855 430.299 233.673C430.837 233.295 431.37 232.912 431.902 232.52C431.912 232.515 431.927 232.501 431.941 232.493C432.181 232.315 432.421 232.137 432.655 231.959C433.384 231.408 434.102 230.848 434.806 230.268C435.154 229.991 435.496 229.704 435.833 229.416C436.087 229.202 436.341 228.988 436.591 228.769C437.094 228.328 437.588 227.89 438.077 227.443C438.321 227.224 438.561 226.997 438.805 226.769C439.045 226.541 439.289 226.314 439.528 226.081C439.611 226.004 439.695 225.922 439.778 225.84C440.023 225.598 440.267 225.352 440.511 225.111C440.721 224.901 440.927 224.683 441.137 224.464C441.489 224.099 441.846 223.735 442.194 223.365C442.211 223.345 442.231 223.324 442.251 223.306C442.271 223.283 442.291 223.265 442.306 223.247H442.301C449.407 215.588 454.686 206.609 457.791 196.905C460.895 187.201 461.753 176.994 460.307 166.958C458.862 156.922 455.147 147.287 449.408 138.69C443.668 130.093 436.035 122.73 427.014 117.088Z" fill="#03045E"/>
<g opacity="0.15">
<path d="M328.064 63.3147C329.038 66.5776 330.504 69.695 332.418 72.574C329.214 70.0084 326.351 67.0942 323.891 63.8937C325.273 63.6501 326.664 63.4571 328.064 63.3147ZM280.361 113.775C276.743 115.616 273.36 117.832 270.277 120.382C275.483 114.644 279.287 107.92 281.427 100.675C281.454 100.588 281.479 100.5 281.504 100.413L281.578 100.166C284.148 91.5191 289.138 83.6637 296.034 77.4036L296.577 76.9111L296.96 77.5197C299.073 80.8707 301.604 83.978 304.497 86.7775C300.064 98.44 291.435 108.147 280.361 113.775ZM305.845 82.7365L305.772 82.9832C305.747 83.0703 305.721 83.158 305.695 83.245C305.553 83.7245 305.4 84.2004 305.244 84.6742C303.697 80.9406 302.611 77.055 302.006 73.0927L301.95 72.7564L302.247 72.5588C305.966 70.0672 310.007 68.02 314.273 66.4649C310.443 71.3755 307.588 76.8866 305.845 82.7365ZM256.093 131.205C259.295 129.571 262.292 127.61 265.029 125.358C259.563 131.291 255.644 138.322 253.581 145.902C251.518 153.481 251.366 161.404 253.136 169.048C254.907 176.691 258.553 183.849 263.788 189.96C269.022 196.072 275.704 200.969 283.31 204.27L283.557 204.377L283.804 204.273C287.912 202.543 292.244 201.317 296.69 200.625C293.914 201.944 291.328 203.581 288.989 205.499L288.199 206.136L289.191 206.441C290.047 206.706 290.904 206.948 291.736 207.164C296.629 208.433 301.687 209.065 306.766 209.038C329.841 208.901 353.096 213.873 375.882 223.818C379.79 225.52 383.844 226.917 388 227.992C406.115 232.693 425.454 231.002 442.314 223.242C432.809 233.49 420.379 241.013 406.47 244.939C392.56 248.865 377.74 249.032 363.732 245.421C359.576 244.346 355.522 242.95 351.615 241.247C328.827 231.302 305.573 226.33 282.497 226.468C277.419 226.494 272.361 225.863 267.468 224.594C266.635 224.378 265.78 224.135 264.923 223.871L263.93 223.566L264.721 222.929C267.06 221.01 269.646 219.373 272.422 218.055C267.975 218.747 263.644 219.972 259.536 221.703L259.29 221.807L259.042 221.7C249.909 217.738 242.137 211.487 236.593 203.647C231.049 195.807 227.951 186.685 227.645 177.299C227.339 167.914 229.837 158.633 234.861 150.494C239.884 142.355 247.236 135.676 256.093 131.205Z" fill="black"/>
</g>
</g>
</g>
</g>
<defs>
<clipPath id="clip0_112_75">
<rect width="461" height="429" fill="white"/>
</clipPath>
<clipPath id="clip1_112_75">
<rect width="461" height="429" fill="white"/>
</clipPath>
</defs>
</svg>
