<svg width="492" height="527" viewBox="0 0 492 527" fill="none" xmlns="http://www.w3.org/2000/svg">
<g clip-path="url(#clip0_113_32)">
<g clip-path="url(#clip1_113_32)">
<mask id="mask0_113_32" style="mask-type:luminance" maskUnits="userSpaceOnUse" x="16" y="0" width="460" height="527">
<path d="M475.662 0H16.3378V527H475.662V0Z" fill="white"/>
</mask>
<g mask="url(#mask0_113_32)">
<path d="M459.877 204.351C454.919 134.101 452.439 98.9764 440.9 76.2509C407.859 11.1817 311.795 -4.29442 251.124 1.64028C169.899 9.58334 76.9779 63.2401 36.0758 166.837C-1.07416 260.933 16.0559 367.444 72.0327 437.118C174.647 564.843 386.317 542.038 438.024 458.229C458.66 424.781 460.147 371.357 462.333 292.88C463.384 255.104 461.334 225 459.877 204.351Z" fill="#F4F7FA"/>
<path d="M420.954 43.452C415.703 38.4593 407.736 35.7402 401.003 35.1911C353.27 31.3042 346.304 145.957 353.621 171.58C360.938 197.203 356.196 205.616 318.603 219.022C281.009 232.428 299.045 258.239 303.627 273.333C308.209 288.428 317.283 301.179 289.878 316.178C262.472 331.176 271.997 340.469 271.997 340.469C271.997 340.469 322.535 399.874 319.743 380.855C316.952 361.837 322.01 333.118 367.322 330.935C386.84 329.995 416.728 319.297 423.345 295.282C424.886 289.689 425.958 281.149 424.786 275.36C423.16 267.331 418.574 261.005 416.028 253.447C410.095 235.837 424.978 222.941 433.543 211.169C438.015 205.024 442.484 198.723 445.908 191.716C453.018 177.169 450.356 161.568 442.614 148.159C438.9 141.73 433.742 134.908 432.123 127.238C430.383 118.999 431.9 107.743 432.312 99.2679C432.636 92.6202 433.188 85.999 432.862 79.3347C432.26 66.9425 429.734 51.7992 420.954 43.452Z" fill="url(#paint0_linear_113_32)"/>
<g opacity="0.8">
<path opacity="0.8" d="M268.022 373.811C267.695 373.947 267.324 373.787 267.158 373.424C266.979 373.027 267.111 372.536 267.457 372.33C267.67 372.202 288.946 359.342 312.681 338.16C334.551 318.642 363.043 287.869 374.577 252.094C384.212 222.215 392.998 172.82 398.685 116.575C403.784 66.1396 404.589 28.8389 402.422 21.9151C402.29 21.4939 402.481 21.0295 402.848 20.8771C403.214 20.7248 403.618 20.9448 403.751 21.366C406.287 29.467 404.678 71.3691 400.089 116.763C394.391 173.132 385.576 222.662 375.903 252.658C364.248 288.8 335.551 319.811 313.528 339.459C289.696 360.723 268.325 373.638 268.113 373.767C268.081 373.783 268.052 373.798 268.022 373.811Z" fill="white"/>
<path opacity="0.8" d="M398.608 126.352C398.243 126.502 397.871 126.386 397.737 125.966C397.56 125.412 379.766 70.3991 356.821 57.9787C356.467 57.7889 356.325 57.33 356.489 56.9238C356.656 56.5176 357.081 56.3578 357.432 56.5478C380.903 69.2521 398.328 123.11 399.06 125.402C399.194 125.824 398.978 126.199 398.612 126.35C398.61 126.352 398.608 126.352 398.608 126.352ZM389.929 190.149C389.658 190.262 389.34 190.174 389.145 189.901C388.898 189.555 388.941 189.044 389.242 188.76C389.373 188.636 402.474 176.286 418.639 165.923C440.48 151.922 457.218 148.012 468.389 154.306C468.739 154.503 468.883 154.989 468.711 155.391C468.539 155.794 468.117 155.959 467.767 155.761C442.065 141.282 390.655 189.522 390.138 190.01C390.075 190.072 390.003 190.119 389.929 190.149ZM332.892 320.554C332.82 320.584 332.744 320.599 332.664 320.6C332.275 320.608 331.954 320.251 331.948 319.802C331.945 319.566 331.581 295.963 327.282 271.092C323.34 248.29 315.2 219.728 298.81 213.146C298.441 212.998 298.247 212.535 298.377 212.114C298.504 211.691 298.908 211.467 299.275 211.615C312.943 217.103 322.831 237.015 328.67 270.799C332.992 295.811 333.355 319.54 333.359 319.777C333.365 320.134 333.168 320.439 332.892 320.554ZM362.059 282.419C361.772 282.538 361.442 282.432 361.252 282.137C361.02 281.776 361.086 281.268 361.399 281.003C363.672 279.072 417.287 233.778 438.197 238.103C438.58 238.182 438.834 238.605 438.765 239.045C438.696 239.487 438.33 239.78 437.945 239.699C417.63 235.497 362.79 281.838 362.238 282.306C362.183 282.358 362.121 282.393 362.059 282.419Z" fill="white"/>
</g>
<path d="M462.848 212.323C459.377 205.584 452.681 199.926 446.506 196.792C402.733 174.575 362.417 279.755 361.757 306.712C361.095 333.668 354.157 339.742 314.835 337.739C275.513 335.737 284.883 367.039 284.75 383.024C284.618 399.01 289.401 414.537 259.196 417.995C228.991 421.453 235.216 433.9 235.216 433.9C235.216 433.9 265.282 509.453 268.256 490.47C271.228 471.486 284.444 446.429 327.726 461.995C346.368 468.7 377.643 470.254 390.942 450.23C394.04 445.566 397.563 437.947 398.164 432.044C398.997 423.856 396.545 416.12 396.374 408.019C395.974 389.139 413.779 382.791 425.304 375.045C431.321 371.002 437.382 366.809 442.667 361.548C453.641 350.624 455.731 334.909 452.394 319.28C450.794 311.787 447.948 303.361 448.683 295.514C449.471 287.086 454.214 277.082 457.097 269.267C459.359 263.138 461.828 257.121 463.485 250.724C466.569 238.822 468.652 223.59 462.848 212.323Z" fill="url(#paint1_linear_113_32)"/>
<g opacity="0.8">
<path opacity="0.8" d="M221.658 463.727C221.311 463.727 221.008 463.432 220.959 463.026C220.907 462.583 221.177 462.172 221.563 462.112C221.801 462.074 245.609 458.245 274.18 447.542C300.507 437.681 336.381 419.8 357.77 390.621C375.635 366.25 398.448 323.186 420.359 272.471C440.008 226.994 451.748 192.205 451.748 184.847C451.748 184.4 452.065 184.037 452.454 184.037C452.844 184.037 453.16 184.4 453.16 184.847C453.16 193.456 439.307 232.26 421.623 273.193C399.663 324.019 376.782 367.202 358.848 391.666C337.239 421.145 301.102 439.166 274.593 449.094C245.905 459.836 221.992 463.68 221.753 463.718C221.723 463.725 221.691 463.727 221.658 463.727Z" fill="white"/>
<path opacity="0.8" d="M417.409 281.809C417.021 281.809 416.705 281.471 416.703 281.025C416.701 280.435 416.155 221.706 398.22 201.097C397.944 200.78 397.944 200.271 398.22 199.955C398.496 199.639 398.942 199.641 399.218 199.957C417.564 221.039 418.101 278.573 418.116 281.014C418.119 281.461 417.805 281.809 417.414 281.809C417.411 281.809 417.409 281.809 417.409 281.809ZM390.458 338.304C390.168 338.304 389.896 338.097 389.793 337.766C389.662 337.344 389.852 336.88 390.22 336.727C390.379 336.662 406.343 330.135 424.608 326.669C449.283 321.985 466.185 324.816 474.845 335.082C475.117 335.403 475.109 335.917 474.829 336.229C474.549 336.541 474.103 336.532 473.831 336.21C453.909 312.592 391.327 337.995 390.697 338.254C390.616 338.288 390.536 338.304 390.458 338.304ZM298.385 438.836C298.31 438.836 298.233 438.821 298.156 438.793C297.788 438.648 297.59 438.187 297.718 437.762C297.783 437.538 304.392 415.188 307.67 390.112C310.674 367.121 311.426 337.079 297.94 324.512C297.638 324.23 297.591 323.719 297.837 323.37C298.083 323.023 298.528 322.969 298.831 323.252C310.076 333.73 313.519 356.315 309.063 390.373C305.765 415.59 299.12 438.061 299.053 438.287C298.953 438.624 298.679 438.836 298.385 438.836ZM337.058 414.293C336.754 414.293 336.474 414.066 336.382 413.716C336.269 413.287 336.482 412.834 336.856 412.705C339.562 411.773 403.352 389.997 421.754 402.197C422.091 402.421 422.207 402.918 422.012 403.305C421.818 403.693 421.386 403.826 421.048 403.602C403.167 391.748 337.917 414.033 337.261 414.259C337.195 414.281 337.125 414.293 337.058 414.293Z" fill="white"/>
</g>
<path d="M316.113 22.8422L315.609 26.9905C313.935 27.0789 312.289 27.3271 310.686 27.7408L309.322 23.8709C308.951 22.8159 307.899 22.3138 306.974 22.752L301.185 25.4918C300.26 25.93 299.807 27.1447 300.178 28.2015L301.548 32.1204C300.146 33.1471 298.82 34.3093 297.587 35.5955L294.681 33.0042C293.896 32.3047 292.757 32.4777 292.137 33.3915L288.249 39.1082C287.625 40.0239 287.758 41.3365 288.543 42.0379L291.461 44.6441C290.683 46.3216 290.031 48.0929 289.503 49.9414L285.8 49.3829C284.806 49.2325 283.878 50.0429 283.732 51.1938L282.8 58.4035C282.652 59.558 283.339 60.6186 284.335 60.769L288.05 61.3294C288.095 63.2757 288.279 65.19 288.608 67.0535L285.123 68.7233C284.184 69.1728 283.722 70.4158 284.091 71.497L286.414 78.2779C286.786 79.3648 287.851 79.8782 288.793 79.425L292.281 77.7477C293.157 79.3874 294.157 80.9331 295.266 82.3701L292.944 85.8376C292.315 86.7755 292.449 88.1185 293.244 88.8366L298.226 93.3268C299.022 94.0456 300.18 93.8653 300.806 92.9233L303.102 89.478C304.569 90.3747 306.12 91.1216 307.738 91.7178L307.216 96.0161C307.073 97.1936 307.773 98.2707 308.777 98.4214L315.066 99.3691C316.072 99.5215 317 98.6882 317.141 97.5115L317.648 93.2444C319.358 93.1596 321.039 92.906 322.674 92.4827L324.053 96.4245C324.436 97.5189 325.508 98.036 326.447 97.579L332.312 94.7225C333.249 94.2655 333.696 93.0114 333.312 91.9203L331.932 88.0073C333.364 86.9451 334.713 85.7396 335.963 84.4065L338.83 86.9673C339.632 87.6837 340.781 87.5034 341.396 86.5647L345.237 80.7131C345.851 79.7785 345.698 78.4453 344.898 77.7326L342.057 75.2015C342.831 73.4771 343.474 71.655 343.985 69.7576L347.536 70.2935C348.532 70.4439 349.445 69.626 349.575 68.4676L350.382 61.2391C350.51 60.0865 349.809 59.0296 348.813 58.8792L345.272 58.3452C345.199 56.3744 344.983 54.4413 344.619 52.5627L347.904 50.9832C348.826 50.5394 349.263 49.3134 348.881 48.2452L346.482 41.581C346.099 40.5166 345.041 40.0126 344.118 40.4545L340.815 42.0379C339.915 40.4151 338.897 38.8844 337.766 37.4684L339.95 34.1946C340.556 33.2825 340.407 31.9793 339.618 31.2817L334.685 26.9247C333.896 26.229 332.765 26.4001 332.157 27.3083L329.96 30.5859C328.504 29.7172 326.966 28.995 325.361 28.4234L325.85 24.3071C325.984 23.1751 325.295 22.1351 324.308 21.9866L318.144 21.0577C317.163 20.9129 316.251 21.7084 316.113 22.8422ZM294.38 56.444C296.163 42.1977 307.54 32.2106 319.805 34.0591C332.07 35.9076 340.684 48.9091 339.036 63.1741C337.379 77.5276 325.976 87.7101 313.577 85.8434C301.178 83.9742 292.588 70.7768 294.38 56.444ZM221.591 20.5929L220.812 27.0072C218.224 27.1425 215.678 27.5262 213.2 28.1655L211.091 22.1819C210.515 20.5497 208.89 19.7749 207.462 20.4519L198.512 24.6885C197.08 25.3674 196.382 27.2422 196.954 28.8801L199.075 34.9389C196.906 36.5259 194.856 38.3218 192.95 40.3132L188.45 36.306C187.237 35.2247 185.475 35.4936 184.516 36.904L178.504 45.7421C177.54 47.158 177.744 49.187 178.958 50.2721L183.47 54.3038C182.27 56.8969 181.258 59.6367 180.443 62.4931L174.717 61.63C173.18 61.3987 171.748 62.6511 171.518 64.43L170.08 75.5792C169.849 77.3656 170.913 79.0035 172.454 79.2348L178.196 80.0998C178.265 83.1087 178.549 86.0706 179.06 88.951L173.671 91.5333C172.218 92.2283 171.505 94.1485 172.078 95.8226L175.667 106.306C176.242 107.985 177.89 108.78 179.347 108.079L184.739 105.486C186.094 108.021 187.64 110.411 189.357 112.631L185.765 117.993C184.792 119.445 185 121.52 186.231 122.63L193.934 129.573C195.165 130.684 196.954 130.404 197.924 128.948L201.475 123.623C203.74 125.011 206.142 126.165 208.643 127.087L207.834 133.734C207.614 135.554 208.694 137.22 210.25 137.453L219.974 138.918C221.528 139.154 222.965 137.866 223.18 136.045L223.966 129.448C226.611 129.318 229.21 128.926 231.736 128.271L233.868 134.366C234.461 136.058 236.118 136.858 237.57 136.15L246.64 131.735C248.088 131.03 248.779 129.089 248.184 127.401L246.05 121.349C248.264 119.708 250.349 117.842 252.283 115.781L256.714 119.742C257.953 120.849 259.728 120.569 260.682 119.121L266.619 110.074C267.567 108.63 267.333 106.567 266.095 105.465L261.704 101.554C262.902 98.8858 263.895 96.0688 264.684 93.1365L270.176 93.9641C271.718 94.1971 273.129 92.9323 273.329 91.1422L274.575 79.9644C274.775 78.1799 273.689 76.5476 272.152 76.3163L266.677 75.4908C266.564 72.4445 266.23 69.4546 265.667 66.5511L270.747 64.1084C272.175 63.4221 272.851 61.5266 272.255 59.8755L268.545 49.5707C267.953 47.9253 266.319 47.1468 264.893 47.8294L259.786 50.2758C258.395 47.7655 256.818 45.3998 255.074 43.2128L258.448 38.1507C259.387 36.7423 259.158 34.7264 257.935 33.647L250.306 26.9112C249.087 25.8356 247.338 26.1007 246.397 27.5054L243 32.5733C240.746 31.2307 238.369 30.1137 235.887 29.228L236.646 22.8627C236.853 21.1119 235.786 19.506 234.262 19.2766L224.731 17.8399C223.211 17.6105 221.803 18.8422 221.591 20.5929ZM187.987 72.5479C190.741 50.5203 208.334 35.078 227.297 37.9363C246.26 40.7946 259.578 60.8967 257.031 82.9539C254.47 105.146 236.84 120.892 217.669 118.002C198.497 115.114 185.214 94.7068 187.987 72.5479Z" fill="#D8DEE8"/>
<path d="M212.471 82.7044L170.782 480.897C170.156 486.867 173.737 492.22 178.755 492.791L352.397 514.698C363.033 515.458 368.857 509.213 369.515 502.864L413.285 79.5188C413.938 73.2061 408.719 67.4877 398.036 67.4877L222.814 71.7281C217.739 71.8278 213.093 76.7659 212.471 82.7044Z" fill="url(#paint2_linear_113_32)"/>
<path d="M204.655 82.0201L162.737 482.204C162.109 488.205 165.702 493.585 170.735 494.16L350.754 514.757C356.398 515.402 361.571 510.71 362.23 504.33L406.245 78.7971C406.901 72.4506 402.756 67.3508 397.05 67.4618L215.035 70.9914C209.946 71.0873 205.28 76.0516 204.655 82.0201Z" fill="url(#paint3_linear_113_32)"/>
<path d="M208.072 104.092L169.218 475.142C168.631 480.748 171.997 485.766 176.708 486.292L346.01 505.204C351.256 505.791 356.063 501.411 356.679 495.471L397.355 102.377C397.967 96.469 394.118 91.6873 388.818 91.7532L217.779 93.8455C213.018 93.9023 208.656 98.5152 208.072 104.092Z" fill="#D8DEE8"/>
<path d="M298.86 81.7434C298.637 83.8737 299.968 85.5799 301.833 85.551C303.7 85.5247 305.396 83.7724 305.618 81.6381C305.84 79.5038 304.505 77.7982 302.638 77.8302C300.772 77.8621 299.081 79.6147 298.86 81.7434Z" fill="url(#paint4_linear_113_32)"/>
<path d="M237.342 353.166C272.001 279.529 323.779 257.486 339.368 181.595C347.793 140.573 342.053 101.31 332.383 68.714L397.052 67.4597C402.759 67.3488 406.904 72.4505 406.247 78.7951L362.232 504.327C361.573 510.71 356.4 515.402 350.757 514.755L209.245 498.564C208.195 432.583 221.891 385.99 237.342 353.166Z" fill="white"/>
<path d="M33.7441 124.249C33.7441 85.1212 63.4467 53.4075 99.0907 53.4113C133.681 53.415 160.98 83.4611 160.98 120.519C160.98 157.577 133.681 189.223 99.0907 191.256C63.445 193.351 33.7441 163.378 33.7441 124.249Z" fill="url(#paint5_linear_113_32)"/>
<path d="M37.5865 121.129C37.5865 82.0013 66.43 50.2874 101.042 50.2912C134.631 50.295 161.141 80.3408 161.141 117.399C161.141 154.457 134.631 186.103 101.042 188.136C66.4284 190.231 37.5865 160.257 37.5865 121.129Z" fill="url(#paint6_linear_113_32)"/>
<path opacity="0.5" d="M47.4604 120.83C47.4604 87.9563 71.6924 61.3107 100.773 61.3164C128.994 61.3201 151.266 86.5631 151.266 117.698C151.266 148.832 128.995 175.42 100.773 177.128C71.6924 178.888 47.4604 153.704 47.4604 120.83Z" fill="white"/>
<path opacity="0.5" d="M98.7719 66.3673C126.992 66.371 149.266 91.614 149.266 122.749C149.266 130.152 147.994 137.293 145.695 143.907C149.255 135.942 151.268 127.027 151.268 117.698C151.268 86.563 128.997 61.3201 100.775 61.3164C78.3465 61.3145 58.8143 77.1704 51.0462 99.5025C59.8419 79.8688 78.0748 66.3654 98.7719 66.3673Z" fill="white"/>
<path d="M76.6616 112.785V141.476C76.6616 149.771 82.7343 156.315 90.203 156.092L108.722 155.537C116.101 155.315 122.064 148.483 122.064 140.275V111.885L76.6616 112.785ZM93.7164 142.446L97.1574 130.463C95.6834 129.588 94.6852 127.866 94.6852 125.859C94.6852 122.915 96.8356 120.48 99.4833 120.423C102.128 120.364 104.269 122.7 104.269 125.639C104.269 127.642 103.275 129.408 101.805 130.352L105.233 142.138L93.7164 142.446ZM116.799 109.398C114.834 109.436 113.24 107.688 113.24 105.494C113.24 97.0602 107.079 90.2908 99.4813 90.4036C91.8576 90.5164 85.634 97.5131 85.634 105.999C85.634 108.207 84.0188 110.028 82.0241 110.067C80.0276 110.105 78.4076 108.345 78.4076 106.133C78.4076 93.2164 87.8873 82.5842 99.4827 82.436C111.016 82.2873 120.352 92.5733 120.352 105.366C120.352 107.555 118.762 109.36 116.799 109.398Z" fill="white"/>
<path d="M159.693 273.047C159.693 273.047 158.433 267.62 159.326 266.232C160.218 264.845 165.675 259.297 165.151 261.106C164.627 262.915 163.84 264.121 163.84 264.121C163.84 264.121 166.779 265.689 164.889 268.04C162.999 270.392 162.368 270.933 162.264 273.045C162.161 275.157 160.952 275.881 159.693 273.047Z" fill="url(#paint7_linear_113_32)"/>
<path d="M107.27 507.308C107.27 507.308 106.603 512.002 106.688 513.672C106.772 515.342 122.905 516.195 123.066 514.945C123.229 513.694 120.401 511.703 118.41 511.001C116.417 510.298 110.589 508.425 110.589 508.425L107.27 507.308Z" fill="url(#paint8_linear_113_32)"/>
<path d="M111.186 502.63L110.671 508.466C110.671 508.466 108.798 509.89 107.147 508.792L106.32 502.439L111.186 502.63Z" fill="url(#paint9_linear_113_32)"/>
<path d="M78.4875 514.917C78.4875 514.917 77.8198 519.611 77.9049 521.28C77.9899 522.95 94.1219 523.803 94.2839 522.553C94.4473 521.303 91.6182 519.312 89.6269 518.61C87.635 517.908 81.8061 516.034 81.8061 516.034L78.4875 514.917Z" fill="url(#paint10_linear_113_32)"/>
<path d="M82.4041 510.238L81.8904 516.075C81.8904 516.075 80.0167 517.498 78.3655 516.4L77.5391 510.048L82.4041 510.238Z" fill="url(#paint11_linear_113_32)"/>
<path d="M108.259 350.264C110.122 354.608 111.988 358.952 113.852 363.296C115.351 388.085 116.097 415.044 115.618 443.873C115.261 465.321 114.264 485.64 112.831 504.711C110.302 504.578 107.774 504.444 105.246 504.31C101.59 495.973 97.2749 483.341 96.8773 467.749C96.4638 451.485 100.754 449.324 100.482 433.752C100.129 413.567 92.7634 408.182 88.8394 383.904C87.3387 374.618 86.3291 362.49 87.5286 347.778C94.4395 348.607 101.348 349.436 108.259 350.264Z" fill="url(#paint12_linear_113_32)"/>
<path opacity="0.3" d="M87.53 347.778C91.2607 348.226 94.9919 348.673 98.7245 349.121C105.442 362.553 107.318 376.532 106.137 382.717C104.47 391.466 100.058 394.268 100.302 403.052C100.543 411.743 104.999 413.998 107.825 424.241C109.782 431.334 109.265 437.855 108.152 450.609C105.91 476.298 100.512 484.154 105.033 492.576C106.317 494.971 108.633 497.819 113.169 499.995C113.058 501.571 112.948 503.15 112.832 504.71C110.303 504.578 107.776 504.442 105.248 504.31C101.592 495.973 97.2764 483.341 96.8787 467.749C96.4652 451.485 100.755 449.324 100.484 433.752C100.13 413.567 92.7648 408.184 88.8409 383.906C87.3402 374.62 86.3289 362.493 87.53 347.778Z" fill="url(#paint13_linear_113_32)"/>
<path d="M98.2258 358.085C94.7253 380.019 91.634 403.493 89.222 428.388C86.3094 458.446 84.7548 486.785 84.1444 513.095C81.369 513.184 78.5953 513.275 75.82 513.366C64.8855 488.508 64.2177 471.655 65.7936 460.683C66.4008 456.455 68.0519 448.164 68.4283 435.772C68.6902 427.135 68.2106 420.561 67.6117 412.659C66.2993 395.335 64.7055 391.554 64.4764 378.302C64.2603 365.865 64.2162 359.573 67.3058 355.9C75.4452 346.222 96.6207 357.228 98.2258 358.085Z" fill="url(#paint14_linear_113_32)"/>
<path d="M158.242 272.211C160.088 272.062 161.931 271.916 163.777 271.767C168.131 291.984 165.009 311.593 155.184 318.805C139.833 330.072 111.301 308.844 105.119 285.728C102.406 275.581 103.023 260.939 108.447 258.094C109.952 257.304 112.289 257.183 117.351 260.447C132.467 270.199 132.864 288.631 140.549 290.192C143.963 290.888 149.48 288.384 158.242 272.211Z" fill="url(#paint15_linear_113_32)"/>
<path d="M115.976 367.743C118.636 362.673 115.295 357.784 114.536 348.181C113.675 337.295 117.325 335.482 120.933 317.443C123.333 305.446 125.636 293.928 122.887 280.445C121.569 273.984 119.334 263.025 111.44 257.731C107.367 254.999 101.804 255.273 90.8487 255.932C77.2994 256.745 70.5263 257.152 65.4731 260.21C64.7334 260.657 49.3643 270.265 48.3055 285.925C47.2287 301.863 62.3327 304.005 64.3472 325.26C65.2521 334.801 63.6403 349.476 62.5946 358.993C61.5914 368.133 60.8993 370.472 62.4702 373.239C66.2537 379.909 77.8344 378.008 100.996 374.208C110.082 372.715 113.991 371.527 115.976 367.743Z" fill="url(#paint16_linear_113_32)"/>
<path d="M80.7334 321.84C79.7532 325.982 76.2316 329.075 73.7803 339.153C73.2517 341.329 69.4799 356.822 74.371 360.635C77.1955 362.837 79.7319 358.665 86.5885 358.119C98.4687 357.175 104.129 368.65 111.891 365.515C113.238 364.97 115.014 363.811 116.79 361.148C117.144 363.548 117.083 365.633 115.977 367.746C113.994 371.528 110.082 372.717 100.997 374.208C77.8354 378.009 66.2545 379.91 62.4711 373.24C60.9017 370.474 61.5924 368.133 62.5954 358.993C63.6411 349.475 65.253 334.8 64.348 325.26C62.3336 304.006 47.2279 301.864 48.3063 285.925C48.5942 281.663 49.9574 277.871 51.782 274.567C70.9428 283.477 83.8115 308.821 80.7334 321.84Z" fill="url(#paint17_linear_113_32)"/>
<path d="M56.5338 353.19L60.368 356.003C61.0569 355.089 62.6508 353.246 65.1381 352.618C67.9413 351.909 71.1601 352.927 71.2338 353.954C71.2943 354.777 69.3338 355.608 69.0312 355.736C66.5847 356.774 64.7699 355.911 63.7815 357.041C63.4313 357.439 62.9961 358.185 61.993 358.873C61.7294 359.053 61.4546 359.213 61.3089 359.279C59.6758 360.009 56.8759 356.742 56.6353 356.456L56.5338 353.19Z" fill="url(#paint18_linear_113_32)"/>
<path d="M67.8592 295.411C70.6329 287.779 72.5541 276.092 68.1735 258.737C39.3104 271.806 24.5909 302.789 30.3379 327.347C35.0754 347.594 52.3133 357.455 56.1589 359.531C57.054 357.19 57.9491 354.85 58.8426 352.511C54.3866 346.81 49.3645 338.378 50.0747 328.756C51.0599 315.416 62.2447 310.863 67.8592 295.411Z" fill="url(#paint19_linear_113_32)"/>
<path d="M90.1385 240.23C90.1385 240.23 89.9106 246.031 88.3427 250.376C86.9259 254.303 79.477 256.772 77.9666 257.648C76.4561 258.524 80.7959 261.087 85.1537 261.59C89.5115 262.094 101.955 260.956 104.198 259.058C106.442 257.161 102.395 257.304 99.2856 255.991C96.175 254.679 94.3763 247.689 94.9267 244.516C95.4763 241.343 90.1385 240.23 90.1385 240.23Z" fill="url(#paint20_linear_113_32)"/>
<path d="M97.0306 238.126C99.2921 235.571 99.6081 235.275 99.8538 234.393C100.842 230.852 98.4516 226.001 95.3157 224.806C95.1524 224.744 93.0493 223.972 92.2474 225.019C91.5652 225.908 92.5685 227.138 92.0919 228.855C91.6455 230.46 90.4345 230.581 88.1873 232.687C86.3369 234.421 85.1881 235.501 84.9231 237.018C84.3764 240.145 87.6705 244.677 90.5864 244.554C91.6355 244.51 91.9221 243.895 97.0306 238.126Z" fill="url(#paint21_linear_113_32)"/>
<path d="M90.8737 245.038C90.8737 245.038 93.2771 248.165 96.9381 247.131C100.216 246.205 99.3795 237.559 96.9804 236.179C96.1799 235.718 94.7253 235.756 93.6325 236.361C92.9862 236.719 92.8063 237.091 91.7408 237.651C90.7591 238.169 90.4467 238.097 90.1829 238.462C89.8526 238.917 89.71 239.899 90.7454 242.264C89.9995 241.657 89.1962 241.529 88.7032 241.932C88.6252 241.995 88.4252 242.221 88.3385 242.516C88.0261 243.586 88.9949 244.675 90.8737 245.038Z" fill="url(#paint22_linear_113_32)"/>
<path d="M365.015 127.97L365.861 133.218L348.445 133.265L197.306 133.678C193.418 133.688 189.842 137.381 189.309 141.927L153.23 419.017C152.693 423.603 158.904 430.604 162.769 430.946L229.821 436.868V436.774L330.12 445.616C330.123 445.616 330.124 445.616 330.125 445.616L330.367 445.732C334.651 446.112 338.579 442.542 339.135 437.697C339.135 437.697 339.135 437.718 339.136 437.716L372.926 141.874C373.476 137.075 369.322 127.957 365.015 127.97Z" fill="url(#paint23_linear_113_32)"/>
<path d="M335.718 431.932C335.165 436.778 331.238 440.4 326.955 440.022L159.183 425.219C155.32 424.879 152.632 420.884 153.169 416.298L185.967 136.262C186.499 131.716 190.074 128.023 193.959 128.01L362.678 127.476C366.983 127.463 370.037 131.342 369.49 136.141L335.718 431.932Z" fill="url(#paint24_linear_113_32)"/>
<path d="M337.946 277.928C337.672 280.328 335.721 282.118 333.591 282.027L185.932 275.835C183.984 275.754 182.611 273.909 182.88 271.617L185.784 246.891C186.052 244.6 187.831 243.052 189.781 243.113L337.569 247.829C339.703 247.898 341.214 249.629 340.94 252.026L337.946 277.928ZM332.23 328.169C331.954 330.573 330.002 332.625 327.873 332.502L180.325 324.127C178.378 324.016 177.023 321.874 177.291 319.58L180.217 294.376C180.485 292.085 182.281 290.119 184.229 290.21L331.867 297.053C333.997 297.152 335.505 299.367 335.229 301.768L332.23 328.169Z" fill="white"/>
<path opacity="0.1" d="M340.952 251.927C340.601 251.797 340.225 251.726 339.824 251.712L192.033 246.998C190.084 246.935 188.304 248.488 188.039 250.773L185.131 275.498C185.124 275.563 185.12 275.623 185.115 275.687C183.616 275.202 182.652 273.569 182.877 271.613L185.786 246.888C186.051 244.603 187.831 243.047 189.779 243.113L337.571 247.828C339.667 247.899 341.171 249.577 340.952 251.927Z" fill="url(#paint25_linear_113_32)"/>
<path opacity="0.1" d="M335.261 301.212C334.906 301.05 334.523 300.952 334.118 300.933L186.484 294.088C184.535 293.998 182.736 295.967 182.47 298.26L179.54 323.465C179.523 323.627 179.512 323.783 179.512 323.944C178.014 323.388 177.06 321.536 177.287 319.58L180.218 294.375C180.483 292.082 182.279 290.113 184.23 290.203L331.864 297.048C333.836 297.146 335.266 299.036 335.261 301.212Z" fill="url(#paint26_linear_113_32)"/>
<path d="M292.988 368.89C293.424 365.097 291.09 361.603 287.773 361.383L211.394 356.343C208.231 356.135 205.31 359.196 204.879 362.889L201.727 390.19C201.297 393.889 203.492 397.427 206.654 397.676L282.994 403.678C286.309 403.94 289.363 400.722 289.799 396.923L292.988 368.89Z" fill="url(#paint27_linear_113_32)"/>
<path d="M298.757 184.956C297.751 193.684 293.849 201.561 288.303 207.355C282.325 213.604 274.45 217.406 266.261 217.224C258.113 217.043 251.255 212.953 246.852 206.565C242.79 200.677 240.801 192.832 241.797 184.252C243.871 166.4 258.143 151.97 273.805 152.013C289.616 152.053 300.849 166.801 298.757 184.956Z" fill="url(#paint28_linear_113_32)"/>
<path d="M283.527 175.037C282.624 182.856 276.343 189.122 269.524 189.027C262.733 188.934 257.978 182.565 258.875 174.803C259.775 167.042 265.993 160.782 272.787 160.817C279.611 160.853 284.43 167.219 283.527 175.037ZM288.303 207.355C282.326 213.604 274.451 217.406 266.263 217.224C258.115 217.043 251.257 212.953 246.852 206.565C251.893 198.496 260.206 193.129 269.034 193.261C277.911 193.393 285.065 199.045 288.303 207.355Z" fill="white"/>
<path opacity="0.4" d="M369.489 136.141L335.719 431.932C335.166 436.775 330.988 440.377 326.708 439.999L225.942 431.107C221.155 425.476 217.213 418.717 214.4 410.607C213.019 406.63 212.008 402.339 211.335 397.826C209.465 385.336 210.19 371.138 212.917 357.202C215.015 346.475 218.304 335.883 222.515 326.327C225.883 318.687 229.842 311.701 234.266 305.83C237.45 301.605 240.895 297.5 244.529 293.474C248.909 288.615 253.564 283.873 258.367 279.173C269.559 268.216 281.543 257.503 292.637 246.19C318.237 220.093 339.007 190.933 334.008 149.326C333.849 148.015 332.289 137.979 330.295 127.577L362.429 127.476C366.732 127.462 370.038 131.343 369.489 136.141Z" fill="white"/>
</g>
</g>
</g>
<defs>
<linearGradient id="paint0_linear_113_32" x1="323.166" y1="380.252" x2="475.122" y2="23.1102" gradientUnits="userSpaceOnUse">
<stop offset="0.004" stop-color="#E38DDD"/>
<stop offset="1" stop-color="#03045E"/>
</linearGradient>
<linearGradient id="paint1_linear_113_32" x1="234.687" y1="343.631" x2="466.521" y2="343.631" gradientUnits="userSpaceOnUse">
<stop stop-color="#FF9085"/>
<stop offset="1" stop-color="#FB6FBB"/>
</linearGradient>
<linearGradient id="paint2_linear_113_32" x1="294.181" y1="280.827" x2="362.808" y2="287.342" gradientUnits="userSpaceOnUse">
<stop stop-color="#444B8C"/>
<stop offset="0.996" stop-color="#26264F"/>
</linearGradient>
<linearGradient id="paint3_linear_113_32" x1="233.887" y1="82.607" x2="451.783" y2="728.149" gradientUnits="userSpaceOnUse">
<stop stop-color="#444B8C"/>
<stop offset="0.996" stop-color="#26264F"/>
</linearGradient>
<linearGradient id="paint4_linear_113_32" x1="297.294" y1="66.302" x2="550.176" y2="662.312" gradientUnits="userSpaceOnUse">
<stop stop-color="#FFC444"/>
<stop offset="0.996" stop-color="#F36F56"/>
</linearGradient>
<linearGradient id="paint5_linear_113_32" x1="-1440.17" y1="1788.38" x2="-1286.6" y2="1662.36" gradientUnits="userSpaceOnUse">
<stop stop-color="#311944"/>
<stop offset="1" stop-color="#2F2E41"/>
</linearGradient>
<linearGradient id="paint6_linear_113_32" x1="58.0205" y1="162.328" x2="180.443" y2="65.6511" gradientUnits="userSpaceOnUse">
<stop stop-color="#FF9085"/>
<stop offset="1" stop-color="#FB6FBB"/>
</linearGradient>
<linearGradient id="paint7_linear_113_32" x1="168.46" y1="261.167" x2="143.816" y2="282.995" gradientUnits="userSpaceOnUse">
<stop stop-color="#FFC444"/>
<stop offset="0.996" stop-color="#F36F56"/>
</linearGradient>
<linearGradient id="paint8_linear_113_32" x1="114.918" y1="501.157" x2="115.159" y2="445.107" gradientUnits="userSpaceOnUse">
<stop stop-color="#03045E"/>
<stop offset="0.996" stop-color="#1A1A2D"/>
</linearGradient>
<linearGradient id="paint9_linear_113_32" x1="110.088" y1="519.168" x2="107.029" y2="490.283" gradientUnits="userSpaceOnUse">
<stop stop-color="#FFC444"/>
<stop offset="0.996" stop-color="#F36F56"/>
</linearGradient>
<linearGradient id="paint10_linear_113_32" x1="86.1616" y1="501.034" x2="86.4026" y2="444.983" gradientUnits="userSpaceOnUse">
<stop stop-color="#03045E"/>
<stop offset="0.996" stop-color="#1A1A2D"/>
</linearGradient>
<linearGradient id="paint11_linear_113_32" x1="80.9429" y1="522.254" x2="77.8838" y2="493.369" gradientUnits="userSpaceOnUse">
<stop stop-color="#FFC444"/>
<stop offset="0.996" stop-color="#F36F56"/>
</linearGradient>
<linearGradient id="paint12_linear_113_32" x1="109.205" y1="373.231" x2="85.8721" y2="477.04" gradientUnits="userSpaceOnUse">
<stop stop-color="#311944"/>
<stop offset="1" stop-color="#2F2E41"/>
</linearGradient>
<linearGradient id="paint13_linear_113_32" x1="118.128" y1="424.592" x2="91.2249" y2="426.468" gradientUnits="userSpaceOnUse">
<stop stop-color="#311944"/>
<stop offset="1" stop-color="#2F2E41"/>
</linearGradient>
<linearGradient id="paint14_linear_113_32" x1="103.271" y1="430.398" x2="62.4306" y2="433.247" gradientUnits="userSpaceOnUse">
<stop stop-color="#311944"/>
<stop offset="1" stop-color="#2F2E41"/>
</linearGradient>
<linearGradient id="paint15_linear_113_32" x1="135.479" y1="275.742" x2="95.9421" y2="496.706" gradientUnits="userSpaceOnUse">
<stop stop-color="#03045E"/>
<stop offset="0.996" stop-color="#1A1A2D"/>
</linearGradient>
<linearGradient id="paint16_linear_113_32" x1="71.3158" y1="520.122" x2="52.0823" y2="744.422" gradientUnits="userSpaceOnUse">
<stop stop-color="#03045E"/>
<stop offset="0.996" stop-color="#1A1A2D"/>
</linearGradient>
<linearGradient id="paint17_linear_113_32" x1="21.7078" y1="443.508" x2="120.039" y2="296.934" gradientUnits="userSpaceOnUse">
<stop stop-color="#03045E"/>
<stop offset="0.996" stop-color="#1A1A2D"/>
</linearGradient>
<linearGradient id="paint18_linear_113_32" x1="50.2559" y1="333.907" x2="70.399" y2="357.587" gradientUnits="userSpaceOnUse">
<stop stop-color="#FFC444"/>
<stop offset="0.996" stop-color="#F36F56"/>
</linearGradient>
<linearGradient id="paint19_linear_113_32" x1="35.6667" y1="517.065" x2="16.4332" y2="741.366" gradientUnits="userSpaceOnUse">
<stop stop-color="#03045E"/>
<stop offset="0.996" stop-color="#1A1A2D"/>
</linearGradient>
<linearGradient id="paint20_linear_113_32" x1="98.4877" y1="268.208" x2="79.3089" y2="247.442" gradientUnits="userSpaceOnUse">
<stop stop-color="#FFC444"/>
<stop offset="0.996" stop-color="#F36F56"/>
</linearGradient>
<linearGradient id="paint21_linear_113_32" x1="86.0552" y1="259.622" x2="97.1969" y2="227.725" gradientUnits="userSpaceOnUse">
<stop stop-color="#444B8C"/>
<stop offset="0.996" stop-color="#3E4177"/>
</linearGradient>
<linearGradient id="paint22_linear_113_32" x1="108.157" y1="248.189" x2="82.7615" y2="238.352" gradientUnits="userSpaceOnUse">
<stop stop-color="#FFC444"/>
<stop offset="0.996" stop-color="#F36F56"/>
</linearGradient>
<linearGradient id="paint23_linear_113_32" x1="153.197" y1="286.866" x2="372.975" y2="286.866" gradientUnits="userSpaceOnUse">
<stop stop-color="#311944"/>
<stop offset="1" stop-color="#2F2E41"/>
</linearGradient>
<linearGradient id="paint24_linear_113_32" x1="286.815" y1="783.595" x2="252.247" y2="262.529" gradientUnits="userSpaceOnUse">
<stop offset="0.004" stop-color="#F36F56"/>
<stop offset="1" stop-color="#FFC444"/>
</linearGradient>
<linearGradient id="paint25_linear_113_32" x1="182.844" y1="259.401" x2="340.972" y2="259.401" gradientUnits="userSpaceOnUse">
<stop offset="0.004" stop-color="#F36F56"/>
<stop offset="1" stop-color="#FFC444"/>
</linearGradient>
<linearGradient id="paint26_linear_113_32" x1="177.255" y1="307.073" x2="335.261" y2="307.073" gradientUnits="userSpaceOnUse">
<stop offset="0.004" stop-color="#F36F56"/>
<stop offset="1" stop-color="#FFC444"/>
</linearGradient>
<linearGradient id="paint27_linear_113_32" x1="254.919" y1="324.676" x2="208.637" y2="580.082" gradientUnits="userSpaceOnUse">
<stop offset="0.004" stop-color="#F36F56"/>
<stop offset="1" stop-color="#FFC444"/>
</linearGradient>
<linearGradient id="paint28_linear_113_32" x1="266.537" y1="56.682" x2="276.495" y2="314.715" gradientUnits="userSpaceOnUse">
<stop offset="0.004" stop-color="#F36F56"/>
<stop offset="1" stop-color="#FFC444"/>
</linearGradient>
<clipPath id="clip0_113_32">
<rect width="492" height="527" fill="white"/>
</clipPath>
<clipPath id="clip1_113_32">
<rect width="492" height="527" fill="white"/>
</clipPath>
</defs>
</svg>
