<svg width="11" height="14" viewBox="0 0 11 14" fill="none" xmlns="http://www.w3.org/2000/svg">
<path d="M7.83333 3.16667C7.83333 3.811 7.42294 4.33333 6.91667 4.33333C6.41039 4.33333 6 3.811 6 3.16667C6 2.52233 6.41039 2 6.91667 2C7.42294 2 7.83333 2.52233 7.83333 3.16667Z" fill="white"/>
<path d="M7.83333 7.25C7.83333 7.89435 7.42294 8.41667 6.91667 8.41667C6.41039 8.41667 6 7.89435 6 7.25C6 6.60565 6.41039 6.08334 6.91667 6.08334C7.42294 6.08334 7.83333 6.60565 7.83333 7.25Z" fill="white"/>
<path d="M6.91667 12.5C7.42294 12.5 7.83333 11.9777 7.83333 11.3333C7.83333 10.689 7.42294 10.1667 6.91667 10.1667C6.41039 10.1667 6 10.689 6 11.3333C6 11.9777 6.41039 12.5 6.91667 12.5Z" fill="white"/>
</svg>
