<svg viewBox="0 0 136 93" fill="none" xmlns="http://www.w3.org/2000/svg">
<path d="M14.3971 44.095L14.9112 50.5529C14.9202 50.6635 14.9904 50.7675 15.1077 50.8439C15.2249 50.9203 15.3803 50.9632 15.5422 50.964L32.5368 51.0495C32.6206 51.05 32.7037 51.0392 32.7814 51.0177C32.8591 50.9961 32.9298 50.9643 32.9894 50.924C33.049 50.8838 33.0965 50.8359 33.129 50.783C33.1614 50.7302 33.1783 50.6735 33.1787 50.6162L33.2331 45.5942C33.2338 45.5367 33.2179 45.4797 33.1862 45.4265C33.1546 45.3732 33.1078 45.3248 33.0486 45.284C32.9894 45.2432 32.919 45.2108 32.8415 45.1887C32.7639 45.1666 32.6807 45.1552 32.5966 45.1552H22.1437C22.0601 45.1553 21.9774 45.144 21.9004 45.1219C21.8233 45.0999 21.7534 45.0676 21.6949 45.0269L19.8915 43.7955C19.7735 43.7141 19.6131 43.668 19.4454 43.6672L15.039 43.6449C14.9531 43.6443 14.8679 43.6557 14.7886 43.6783C14.7093 43.7009 14.6375 43.7342 14.5775 43.7762C14.5176 43.8183 14.4707 43.8682 14.4396 43.923C14.4086 43.9778 14.3942 44.0363 14.3971 44.095Z" fill="#EBEBEB"/>
<path d="M33.2464 44.3923L14.6775 44.2992L14.5962 51.886L33.1651 51.9791L33.2464 44.3923Z" fill="#F5F5F5"/>
<path d="M13.1921 44.9729L14.5249 52.8928C14.5368 52.9607 14.5845 53.0233 14.6592 53.0689C14.7338 53.1144 14.8301 53.1398 14.9301 53.1402L33.0263 53.2313C33.1297 53.2325 33.2299 53.2065 33.3063 53.1588C33.3826 53.1111 33.4294 53.0452 33.437 52.9746L34.4325 45.0678C34.4374 45.0292 34.4306 44.9904 34.4125 44.9537C34.3944 44.9171 34.3654 44.8834 34.3273 44.8547C34.2893 44.8261 34.243 44.8031 34.1914 44.7873C34.1397 44.7715 34.0839 44.7631 34.0273 44.7627L13.6001 44.6604C13.5422 44.6605 13.4851 44.6688 13.4323 44.685C13.3795 44.7011 13.3323 44.7248 13.2938 44.7542C13.2553 44.7837 13.2263 44.8185 13.2088 44.8562C13.1913 44.8938 13.1856 44.9336 13.1921 44.9729Z" fill="#EBEBEB"/>
<path d="M91.5554 45.211L91.9987 50.7724C92.0057 50.8678 92.0661 50.9577 92.1674 51.0235C92.2686 51.0893 92.403 51.1259 92.5427 51.1258L107.176 51.2002C107.321 51.2002 107.459 51.161 107.561 51.0913C107.663 51.0215 107.72 50.9269 107.72 50.8282L107.767 46.5C107.767 46.4013 107.709 46.3067 107.607 46.2369C107.505 46.1672 107.367 46.128 107.223 46.128H98.2248C98.1526 46.1283 98.081 46.1187 98.0142 46.0999C97.9474 46.081 97.8868 46.0533 97.8358 46.0183L96.2882 44.9432C96.1866 44.8733 96.0487 44.8338 95.9046 44.8334L92.1102 44.8148C92.0348 44.8137 91.9599 44.8233 91.8902 44.843C91.8204 44.8627 91.7575 44.8922 91.7053 44.9294C91.6531 44.9667 91.6129 45.011 91.587 45.0594C91.5612 45.1079 91.5504 45.1595 91.5554 45.211Z" fill="#EBEBEB"/>
<path d="M107.785 45.4672L91.7976 45.387L91.7276 51.921L107.715 52.0012L107.785 45.4672Z" fill="#F5F5F5"/>
<path d="M90.519 45.9662L91.6641 52.7849C91.6735 52.8436 91.7142 52.8979 91.7784 52.9374C91.8426 52.9768 91.9259 52.9987 92.0122 52.9988L107.595 53.077C107.684 53.0772 107.77 53.0545 107.835 53.0135C107.901 52.9725 107.941 52.9161 107.949 52.8556L108.806 46.048C108.81 46.0148 108.804 45.9814 108.789 45.9498C108.774 45.9182 108.749 45.8891 108.716 45.8644C108.683 45.8397 108.643 45.82 108.599 45.8065C108.554 45.7929 108.506 45.7859 108.457 45.7858L90.8698 45.6965C90.82 45.6965 90.7707 45.7038 90.7253 45.7177C90.6798 45.7317 90.6391 45.7521 90.606 45.7776C90.5729 45.803 90.548 45.833 90.533 45.8655C90.518 45.898 90.5132 45.9323 90.519 45.9662Z" fill="#EBEBEB"/>
<path d="M120.773 8.76804H94.7676V38.2044H120.773V8.76804Z" fill="#E0E0E0"/>
<path d="M119.909 8.76804H93.9026V38.2044H119.909V8.76804Z" fill="#EBEBEB"/>
<path d="M118.802 9.36508H95.0098V37.6073H118.802V9.36508Z" fill="white"/>
<path d="M114.167 13.0349H99.5386V33.9376H114.167V13.0349Z" fill="#EBEBEB"/>
<path d="M99.5521 26.5422C99.5194 24.5892 102.087 22.6827 104.913 22.4093C106.273 22.2809 107.696 22.4632 108.955 22.1098C111.205 21.4793 111.92 19.437 114.183 18.8306L114.286 33.9375H99.5521V26.5422Z" fill="#E0E0E0"/>
<path d="M119.269 46.4814C119.269 46.4814 117.115 46.3754 117.314 49.6806C117.512 52.9858 118.005 54.7435 118.005 54.7435C118.005 54.7435 117.942 55.4763 117.112 55.3331C116.283 55.1899 114.722 54.4757 113.952 55.0095C113.182 55.5433 113.435 56.4101 114.496 57.4089C115.557 58.4077 117.76 60.6527 117.961 60.8573C118.162 61.0619 118.233 61.4321 117.646 61.3949C117.058 61.3577 113.087 60.4388 112.562 61.7539C112.037 63.0689 115.66 65.5185 116.049 65.79C116.438 66.0616 116.457 66.2364 116.299 66.402C116.141 66.5675 114.849 66.1713 113.704 65.9407C112.559 65.7101 111.175 65.5817 110.962 66.3574C110.75 67.133 112.35 69.4022 118.326 71.7885L121.201 72.7706L123.921 71.5839C129.518 68.7939 130.772 66.4336 130.449 65.6766C130.125 64.9196 128.765 65.1428 127.658 65.4497C126.551 65.7566 125.327 66.2383 125.145 66.0839C124.962 65.9296 124.96 65.7584 125.305 65.459C125.65 65.1595 128.898 62.483 128.183 61.2051C127.467 59.9273 123.654 61.1196 123.072 61.1959C122.49 61.2721 122.528 60.8927 122.68 60.6806C122.833 60.4686 124.715 58.0766 125.623 57.0127C126.532 55.9488 126.692 55.0839 125.814 54.5947C124.935 54.1055 123.521 54.9332 122.716 55.1322C121.91 55.3313 121.742 54.6077 121.742 54.6077C121.742 54.6077 121.976 52.824 121.69 49.5225C121.405 46.221 119.223 46.487 119.223 46.487" fill="#EBEBEB"/>
<path d="M119.441 49.4406C119.441 49.4406 119.441 49.4648 119.441 49.5095C119.441 49.5541 119.441 49.6266 119.465 49.7122C119.482 49.8982 119.509 50.1567 119.541 50.4934C119.607 51.1704 119.691 52.1525 119.789 53.3652C119.987 55.7832 120.219 59.1312 120.453 62.8419C120.686 66.5526 120.91 69.8969 121.086 72.3279C121.176 73.5388 121.25 74.519 121.298 75.1998C121.323 75.5364 121.342 75.7987 121.356 75.981C121.356 76.0684 121.356 76.1354 121.369 76.1837V76.2544C121.369 76.2544 121.369 76.2302 121.356 76.1837C121.342 76.1372 121.356 76.0684 121.334 75.981C121.315 75.795 121.29 75.5383 121.258 75.2016C121.19 74.5246 121.105 73.5425 121.007 72.3298C120.812 69.9118 120.58 66.5638 120.344 62.8438C120.107 59.1238 119.89 55.7907 119.713 53.3578C119.623 52.1469 119.55 51.1667 119.498 50.486C119.473 50.1493 119.454 49.887 119.441 49.7048C119.441 49.6173 119.441 49.5504 119.441 49.502C119.439 49.4816 119.439 49.4611 119.441 49.4406Z" fill="#E0E0E0"/>
<path d="M116.076 56.066C116.141 56.0953 116.202 56.1297 116.256 56.1683C116.364 56.2371 116.528 56.3394 116.71 56.4677C117.091 56.7244 117.599 57.089 118.152 57.4982L119.558 58.5509L119.988 58.8671C120.044 58.9041 120.094 58.9453 120.137 58.9899C120.072 58.9615 120.011 58.9277 119.958 58.8895C119.846 58.8206 119.686 58.7165 119.503 58.5881C119.125 58.3277 118.622 57.9595 118.073 57.5503L116.656 56.5049L116.226 56.1887C116.169 56.1523 116.118 56.111 116.076 56.066Z" fill="#E0E0E0"/>
<path d="M120.423 58.9248C120.401 58.9099 121.451 58.1566 122.77 57.2508C124.089 56.345 125.175 55.6065 125.196 55.6214C125.218 55.6363 124.165 56.3896 122.849 57.2954C121.532 58.2012 120.444 58.9397 120.423 58.9248Z" fill="#E0E0E0"/>
<path d="M120.409 64.622C120.47 64.5872 120.538 64.5578 120.61 64.5345L121.173 64.3188C121.647 64.1328 122.299 63.8835 123.007 63.5859C123.714 63.2883 124.342 63.0075 124.796 62.7992L125.34 62.5555C125.403 62.5224 125.472 62.4943 125.544 62.4718C125.491 62.5123 125.431 62.548 125.365 62.5778C125.245 62.6429 125.068 62.7341 124.848 62.8438C124.407 63.0614 123.784 63.3534 123.075 63.6492C122.365 63.9449 121.701 64.1942 121.217 64.3653C120.975 64.4508 120.776 64.5178 120.637 64.5606C120.564 64.5861 120.488 64.6067 120.409 64.622Z" fill="#E0E0E0"/>
<path d="M115.646 62.6281C115.717 62.6422 115.784 62.6635 115.845 62.6913C115.97 62.7378 116.149 62.8048 116.367 62.8903C116.805 63.0596 117.406 63.2995 118.064 63.5674C118.723 63.8352 119.321 64.0826 119.748 64.2649L120.251 64.4825C120.315 64.5079 120.374 64.5378 120.428 64.5718C120.358 64.5572 120.291 64.5359 120.229 64.5085C120.104 64.4639 119.928 64.3951 119.707 64.3095C119.269 64.1402 118.668 63.9003 118.01 63.6325C117.352 63.3646 116.756 63.1172 116.326 62.935L115.823 62.7173C115.76 62.6919 115.7 62.662 115.646 62.6281Z" fill="#E0E0E0"/>
<path d="M114.702 67.6556C114.79 67.6786 114.875 67.7066 114.955 67.7393L115.624 67.9923C116.188 68.208 116.96 68.5112 117.8 68.8497C118.641 69.1883 119.419 69.4989 119.976 69.7258L120.627 69.9992C120.709 70.0297 120.786 70.0658 120.858 70.1071C120.769 70.0862 120.684 70.0581 120.605 70.0234L119.952 69.7723C119.392 69.5565 118.616 69.2534 117.776 68.9148C116.936 68.5763 116.144 68.262 115.6 68.0388L114.947 67.7654C114.86 67.7347 114.778 67.698 114.702 67.6556Z" fill="#E0E0E0"/>
<path d="M120.741 70.0215C120.818 69.9768 120.902 69.9381 120.991 69.9062L121.69 69.6161C122.28 69.3705 123.094 69.0283 123.975 68.634C124.856 68.2397 125.645 67.8733 126.211 67.6017L126.883 67.2836C126.961 67.2412 127.046 67.2044 127.136 67.1739C127.066 67.2232 126.989 67.268 126.907 67.3078C126.758 67.3896 126.535 67.505 126.257 67.6463C125.7 67.9272 124.919 68.3048 124.035 68.6972C123.151 69.0897 122.329 69.4263 121.728 69.6607C121.429 69.7779 121.184 69.8709 121.013 69.9323C120.926 69.9671 120.835 69.997 120.741 70.0215Z" fill="#E0E0E0"/>
<path d="M125.063 73.4142H117.11L119.705 86.8508H122.465L125.063 73.4142Z" fill="#E0E0E0"/>
<path d="M117.521 75.0659C117.531 75.0831 117.545 75.0989 117.564 75.1124C117.615 75.1545 117.68 75.1872 117.754 75.2072C117.892 75.241 118.039 75.2528 118.184 75.2418C118.329 75.2309 118.469 75.1974 118.592 75.144C118.913 75.0231 119.193 74.785 119.623 74.679C120.101 74.5743 120.616 74.5815 121.086 74.6994C121.565 74.8117 122.022 74.9635 122.446 75.1514C122.802 75.3032 123.172 75.4386 123.553 75.5569C123.813 75.636 124.088 75.6905 124.369 75.7187C124.446 75.726 124.523 75.7297 124.601 75.7299C124.652 75.7299 124.682 75.7299 124.682 75.7299C124.306 75.6904 123.94 75.6146 123.594 75.5048C123.22 75.3798 122.857 75.24 122.506 75.0863C122.076 74.8908 121.611 74.7339 121.122 74.6195C120.624 74.4969 120.081 74.493 119.58 74.6083C119.367 74.6677 119.17 74.7507 118.997 74.8538C118.854 74.9409 118.702 75.0217 118.543 75.0956C118.431 75.1484 118.304 75.184 118.17 75.2C118.037 75.2161 117.899 75.2122 117.768 75.1886C117.675 75.1581 117.592 75.1165 117.521 75.0659Z" fill="#F5F5F5"/>
<path d="M117.812 77.5397C117.812 77.5397 117.874 77.4839 117.999 77.3964C118.179 77.2743 118.395 77.1803 118.633 77.1212C118.987 77.032 119.363 76.9927 119.74 77.0058C120.205 77.0304 120.667 77.0739 121.124 77.136C121.591 77.1975 122.069 77.2107 122.542 77.1751C122.927 77.1419 123.304 77.0685 123.657 76.9575C123.893 76.8835 124.118 76.7925 124.326 76.6859C124.407 76.6501 124.478 76.6055 124.538 76.5539C124.246 76.6864 123.939 76.8022 123.619 76.8998C123.271 76.9994 122.905 77.0652 122.531 77.0951C122.068 77.1241 121.602 77.1085 121.146 77.0486C120.684 76.9855 120.216 76.9438 119.745 76.924C119.355 76.9155 118.966 76.9624 118.603 77.0616C118.357 77.1292 118.138 77.2357 117.964 77.3723C117.919 77.41 117.879 77.4505 117.844 77.4932C117.817 77.5229 117.809 77.5378 117.812 77.5397Z" fill="#F5F5F5"/>
<path d="M124.16 78.864C124.096 78.828 124.022 78.8014 123.942 78.7859C123.73 78.7314 123.507 78.6988 123.281 78.6892C122.948 78.674 122.614 78.6871 122.286 78.7282C121.916 78.7691 121.519 78.838 121.1 78.8993C120.712 78.9617 120.315 78.9923 119.917 78.9905C119.593 78.9847 119.274 78.9374 118.976 78.851C118.703 78.7659 118.46 78.6423 118.263 78.4883C118.292 78.5418 118.338 78.5906 118.396 78.6315C118.549 78.7479 118.734 78.8421 118.94 78.9086C119.245 79.0076 119.577 79.0633 119.914 79.0723C120.323 79.0793 120.731 79.0505 121.13 78.9868C121.551 78.9254 121.946 78.8528 122.308 78.8008C122.628 78.7592 122.953 78.7399 123.279 78.7431C123.579 78.7571 123.875 78.7977 124.16 78.864Z" fill="#F5F5F5"/>
<path d="M118.513 80.724C118.757 80.6534 119.026 80.6352 119.286 80.6719C119.569 80.7181 119.843 80.7874 120.102 80.8784C120.432 80.9861 120.787 81.0528 121.152 81.0755C121.817 81.1157 122.484 81.0101 123.056 80.7742C123.226 80.7034 123.385 80.6198 123.529 80.525C123.584 80.4914 123.632 80.4525 123.67 80.4096C123.455 80.5227 123.231 80.6276 122.998 80.724C122.435 80.9347 121.794 81.0272 121.154 80.99C120.401 80.9602 119.824 80.6533 119.302 80.618C119.101 80.5938 118.893 80.606 118.701 80.6533C118.631 80.6658 118.566 80.6901 118.513 80.724Z" fill="#F5F5F5"/>
<path d="M118.957 83.3075C119.185 83.3115 119.411 83.2811 119.62 83.2183C120.02 83.1253 120.515 82.9169 121.092 82.7588C121.361 82.685 121.648 82.6441 121.938 82.6379C122.173 82.6381 122.405 82.6744 122.618 82.7439C122.81 82.8158 122.978 82.9147 123.11 83.0341C123.099 82.9924 123.073 82.9533 123.034 82.9206C122.938 82.8249 122.81 82.7459 122.661 82.69C122.441 82.6056 122.193 82.5596 121.94 82.5561C121.634 82.5567 121.33 82.5978 121.046 82.677C120.447 82.8407 119.958 83.049 119.588 83.1587C119.218 83.2685 118.954 83.2927 118.957 83.3075Z" fill="#F5F5F5"/>
<path d="M119.348 84.5072C119.507 84.5609 119.677 84.5985 119.851 84.6188C120.681 84.7552 121.534 84.8127 122.386 84.7899C122.563 84.7924 122.74 84.7781 122.911 84.7472C122.911 84.7193 122.095 84.7472 121.122 84.6765C120.148 84.6058 119.356 84.4812 119.348 84.5072Z" fill="#F5F5F5"/>
<path d="M36.3176 11.9896H10.3225V37.7543H36.3176V11.9896Z" fill="#E0E0E0"/>
<path d="M35.0146 11.9896H9.01953V37.7543H35.0146V11.9896Z" fill="#F5F5F5"/>
<path d="M31.7833 14.7795H12.2483V34.9624H31.7833V14.7795Z" fill="white"/>
<path d="M31.7832 34.968C31.7832 34.968 31.7832 34.9327 31.7832 34.8694C31.7832 34.8062 31.7832 34.7076 31.7832 34.583C31.7832 34.3282 31.7832 33.958 31.7832 33.467C31.7832 32.4998 31.7832 31.0918 31.7669 29.3099C31.7669 25.7517 31.7478 20.7111 31.7342 14.7758L31.7995 14.8205L12.24 14.8279L12.3107 14.7796C12.3107 22.3944 12.3107 29.414 12.3107 34.9643L12.2536 34.9252L26.4737 34.9457L30.4014 34.955H31.4323H31.7886H31.4432H30.4232H26.5091L12.24 35.0015H12.1829V34.968C12.1829 29.4178 12.1829 22.3981 12.1829 14.7833V14.7312H12.24H31.7723H31.8376V14.7758C31.8376 20.7278 31.8131 25.7722 31.8049 29.3396C31.8049 31.1159 31.8049 32.5221 31.7886 33.4874C31.7886 33.9655 31.7886 34.3337 31.7886 34.5848C31.7886 34.7076 31.7886 34.8006 31.7886 34.8657C31.7886 34.9308 31.7832 34.968 31.7832 34.968Z" fill="#E0E0E0"/>
<path d="M35.088 11.9896C34.9553 12.1523 34.8005 12.3061 34.6256 12.449C34.3237 12.7261 33.894 13.1018 33.4071 13.5073C32.9202 13.9128 32.4605 14.2736 32.1205 14.5285C31.9489 14.6737 31.7576 14.8076 31.5493 14.9284C31.6953 14.7707 31.8609 14.622 32.0444 14.4838L33.2956 13.4459C33.7716 13.0535 34.1986 12.7019 34.5468 12.4081C34.7095 12.2583 34.8905 12.1183 35.088 11.9896Z" fill="#E0E0E0"/>
<path d="M31.884 34.8992C32.8546 35.9549 33.9971 36.9321 35.2895 37.8119L31.884 34.8992Z" fill="white"/>
<path d="M35.2895 37.8119C35.0737 37.7022 34.875 37.5775 34.6965 37.4399C33.791 36.8077 32.9809 36.1148 32.2784 35.3716C32.1224 35.223 31.9902 35.0634 31.884 34.8954C32.0615 35.0351 32.2234 35.1837 32.3682 35.34C32.6402 35.6153 33.0564 35.991 33.5269 36.3927C33.9975 36.7945 34.4463 37.1367 34.7754 37.3971C34.9617 37.5264 35.1335 37.6651 35.2895 37.8119Z" fill="#E0E0E0"/>
<path d="M9.01416 37.7338L12.4196 34.8601L9.01416 37.7338Z" fill="white"/>
<path d="M12.4197 34.8601C11.9141 35.3687 11.3694 35.8586 10.7877 36.3276C10.2385 36.8177 9.65107 37.2871 9.02783 37.7338C9.53555 37.227 10.0812 36.7384 10.6626 36.27C11.2129 35.78 11.7994 35.3094 12.4197 34.8601Z" fill="#E0E0E0"/>
<path d="M9.01953 11.9896C9.60551 12.4187 10.1567 12.8695 10.6706 13.3399C11.2237 13.79 11.7386 14.2613 12.2128 14.7517C11.6261 14.3197 11.0749 13.8657 10.5618 13.392C10.0105 12.9442 9.49563 12.476 9.01953 11.9896Z" fill="#E0E0E0"/>
<path d="M25.6986 18.8771H19.157V31.5772H25.6986V18.8771Z" fill="#E0E0E0"/>
<path d="M68.895 7.67993H48.4651V22.2437H68.895V7.67993Z" fill="#E0E0E0"/>
<path d="M67.5105 7.67993H47.0806V22.2437H67.5105V7.67993Z" fill="#FAFAFA"/>
<path d="M67.5187 22.2493H47.0752V7.67621H67.5187V22.2493ZM47.0888 22.24H67.5051V7.68551H47.0888V22.24Z" fill="#E0E0E0"/>
<path d="M64.7659 9.63852H49.8276V20.287H64.7659V9.63852Z" fill="white"/>
<path d="M49.8277 20.3577C49.7216 20.4641 49.5985 20.562 49.4605 20.6497C49.2212 20.8227 48.8866 21.0552 48.5085 21.3081C48.1305 21.5611 47.7877 21.788 47.5348 21.948C47.4056 22.0415 47.2604 22.1239 47.1023 22.1935C47.207 22.0864 47.3303 21.9884 47.4695 21.9015C47.7061 21.7304 48.0434 21.496 48.4215 21.243C48.7996 20.9901 49.1423 20.7632 49.398 20.6013C49.5268 20.5089 49.671 20.4271 49.8277 20.3577Z" fill="#E0E0E0"/>
<path d="M64.7661 20.3316C64.9223 20.4044 65.0664 20.4886 65.1959 20.5828C65.4461 20.7464 65.7861 20.9752 66.1588 21.2319C66.5314 21.4886 66.8578 21.7266 67.0917 21.8996C67.2284 21.9879 67.349 22.0872 67.4508 22.1954C67.2941 22.1237 67.1508 22.0394 67.0237 21.9443C66.7735 21.7806 66.4308 21.5518 66.0608 21.2933C65.6909 21.0347 65.3591 20.8004 65.1252 20.6255C64.9887 20.5377 64.8682 20.4391 64.7661 20.3316Z" fill="#E0E0E0"/>
<path d="M64.7361 9.672C64.8427 9.56533 64.9668 9.46735 65.106 9.37998C65.3426 9.207 65.6772 8.9745 66.0553 8.72154C66.4334 8.46858 66.7761 8.24166 67.029 8.0817C67.156 7.9865 67.2994 7.90219 67.4561 7.8306C67.3513 7.93769 67.228 8.03575 67.0889 8.12262C66.8522 8.2956 66.515 8.5281 66.1369 8.78292C65.7588 9.03774 65.4161 9.2628 65.1604 9.42276C65.0338 9.51694 64.8913 9.6006 64.7361 9.672Z" fill="#E0E0E0"/>
<path d="M49.7762 9.69246C49.6183 9.6212 49.474 9.53686 49.3464 9.44135C49.0962 9.27768 48.7562 9.0489 48.3863 8.79222C48.0164 8.53554 47.6845 8.29932 47.4506 8.12448C47.3139 8.03616 47.1934 7.93686 47.0916 7.82874C47.2482 7.90037 47.3916 7.98468 47.5186 8.07984C47.7688 8.24352 48.1116 8.4723 48.4815 8.73084C48.8514 8.98938 49.1832 9.2256 49.4199 9.39858C49.5551 9.48665 49.6747 9.58529 49.7762 9.69246Z" fill="#E0E0E0"/>
<path d="M64.7361 20.287C64.7361 20.287 64.7361 20.2684 64.7361 20.2349C64.7361 20.2015 64.7361 20.1494 64.7361 20.0861C64.7361 19.9522 64.7361 19.7606 64.7361 19.5114C64.7361 19.0073 64.7361 18.2726 64.7361 17.3408C64.7361 15.4808 64.7171 12.8191 64.7062 9.63852L64.7361 9.672H49.8414L49.9067 9.62736C49.9067 13.5334 49.9067 17.192 49.9067 20.2759L49.8496 20.2368L60.6371 20.2573L63.6481 20.274H64.4478H64.6545H64.4641H63.6726H60.6561L49.8332 20.2945H49.7761V20.2554C49.7761 17.1715 49.7761 13.5148 49.7761 9.6069V9.56226H49.8441H64.7388H64.796V9.60132C64.796 12.7931 64.7742 15.4585 64.766 17.3296C64.766 18.2596 64.766 18.9887 64.7524 19.4909C64.7524 19.7365 64.7524 19.9262 64.7524 20.0582C64.7524 20.1196 64.7524 20.1661 64.7524 20.2015C64.7511 20.2303 64.7456 20.2589 64.7361 20.287Z" fill="#E0E0E0"/>
<path d="M59.7912 13.2581H54.8054V16.6674H59.7912V13.2581Z" fill="#EBEBEB"/>
<path d="M37.7918 66.5694L38.3032 72.992C38.3115 73.1024 38.3812 73.2064 38.498 73.2828C38.6148 73.3592 38.7699 73.4022 38.9315 73.403L55.8309 73.4867C55.9141 73.4872 55.9967 73.4765 56.0738 73.4552C56.151 73.4338 56.2213 73.4023 56.2806 73.3624C56.34 73.3225 56.3873 73.275 56.4198 73.2226C56.4523 73.1702 56.4694 73.114 56.4701 73.0571L56.5245 68.0574C56.5248 68.0002 56.5087 67.9436 56.4771 67.8907C56.4454 67.8378 56.3988 67.7897 56.34 67.7491C56.2811 67.7085 56.2112 67.6762 56.1341 67.6541C56.057 67.632 55.9743 67.6205 55.8907 67.6203H45.4949C45.4118 67.6201 45.3296 67.6087 45.253 67.5867C45.1765 67.5646 45.1071 67.5324 45.0488 67.4919L43.2536 66.2662C43.1353 66.1864 42.9764 66.1411 42.8102 66.1397L38.4283 66.1174C38.3425 66.1171 38.2575 66.1287 38.1785 66.1515C38.0995 66.1744 38.028 66.2079 37.9685 66.2502C37.909 66.2924 37.8627 66.3425 37.8323 66.3974C37.8019 66.4523 37.7882 66.5108 37.7918 66.5694Z" fill="#EBEBEB"/>
<path d="M56.5357 66.8657L38.0701 66.7731L37.9892 74.3189L56.4548 74.4115L56.5357 66.8657Z" fill="#F5F5F5"/>
<path d="M36.5949 67.4417L37.9196 75.3188C37.9309 75.3864 37.9782 75.4488 38.0524 75.494C38.1267 75.5393 38.2227 75.5643 38.3221 75.5643L56.3176 75.6555C56.4203 75.6558 56.5194 75.6298 56.5954 75.5826C56.6714 75.5355 56.7188 75.4705 56.7284 75.4007L57.7184 67.5366C57.7229 67.4982 57.7158 67.4595 57.6975 67.4231C57.6792 67.3867 57.6502 67.3532 57.6122 67.3247C57.5742 67.2963 57.528 67.2735 57.4766 67.2578C57.4251 67.2421 57.3695 67.2338 57.3132 67.2334L36.992 67.1311C36.9353 67.1319 36.8793 67.1408 36.8279 67.1572C36.7764 67.1736 36.7305 67.1972 36.6931 67.2264C36.6557 67.2556 36.6277 67.2899 36.6108 67.327C36.5939 67.3641 36.5885 67.4031 36.5949 67.4417Z" fill="#EBEBEB"/>
<path d="M67.1542 70.1871L67.6656 76.632C67.6739 76.7424 67.7436 76.8464 67.8604 76.9228C67.9772 76.9992 68.1322 77.0422 68.2939 77.043L85.2313 77.1286C85.3149 77.1291 85.3978 77.1183 85.4753 77.0969C85.5528 77.0755 85.6234 77.0438 85.683 77.0038C85.7426 76.9637 85.7901 76.916 85.8227 76.8634C85.8554 76.8107 85.8725 76.7542 85.8732 76.6971L85.9276 71.6862C85.928 71.6289 85.9118 71.5721 85.88 71.5191C85.8482 71.4661 85.8013 71.4179 85.7422 71.3773C85.683 71.3367 85.6128 71.3044 85.5354 71.2824C85.458 71.2605 85.375 71.2491 85.2912 71.2491H74.8736C74.7902 71.2494 74.7077 71.2383 74.6307 71.2166C74.5536 71.1949 74.4837 71.163 74.4248 71.1227L72.6296 69.8932C72.5106 69.8129 72.3506 69.7676 72.1835 69.7667L67.7934 69.7444C67.7086 69.7439 67.6244 69.755 67.546 69.7772C67.4676 69.7993 67.3965 69.832 67.3368 69.8733C67.2772 69.9146 67.2303 69.9636 67.199 70.0175C67.1676 70.0714 67.1524 70.1291 67.1542 70.1871Z" fill="#EBEBEB"/>
<path d="M85.9373 70.4856L67.4309 70.3928L67.3498 77.9554L85.8562 78.0481L85.9373 70.4856Z" fill="#F5F5F5"/>
<path d="M65.952 71.0613L67.2821 78.9551C67.2934 79.0229 67.3406 79.0855 67.4148 79.131C67.4889 79.1766 67.5849 79.202 67.6847 79.2025L85.721 79.2937C85.8239 79.2935 85.923 79.2671 85.9989 79.2196C86.0749 79.1722 86.1222 79.107 86.1317 79.037L87.1245 71.1562C87.129 71.1177 87.1219 71.0791 87.1036 71.0427C87.0853 71.0062 87.0563 70.9728 87.0182 70.9443C86.9802 70.9159 86.9341 70.8931 86.8826 70.8774C86.8312 70.8617 86.7756 70.8534 86.7192 70.853L66.3682 70.7507C66.3099 70.7499 66.2521 70.7577 66.1986 70.7734C66.145 70.7891 66.0969 70.8124 66.0576 70.8418C66.0182 70.8711 65.9885 70.9059 65.9703 70.9438C65.9521 70.9816 65.9458 71.0217 65.952 71.0613Z" fill="#EBEBEB"/>
<path d="M25.4482 51.3678C22.6574 47.6151 23.0654 42.2542 26.3838 38.8605C27.4174 37.8075 28.8618 36.8909 30.4394 37.0105C32.017 37.1302 33.3525 38.3484 33.8448 39.7078C34.3371 41.0671 34.163 42.5366 33.8747 43.9391C33.4722 45.9016 32.7867 47.9095 31.2472 49.3694C29.7077 50.8293 27.4392 52.3251 25.4373 51.3678" fill="#6672FB"/>
<path d="M26.2915 69.4322C25.7905 68.341 25.6925 67.1387 26.0113 65.9957C26.3301 64.8527 27.0495 63.827 28.0676 63.0637C28.7096 62.6018 29.5473 62.2452 30.347 62.4319C31.1467 62.6186 31.707 63.3557 31.824 64.0928C31.9409 64.83 31.6961 65.5767 31.4051 66.2755C30.9944 67.2567 30.4395 68.238 29.5011 68.865C28.5627 69.4921 27.2272 70.0832 26.3024 69.4322" fill="#6672FB"/>
<path d="M20.2637 68.1423C21.0307 64.806 19.0397 61.1443 15.6152 59.5791C14.5517 59.1005 13.2461 58.8037 12.1744 59.2776C11.1027 59.7514 10.5424 60.9361 10.6376 62.0131C10.7328 63.0901 11.3122 64.088 11.9677 64.9975C12.8762 66.2779 13.9914 67.5248 15.5445 68.1686C17.0976 68.8124 19.1757 69.3078 20.2691 68.1423" fill="#6672FB"/>
<path d="M20.748 59.1459C22.0835 55.355 19.8205 50.7695 16.0451 48.5844C14.8755 47.9095 13.3931 47.4404 12.0848 47.8664C10.7765 48.2924 9.97409 49.6303 9.93329 50.8915C9.89249 52.1528 10.4419 53.3662 11.0757 54.4982C11.9624 56.0825 13.0939 57.6477 14.813 58.5668C16.532 59.4858 19.32 60.3856 20.748 59.1435" fill="#6672FB"/>
<path d="M22.7309 77.6746C22.7083 77.6157 22.6937 77.5547 22.6874 77.4928C22.6629 77.354 22.633 77.1792 22.5976 76.9638C22.5786 76.8466 22.5595 76.7245 22.5378 76.5809C22.516 76.4373 22.4725 76.2913 22.4371 76.131C22.3691 75.8079 22.2957 75.4369 22.1651 75.0373C22.108 74.8338 22.0509 74.6232 21.9911 74.4054C21.9312 74.1876 21.8442 73.9627 21.7653 73.7281C21.6211 73.2495 21.409 72.7708 21.2213 72.2515C20.7441 71.1413 20.1891 70.0583 19.5594 69.0086C18.9132 67.9686 18.1947 66.9647 17.4079 66.0027C17.0271 65.5719 16.6843 65.1459 16.3199 64.7797L15.8058 64.2412L15.3026 63.7626C14.9898 63.4514 14.6797 63.1953 14.4104 62.9656L14.0405 62.6425L13.7114 62.3888L13.2599 62.0298C13.1565 61.9461 13.1048 61.9006 13.1103 61.8958C13.1711 61.9278 13.2285 61.9646 13.2816 62.0059L13.7576 62.341L14.0976 62.5803L14.4811 62.8914C14.7531 63.1164 15.0741 63.3701 15.3951 63.6764L15.9091 64.155L16.4368 64.6911C16.8095 65.0549 17.1603 65.4785 17.5466 65.9117C18.3461 66.8772 19.073 67.8878 19.7226 68.9368C20.3568 69.9932 20.9111 71.0853 21.3818 72.206C21.5776 72.7301 21.7871 73.2208 21.9258 73.6946C22.0019 73.934 22.0727 74.1589 22.1434 74.3791C22.2141 74.5993 22.2549 74.8123 22.3066 75.0157C22.4208 75.4202 22.4834 75.7935 22.5432 76.119C22.5731 76.2818 22.6031 76.4325 22.6275 76.5737C22.652 76.7149 22.6602 76.8418 22.6738 76.9591C22.6955 77.1768 22.7146 77.354 22.7282 77.4928C22.7359 77.5532 22.7368 77.6141 22.7309 77.6746Z" fill="#263238"/>
<path d="M22.633 78.3567C22.6294 78.3313 22.6294 78.3056 22.633 78.2802C22.633 78.2227 22.633 78.1509 22.6493 78.0624C22.6711 77.8566 22.701 77.5837 22.7391 77.2199C22.7608 77.0357 22.7826 76.8322 22.8071 76.612C22.8315 76.3919 22.8343 76.1454 22.8479 75.8941C22.8696 75.3723 22.9267 74.7788 22.905 74.123C22.905 73.7952 22.905 73.4529 22.905 73.0939C22.905 72.7349 22.8642 72.364 22.8424 71.9787C22.8125 71.208 22.6955 70.3919 22.5895 69.528C22.3014 67.6673 21.8595 65.8276 21.2675 64.0234C20.6452 62.2214 19.8743 60.4616 18.961 58.7582C18.5149 57.9852 18.1069 57.2409 17.6554 56.5804C17.4323 56.2477 17.2338 55.9174 17.0162 55.623C16.7986 55.3287 16.5919 55.0223 16.377 54.7543C15.988 54.1919 15.561 53.7228 15.2346 53.2968C15.0605 53.0862 14.9027 52.8875 14.7504 52.708C14.5981 52.5285 14.4458 52.3778 14.3152 52.2294L13.7195 51.5664C13.6597 51.4946 13.608 51.4372 13.5672 51.3917C13.5264 51.3463 13.5183 51.3295 13.521 51.3271C13.5237 51.3247 13.5455 51.3439 13.5835 51.3798L13.7467 51.5449L14.3696 52.1911L14.8184 52.6697C14.9762 52.8445 15.1367 53.0431 15.3162 53.2513C15.6643 53.6725 16.0887 54.1392 16.4858 54.6873L17.1359 55.5465C17.3589 55.848 17.5602 56.1783 17.7859 56.5038C18.2456 57.1643 18.6591 57.9062 19.1106 58.6817C20.038 60.3822 20.8173 62.1424 21.4416 63.9468C22.0382 65.7618 22.4774 67.6139 22.7554 69.4873C22.856 70.3536 22.9703 71.1745 22.9947 71.9476C23.0111 72.3353 23.0464 72.7086 23.0464 73.0676C23.0464 73.4266 23.0464 73.7712 23.0464 74.1015C23.0464 74.7597 22.992 75.3532 22.9621 75.8749C22.9403 76.1358 22.9295 76.3775 22.905 76.5929C22.8805 76.8083 22.8451 77.0189 22.8207 77.2008L22.6983 78.0408C22.6983 78.1294 22.6711 78.2012 22.6629 78.2586C22.6583 78.2924 22.6482 78.3255 22.633 78.3567Z" fill="#263238"/>
<path d="M29.8928 41.5434C29.8833 41.5674 29.8715 41.5906 29.8575 41.6128L29.7351 41.8091L29.2591 42.5486C29.1584 42.7113 29.0333 42.8884 28.9164 43.0895L28.5437 43.75C28.4077 43.9893 28.2717 44.2287 28.114 44.5063C27.9562 44.7839 27.842 45.0711 27.676 45.375C27.5101 45.679 27.3578 45.9973 27.2028 46.3323C27.0477 46.6674 26.9008 47.024 26.7404 47.3878C26.6615 47.5721 26.5799 47.7563 26.4983 47.9454L26.2725 48.5318C26.1229 48.9267 25.9652 49.3335 25.8074 49.7499C25.2144 51.4252 24.6541 53.304 24.1754 55.2928C23.6967 57.2816 23.392 59.2105 23.1663 60.96C22.9405 62.7095 22.8127 64.2939 22.7719 65.6245C22.7338 66.2899 22.7256 66.893 22.7229 67.4219C22.7202 67.9508 22.7093 68.4055 22.7229 68.7789C22.7365 69.1522 22.7229 69.4274 22.7229 69.638C22.7229 69.7266 22.7229 69.8008 22.7229 69.8606C22.727 69.886 22.727 69.9118 22.7229 69.9372C22.719 69.9118 22.719 69.886 22.7229 69.8606C22.7229 69.8008 22.7229 69.729 22.7066 69.638C22.7066 69.4298 22.6794 69.1426 22.6604 68.7812C22.6413 68.4199 22.625 67.9508 22.625 67.4219C22.625 66.893 22.625 66.2875 22.6468 65.6197C22.6712 64.2867 22.81 62.6999 23.0031 60.9433C23.1962 59.1866 23.5471 57.2672 24.0095 55.2712C24.4719 53.2752 25.0485 51.3989 25.6415 49.714C25.802 49.2976 25.9624 48.8908 26.1148 48.4935C26.1936 48.2972 26.2698 48.101 26.346 47.9095L26.5935 47.3519L27.0695 46.2965C27.2272 45.959 27.3986 45.6431 27.5509 45.3391C27.7032 45.0352 27.8528 44.7432 28.0024 44.4728L28.4458 43.7189L28.8348 43.0631C28.9572 42.8621 29.085 42.6874 29.1911 42.527L29.6997 41.7923C29.7541 41.7157 29.7976 41.6535 29.8357 41.6032C29.8738 41.553 29.8901 41.541 29.8928 41.5434Z" fill="#263238"/>
<path d="M28.9435 64.5667C28.8595 64.7269 28.7603 64.8807 28.647 65.0262C28.443 65.311 28.1628 65.7442 27.831 66.2659C27.4991 66.7877 27.1401 67.4434 26.7729 68.1805C26.4057 68.9177 26.0603 69.7362 25.7475 70.6145C25.4347 71.4928 25.2035 72.352 25.0348 73.1346C24.8662 73.9172 24.7628 74.6328 24.6839 75.2335C24.6051 75.8342 24.5751 76.3248 24.5588 76.6695C24.5593 76.8451 24.543 77.0204 24.5099 77.1936C24.4864 77.0189 24.4791 76.8428 24.4881 76.6671C24.4881 76.3272 24.4881 75.8366 24.5561 75.2311C24.6188 74.5216 24.7232 73.8155 24.8689 73.1155C25.2227 71.397 25.8108 69.7224 26.6206 68.1279C26.9959 67.3955 27.3713 66.7518 27.7086 66.2252C28.0459 65.6987 28.3505 65.2823 28.5735 65.0047C28.684 64.8506 28.8077 64.7042 28.9435 64.5667Z" fill="#263238"/>
<path d="M17.2529 75.9874H29.5038L28.0214 86.9941H18.7788L17.2529 75.9874Z" fill="#455A64"/>
<path d="M17.7017 85.807L18.7407 86.9941H28.0213L29.0903 85.8429L17.7017 85.807Z" fill="#263238"/>
<path d="M29.0251 79.2231C29.0251 79.2686 26.4846 79.3045 23.3484 79.3045C20.2123 79.3045 17.6799 79.2686 17.6799 79.2231C17.6799 79.1776 20.2204 79.1441 23.3566 79.1441C26.4927 79.1441 29.0251 79.18 29.0251 79.2231Z" fill="white"/>
<path d="M29.0251 79.9578C29.0251 80.0009 26.4846 80.0368 23.3484 80.0368C20.2123 80.0368 17.6799 80.0009 17.6799 79.9578C17.6799 79.9148 20.2204 79.8765 23.3566 79.8765C26.4927 79.8765 29.0251 79.9124 29.0251 79.9578Z" fill="white"/>
<path d="M28.8727 80.6663C28.8727 80.7117 26.4247 80.7476 23.3946 80.7476C20.3645 80.7476 17.9165 80.7117 17.9165 80.6663C17.9165 80.6208 20.3645 80.5849 23.3946 80.5849C26.4247 80.5849 28.8727 80.6232 28.8727 80.6663Z" fill="white"/>
<path d="M125.615 87.0034C125.615 87.0313 99.0868 87.0517 66.3706 87.0517C33.6544 87.0517 7.12085 87.0313 7.12085 87.0034C7.12085 86.9755 33.6436 86.955 66.3706 86.955C99.0976 86.955 125.615 86.9773 125.615 87.0034Z" fill="#263238"/>
<path d="M120.752 15.9217C119.838 14.9714 119.819 13.2386 119.849 12.7758C119.919 11.7227 117.063 5.5763 109.986 8.11402C107.448 8.11402 107.407 10.1733 106.926 10.5869C106.445 11.0005 105.909 11.432 105.781 11.9955C105.558 12.9949 106.711 13.9653 106.417 14.9513C106.309 15.3202 106.007 15.6355 105.794 15.9731C105.566 16.2749 105.386 16.7668 105.484 17.0396C105.607 17.3059 105.769 17.5589 105.966 17.7931C106.165 18.0295 106.257 18.3161 106.224 18.6025C106.113 19.1078 105.408 19.3895 105.207 19.8792C105.006 20.3688 105.386 20.8562 105.721 21.2788C106.056 21.7014 106.377 22.2358 106.107 22.6897C105.929 22.9148 105.707 23.1148 105.452 23.2822C105.107 23.5768 104.876 23.9484 104.787 24.3504C104.698 24.7524 104.755 25.1671 104.951 25.5426L109.031 24.8719C109.213 23.2784 109.394 21.6835 109.575 20.0871C110.767 20.3308 112.07 19.7048 112.635 19.5863L113.329 19.2777C114.847 19.5013 116.484 19.4186 117.814 18.7814C119.144 18.1441 121.116 18.9602 120.858 17.7104C120.714 17.1112 121.217 16.4024 120.752 15.9217Z" fill="#263238"/>
<path d="M116.111 10.1062L110.571 8.76463C108.786 8.54104 107.508 10.3297 107.32 11.7965C107.114 13.4354 106.942 15.4432 107.119 16.6751C107.473 19.157 109.755 19.546 109.755 19.546C109.755 19.546 109.355 23.0585 109.319 23.9372L116.144 21.0574L117.006 11.0162C117.022 10.8 116.939 10.5868 116.774 10.4185C116.608 10.2501 116.372 10.1387 116.111 10.1062Z" fill="#FFD3C1"/>
<path d="M107.666 13.811C107.661 13.8932 107.695 13.9738 107.761 14.0356C107.827 14.0975 107.92 14.1356 108.019 14.1419C108.068 14.1469 108.118 14.1438 108.165 14.1328C108.212 14.1218 108.256 14.1031 108.294 14.0779C108.333 14.0527 108.364 14.0214 108.388 13.986C108.411 13.9505 108.425 13.9115 108.43 13.8714C108.435 13.7892 108.401 13.7086 108.335 13.6468C108.269 13.5849 108.176 13.5468 108.077 13.5405C108.028 13.5352 107.978 13.5381 107.931 13.5489C107.884 13.5598 107.839 13.5784 107.801 13.6037C107.763 13.629 107.731 13.6604 107.708 13.696C107.684 13.7316 107.67 13.7708 107.666 13.811Z" fill="#263238"/>
<path d="M107.459 13.0888C107.718 13.1044 107.976 13.1313 108.232 13.1693C108.478 13.2513 108.718 13.3439 108.953 13.4466C108.98 13.4466 108.953 13.3728 108.838 13.2834C108.676 13.1633 108.482 13.0754 108.273 13.0262C108.069 12.975 107.853 12.965 107.644 12.9972C107.5 13.0262 107.44 13.0687 107.459 13.0888Z" fill="#263238"/>
<path d="M111.501 14.0681C111.496 14.1505 111.531 14.2311 111.598 14.2929C111.664 14.3547 111.757 14.3927 111.857 14.399C111.906 14.4037 111.956 14.4003 112.003 14.389C112.05 14.3778 112.094 14.3589 112.132 14.3335C112.17 14.3081 112.202 14.2767 112.225 14.2411C112.249 14.2055 112.263 14.1665 112.268 14.1263C112.272 14.044 112.237 13.9637 112.171 13.9021C112.104 13.8404 112.011 13.8022 111.912 13.7953C111.863 13.7907 111.813 13.7941 111.766 13.8054C111.719 13.8166 111.675 13.8355 111.637 13.8609C111.598 13.8863 111.567 13.9177 111.543 13.9533C111.52 13.9889 111.506 14.0279 111.501 14.0681Z" fill="#263238"/>
<path d="M111.572 13.536C111.632 13.5584 111.928 13.3951 112.388 13.3415C112.847 13.2878 113.217 13.3705 113.261 13.3415C113.304 13.3124 113.217 13.2766 113.057 13.2386C112.826 13.188 112.585 13.1773 112.35 13.2073C112.12 13.2304 111.899 13.2961 111.705 13.3996C111.577 13.4667 111.542 13.5248 111.572 13.536Z" fill="#263238"/>
<path d="M110.141 15.7562C109.926 15.6917 109.702 15.6503 109.475 15.6332C109.369 15.6221 109.271 15.5997 109.257 15.5416C109.252 15.4504 109.283 15.3604 109.344 15.2844C109.453 15.0765 109.57 14.8596 109.69 14.6316C110.168 13.7059 110.522 12.9412 110.476 12.9256C110.429 12.9099 110.005 13.65 109.524 14.5757C109.409 14.7993 109.298 15.0228 109.192 15.2308C109.121 15.3337 109.095 15.454 109.121 15.5706C109.135 15.6013 109.158 15.629 109.186 15.6518C109.215 15.6746 109.249 15.6919 109.287 15.7025C109.345 15.7179 109.406 15.7269 109.467 15.7294C109.689 15.761 109.916 15.77 110.141 15.7562Z" fill="#263238"/>
<path d="M109.755 19.5326C111.15 19.6186 112.545 19.3709 113.772 18.8194C113.737 18.8194 112.543 20.5343 109.692 20.1855L109.755 19.5326Z" fill="#F4AF9B"/>
<path d="M110.277 16.5813C110.36 16.5024 110.466 16.4422 110.585 16.4062C110.704 16.3702 110.832 16.3597 110.957 16.3756C111.048 16.3855 111.136 16.4105 111.215 16.4489C111.294 16.4873 111.362 16.5384 111.417 16.5991C111.469 16.6573 111.499 16.7273 111.501 16.7997C111.503 16.8721 111.479 16.9434 111.43 17.0038C111.361 17.0618 111.272 17.1018 111.176 17.1189C111.079 17.136 110.978 17.1294 110.886 17.1C110.694 17.036 110.518 16.9418 110.369 16.8227C110.324 16.7944 110.286 16.7586 110.258 16.7176C110.243 16.6992 110.235 16.6774 110.235 16.655C110.235 16.6327 110.243 16.6109 110.258 16.5924" fill="#F4AF9B"/>
<path d="M111.349 16.0312C111.281 16.0312 111.262 16.3957 110.865 16.6439C110.467 16.892 109.991 16.8361 109.986 16.8876C109.981 16.939 110.089 16.9636 110.291 16.9748C110.553 16.9859 110.812 16.921 111.022 16.7914C111.224 16.6662 111.359 16.4821 111.4 16.2772C111.425 16.1229 111.379 16.029 111.349 16.0312Z" fill="#263238"/>
<path d="M111.623 12.3264C111.661 12.4181 112.075 12.389 112.559 12.4538C113.043 12.5187 113.429 12.6394 113.497 12.5589C113.527 12.5187 113.465 12.4315 113.31 12.3353C113.104 12.2187 112.868 12.1422 112.621 12.1116C112.373 12.081 112.121 12.0971 111.882 12.1587C111.702 12.2101 111.61 12.2817 111.623 12.3264Z" fill="#263238"/>
<path d="M107.905 12.105C107.973 12.1855 108.261 12.105 108.604 12.1229C108.947 12.1408 109.235 12.1945 109.306 12.1229C109.339 12.0849 109.306 12.0067 109.173 11.9284C109.005 11.8366 108.808 11.7876 108.607 11.7876C108.406 11.7876 108.209 11.8366 108.041 11.9284C107.919 11.9888 107.873 12.067 107.905 12.105Z" fill="#263238"/>
<path d="M109.918 8.43597C112.15 8.72469 114.331 9.23212 116.416 9.94742C116.9 10.1151 117.406 10.3096 117.678 10.6763C117.95 11.043 117.928 11.5528 117.882 12.0178L117.189 18.6383L116.9 18.6248C116.084 18.7366 116.014 18.3878 115.418 17.8982C115.124 17.6499 114.904 17.3487 114.775 17.0185C114.647 16.6883 114.613 16.338 114.678 15.9955C114.798 15.394 115.222 14.7903 114.994 14.2068C114.692 13.4376 113.411 13.1648 113.103 12.3979C112.926 11.9508 113.128 11.4455 112.921 11.0072C112.714 10.569 112.222 10.3365 111.724 10.18C111.226 10.0234 110.691 9.89376 110.28 9.60981C109.869 9.32585 109.616 8.80042 109.918 8.43597Z" fill="#263238"/>
<path d="M91.7376 4H69.7817C68.8879 4 68.1633 4.59562 68.1633 5.33034V19.8367C68.1633 20.5714 68.8879 21.167 69.7817 21.167H91.7376C92.6314 21.167 93.356 20.5714 93.356 19.8367V5.33034C93.356 4.59562 92.6314 4 91.7376 4Z" fill="#263238"/>
<path d="M80.7596 15.2352C82.7651 15.2352 84.3908 13.8989 84.3908 12.2504C84.3908 10.6019 82.7651 9.26547 80.7596 9.26547C78.7542 9.26547 77.1284 10.6019 77.1284 12.2504C77.1284 13.8989 78.7542 15.2352 80.7596 15.2352Z" fill="#6672FB"/>
<path d="M79.8864 13.1246V11.3627C79.8864 11.3433 79.8924 11.3242 79.9041 11.3073C79.9158 11.2904 79.9326 11.2762 79.9529 11.2663C79.9732 11.2564 79.9963 11.251 80.02 11.2506C80.0436 11.2503 80.067 11.255 80.0877 11.2643L81.9917 12.1587C82.0126 12.1687 82.0299 12.1831 82.0419 12.2004C82.0539 12.2176 82.0603 12.2372 82.0603 12.2571C82.0603 12.277 82.0539 12.2965 82.0419 12.3138C82.0299 12.331 82.0126 12.3454 81.9917 12.3554L80.0877 13.2274C80.0667 13.2378 80.0426 13.2431 80.0181 13.243C79.9937 13.2428 79.9697 13.2371 79.9489 13.2265C79.9281 13.2158 79.9113 13.2007 79.9003 13.1827C79.8892 13.1648 79.8844 13.1446 79.8864 13.1246Z" fill="white"/>
<path d="M103.545 78.9039L104.176 83.8787C104.176 83.8787 98.2358 86.0743 98.2412 87.0089L110.019 86.3561L109.426 78.5596L103.545 78.9039Z" fill="#455A64"/>
<g opacity="0.3">
<path d="M103.545 78.9039L104.176 83.8787C104.176 83.8787 98.2358 86.0743 98.2412 87.0089L110.019 86.3561L109.426 78.5596L103.545 78.9039Z" fill="black"/>
</g>
<g opacity="0.6">
<path d="M107.78 83.2549C107.896 83.2768 107.997 83.3329 108.066 83.4126C108.134 83.4922 108.164 83.5897 108.15 83.6864C108.128 83.7824 108.061 83.8676 107.965 83.9246C107.868 83.9816 107.748 84.0059 107.631 83.9927C107.508 83.9688 107.401 83.9085 107.329 83.8235C107.257 83.7386 107.226 83.6348 107.242 83.5322C107.278 83.4343 107.358 83.3517 107.467 83.3016C107.576 83.2516 107.703 83.2381 107.824 83.2639" fill="white"/>
</g>
<g opacity="0.6">
<path d="M110.016 86.3494L109.921 85.5646L98.6628 86.4858C98.6628 86.4858 98.1541 86.7093 98.2384 87.0022L110.016 86.3494Z" fill="white"/>
</g>
<path d="M103.978 83.8407C103.978 83.8877 104.274 83.8922 104.568 84.0285C104.862 84.1649 105.03 84.355 105.082 84.3349C105.134 84.3147 105.025 84.0442 104.663 83.8877C104.301 83.7312 103.961 83.7983 103.978 83.8407Z" fill="#263238"/>
<path d="M102.778 84.3281C102.778 84.3751 103.023 84.4422 103.235 84.63C103.447 84.8178 103.507 85.028 103.578 85.0235C103.648 85.019 103.648 84.7485 103.379 84.5182C103.11 84.2879 102.775 84.2834 102.778 84.3281Z" fill="#263238"/>
<path d="M102.174 85.5825C102.229 85.5825 102.288 85.3589 102.12 85.0995C101.951 84.8402 101.674 84.7597 101.652 84.7999C101.63 84.8402 101.81 84.9698 101.943 85.1778C102.076 85.3857 102.117 85.5825 102.174 85.5825Z" fill="#263238"/>
<path d="M103.988 82.6937C104.016 82.7339 104.274 82.6557 104.6 82.6557C104.927 82.6557 105.188 82.725 105.212 82.6825C105.237 82.64 104.984 82.4858 104.598 82.4902C104.211 82.4947 103.956 82.6579 103.988 82.6937Z" fill="#263238"/>
<path d="M103.882 81.6898C104.079 81.7221 104.283 81.7098 104.473 81.654C104.683 81.6115 104.885 81.5477 105.076 81.464C105.19 81.4151 105.299 81.3598 105.403 81.2985C105.467 81.2646 105.524 81.2223 105.571 81.1733C105.606 81.1374 105.625 81.0929 105.625 81.047C105.625 81.0011 105.606 80.9566 105.571 80.9207C105.54 80.8895 105.501 80.8647 105.456 80.8484C105.411 80.8321 105.362 80.8247 105.313 80.8268C105.238 80.8298 105.163 80.8426 105.093 80.8648C104.969 80.8972 104.849 80.9383 104.734 80.9877C104.541 81.073 104.366 81.1824 104.214 81.3119C103.958 81.5355 103.88 81.7166 103.901 81.7256C103.923 81.7345 104.048 81.5847 104.312 81.3969C104.466 81.2883 104.636 81.1966 104.818 81.1241C104.925 81.0824 105.036 81.0473 105.15 81.019C105.272 80.9855 105.378 80.9788 105.422 81.019C105.465 81.0593 105.438 81.0436 105.422 81.0749C105.385 81.1092 105.344 81.14 105.299 81.1666C105.199 81.227 105.098 81.2806 104.998 81.3298C104.824 81.4136 104.642 81.4839 104.454 81.54C104.259 81.5787 104.068 81.6288 103.882 81.6898Z" fill="#263238"/>
<path d="M103.964 81.7524C104.064 81.6071 104.105 81.4396 104.081 81.2739C104.076 81.0942 104.034 80.9165 103.956 80.7485C103.91 80.6482 103.852 80.5523 103.782 80.4623C103.745 80.3999 103.689 80.3465 103.619 80.3074C103.549 80.2682 103.469 80.2445 103.385 80.2387C103.332 80.2422 103.283 80.258 103.241 80.2842C103.2 80.3104 103.168 80.3458 103.151 80.3863C103.126 80.4449 103.111 80.5057 103.104 80.5674C103.076 80.8629 103.191 81.1557 103.425 81.3813C103.676 81.6205 103.92 81.663 103.923 81.6473C103.926 81.6317 103.733 81.5422 103.537 81.3097C103.423 81.176 103.346 81.0234 103.311 80.8625C103.296 80.7698 103.296 80.6758 103.311 80.583C103.311 80.478 103.36 80.393 103.409 80.3997C103.458 80.4064 103.572 80.469 103.629 80.5473C103.693 80.6284 103.748 80.7136 103.795 80.8022C103.875 80.9546 103.927 81.1158 103.95 81.2806C103.977 81.5646 103.931 81.7457 103.964 81.7524Z" fill="#263238"/>
<path d="M102.522 42.495C102.522 42.495 97.3054 61.965 97.145 63.7045C96.9845 65.444 103.613 80.4511 103.613 80.4511L109.325 79.5568C109.325 79.5568 108.963 57.3926 108.781 56.9588C108.599 56.5251 110.236 45.6297 110.236 45.6297L102.522 42.495Z" fill="#263238"/>
<path d="M106.167 79.1364L106.23 84.1359C106.23 84.1359 100.066 85.8687 99.9739 86.7943L111.773 86.8949L112.064 79.246L106.167 79.1364Z" fill="#455A64"/>
<g opacity="0.6">
<path d="M109.888 83.7938C109.998 83.824 110.091 83.8859 110.15 83.968C110.209 84.0502 110.23 84.1471 110.209 84.2409C110.175 84.3331 110.101 84.4115 110 84.4604C109.899 84.5093 109.78 84.5251 109.665 84.5048C109.546 84.4719 109.446 84.4039 109.384 84.3139C109.322 84.2238 109.303 84.1182 109.331 84.0174C109.377 83.9222 109.466 83.8457 109.58 83.8039C109.694 83.7622 109.823 83.7585 109.94 83.7938" fill="white"/>
</g>
<g opacity="0.6">
<path d="M111.768 86.8949V86.2555L100.455 86.3114C100.455 86.3114 99.9247 86.488 99.9737 86.7943L111.768 86.8949Z" fill="white"/>
</g>
<path d="M106.039 84.0844C106.039 84.1314 106.328 84.1582 106.608 84.308C106.888 84.4578 107.029 84.668 107.084 84.6501C107.138 84.6322 107.059 84.3572 106.719 84.1716C106.379 83.986 106.028 84.0397 106.039 84.0844Z" fill="#263238"/>
<path d="M104.788 84.4779C104.775 84.5249 105.022 84.6099 105.21 84.8133C105.397 85.0168 105.452 85.2314 105.509 85.2314C105.566 85.2314 105.61 84.9631 105.37 84.7127C105.131 84.4623 104.791 84.4332 104.788 84.4779Z" fill="#263238"/>
<path d="M104.048 85.6809C104.1 85.6809 104.187 85.4573 104.048 85.1957C103.91 84.9341 103.643 84.8245 103.616 84.8625C103.589 84.9005 103.752 85.0436 103.863 85.2605C103.975 85.4774 103.991 85.6764 104.048 85.6809Z" fill="#263238"/>
<path d="M106.181 82.9419C106.203 82.9866 106.469 82.9262 106.793 82.9419C107.116 82.9575 107.369 83.0582 107.402 83.0179C107.435 82.9777 107.195 82.7943 106.812 82.7787C106.428 82.763 106.154 82.9039 106.181 82.9419Z" fill="#263238"/>
<g opacity="0.3">
<path d="M106.181 80.1269L106.189 81.0168L111.991 81.0951L112.023 80.2924L106.181 80.1269Z" fill="black"/>
</g>
<path d="M106.189 81.9335C106.382 81.9782 106.586 81.9782 106.779 81.9335C106.994 81.9072 107.204 81.8591 107.405 81.7904C107.523 81.7502 107.638 81.7032 107.748 81.6496C107.815 81.6212 107.876 81.5842 107.93 81.54C107.968 81.5069 107.993 81.4642 107.999 81.4186C108.006 81.3729 107.994 81.3269 107.965 81.2874C107.937 81.2539 107.9 81.2263 107.856 81.2069C107.813 81.1875 107.764 81.1768 107.715 81.1756C107.64 81.1724 107.564 81.1792 107.492 81.1957C107.365 81.2176 107.241 81.2498 107.122 81.2918C106.924 81.3618 106.74 81.4568 106.578 81.5735C106.306 81.777 106.2 81.9514 106.219 81.9603C106.238 81.9693 106.382 81.8307 106.665 81.6652C106.834 81.5716 107.017 81.4964 107.209 81.4416C107.32 81.4069 107.435 81.3799 107.552 81.3611C107.677 81.3388 107.783 81.3388 107.824 81.3857C107.864 81.4327 107.837 81.4103 107.81 81.4394C107.771 81.4715 107.726 81.4986 107.677 81.5199C107.574 81.572 107.468 81.619 107.359 81.6607C107.173 81.7319 106.98 81.788 106.782 81.8284C106.581 81.8511 106.383 81.8862 106.189 81.9335Z" fill="#263238"/>
<path d="M106.262 82.0028C106.377 81.8664 106.437 81.7037 106.434 81.5378C106.449 81.3579 106.427 81.1772 106.368 81.0034C106.334 80.9004 106.287 80.8007 106.227 80.706C106.197 80.6409 106.148 80.5832 106.083 80.5385C106.018 80.4938 105.94 80.4637 105.857 80.4511C105.804 80.4508 105.753 80.4631 105.708 80.4865C105.664 80.5099 105.629 80.5435 105.607 80.583C105.574 80.6388 105.552 80.6984 105.542 80.7597C105.52 80.8678 105.52 80.978 105.542 81.0861C105.568 81.2687 105.65 81.4431 105.778 81.5937C106.001 81.8486 106.241 81.9112 106.243 81.8955C106.246 81.8799 106.067 81.777 105.898 81.5311C105.8 81.3896 105.741 81.2325 105.724 81.0705C105.715 80.9769 105.722 80.8828 105.746 80.791C105.767 80.6881 105.816 80.6054 105.863 80.6166C105.909 80.6278 106.018 80.6971 106.064 80.7798C106.119 80.8653 106.165 80.9543 106.203 81.0459C106.263 81.2038 106.297 81.3678 106.303 81.5333C106.298 81.8195 106.232 81.9939 106.262 82.0028Z" fill="#263238"/>
<path d="M116.016 42.2626L102.756 42.5622L104.66 61.9561L105.84 80.6502L112.719 80.847C113.07 77.2383 113.094 64.4871 113.094 64.4871L114.473 56.7868C114.794 54.7097 115.809 52.5275 116.298 50.6627C116.584 49.5694 117.003 48.1496 117.093 47.6846C117.367 46.314 116.016 42.2626 116.016 42.2626Z" fill="#263238"/>
<path d="M103.295 46.9578C103.298 46.9868 103.298 47.016 103.295 47.045C103.295 47.1076 103.295 47.1926 103.295 47.2999C103.295 47.5235 103.268 47.8589 103.249 48.2792C103.23 48.6995 103.2 49.225 103.178 49.8287C103.156 50.4323 103.118 51.121 103.102 51.8812C103.05 53.4016 103.023 55.2126 103.034 57.2249C103.045 59.2372 103.11 61.4462 103.249 63.7648C103.387 66.0834 103.605 68.2902 103.85 70.2913C103.983 71.2908 104.1 72.241 104.247 73.1287C104.318 73.5758 104.378 74.0007 104.448 74.4121C104.519 74.8235 104.592 75.217 104.66 75.5926C104.786 76.3461 104.932 77.0235 105.049 77.6205C105.166 78.2175 105.278 78.7385 105.376 79.1476L105.585 80.1113C105.607 80.2186 105.626 80.3013 105.637 80.3617C105.64 80.3907 105.64 80.4199 105.637 80.4489C105.625 80.4212 105.616 80.3928 105.61 80.3639C105.596 80.3036 105.574 80.2208 105.547 80.1158C105.49 79.8922 105.411 79.568 105.311 79.1543C105.21 78.7407 105.085 78.2264 104.962 77.6295C104.84 77.0325 104.69 76.3573 104.552 75.6038C104.481 75.2281 104.407 74.8346 104.331 74.4232C104.258 74.0118 104.195 73.5825 104.122 73.1398C103.97 72.2455 103.85 71.302 103.711 70.3003C103.461 68.2992 103.243 66.0924 103.099 63.7715C102.955 61.4507 102.906 59.2372 102.895 57.2249C102.884 55.2126 102.931 53.3993 102.993 51.8789C103.015 51.1188 103.058 50.4301 103.088 49.8264C103.118 49.2227 103.151 48.7085 103.181 48.277C103.211 47.8454 103.238 47.5279 103.254 47.2976C103.254 47.1903 103.271 47.1076 103.276 47.045C103.279 47.0155 103.286 46.9864 103.295 46.9578Z" fill="#455A64"/>
<path d="M95.7468 21.0217L92.3523 18.0413L89.6758 19.5818L92.3523 22.8372L95.7468 21.0217Z" fill="#FFD3C1"/>
<path d="M117.216 22.1217L117.053 20.2324L109.385 20.143L109.32 22.5152C109.32 22.5152 105.555 25.8691 104.187 29.6141C101.891 35.9238 101.059 43.955 101.059 43.955H116.751C116.588 41.7326 115.472 36.76 115.472 36.76L118.959 28.2078C119.827 25.1335 117.216 22.1217 117.216 22.1217Z" fill="#6672FB"/>
<path d="M98.2302 30.6605C98.2302 30.6605 98.2737 30.6963 98.3608 30.7567C98.4858 30.85 98.6195 30.9352 98.7606 31.0116C99.2763 31.2972 99.864 31.483 100.48 31.5549C100.904 31.6046 101.335 31.6009 101.758 31.5437C102.212 31.5012 102.699 31.4498 103.211 31.3939C104.236 31.2799 105.359 31.1368 106.534 30.9735L112.546 30.1083L114.371 29.8623L114.868 29.7975L115.04 29.7706L114.866 29.7885L114.368 29.8444C113.936 29.8936 113.31 29.9719 112.537 30.068C110.995 30.2715 108.874 30.5934 106.524 30.9221C105.348 31.0853 104.228 31.2284 103.205 31.3447C102.694 31.4006 102.207 31.4543 101.75 31.499C100.715 31.6419 99.6522 31.4608 98.7715 30.9914C98.6319 30.9156 98.4975 30.8335 98.3689 30.7455C98.2792 30.6896 98.2302 30.6605 98.2302 30.6605Z" fill="#263238"/>
<path d="M117.7 27.613C117.708 27.5967 117.714 27.5793 117.716 27.5616C117.716 27.5169 117.741 27.4677 117.754 27.4163C117.784 27.2888 117.822 27.1055 117.863 26.8752C117.982 26.2776 117.962 25.667 117.806 25.0753C117.631 24.4789 117.196 23.9557 116.585 23.6041C116.399 23.5027 116.194 23.4272 115.978 23.3805C115.9 23.362 115.82 23.3493 115.739 23.3425C116.03 23.3998 116.306 23.499 116.555 23.6354C117.148 23.9885 117.568 24.5038 117.741 25.0887C117.896 25.6765 117.92 26.2826 117.811 26.8774C117.779 27.101 117.746 27.2911 117.722 27.4185C117.722 27.4722 117.713 27.5214 117.697 27.5661C117.696 27.5818 117.697 27.5975 117.7 27.613Z" fill="#263238"/>
<path d="M101.377 29.1468C101.382 29.1 101.382 29.0529 101.377 29.006L101.334 28.6214C101.292 28.1998 101.276 27.7766 101.288 27.3537C101.302 26.9304 101.343 26.508 101.41 26.0882C101.434 25.9518 101.456 25.8266 101.478 25.7081C101.489 25.6616 101.495 25.6145 101.497 25.5672C101.479 25.6118 101.464 25.6574 101.453 25.7036C101.429 25.793 101.399 25.9272 101.369 26.0837C101.207 26.9246 101.18 27.7793 101.29 28.6259C101.312 28.7869 101.334 28.9188 101.353 29.0082C101.355 29.055 101.363 29.1014 101.377 29.1468Z" fill="#263238"/>
<path d="M109.41 22.4795C109.602 22.0409 109.885 21.6331 110.247 21.2743C110.791 20.664 111.39 20.0245 112.246 19.7361C112.829 19.5415 114.333 19.6489 114.735 19.2509C115.986 18.0033 114.153 17.2386 114.817 15.5147C115.549 13.6388 115.17 13.9273 115.228 12.4494L118.005 11.4633C118.443 11.7317 119.656 12.6998 119.522 13.1358C119.393 13.6129 119.43 14.1104 119.629 14.5712C120.056 15.6735 121.533 16.3219 122.229 17.3258C122.925 18.3297 122.136 19.7159 122.117 20.9032C122.098 22.0904 122.642 23.5102 124.049 23.7673C123.517 24.6415 122.651 25.3483 121.584 25.7796L120.703 24.7936C120.773 25.2442 120.648 25.7008 120.35 26.0831C120.051 26.4654 119.599 26.749 119.071 26.8841C118.774 25.8445 118.464 24.7757 117.697 23.9127C116.93 23.0496 115.6 22.4392 114.346 22.7165C113.506 22.8998 112.858 23.432 112.108 23.7919C111.357 24.1519 110.296 24.3062 109.698 23.7919C109.516 23.6122 109.394 23.3969 109.344 23.1669C109.293 22.9369 109.316 22.7001 109.41 22.4795Z" fill="#263238"/>
<g opacity="0.3">
<path d="M104.176 31.2441C107.794 30.703 112.608 30.0546 116.226 29.5113C116.359 29.48 116.501 29.48 116.634 29.5113C116.747 29.5624 116.831 29.6478 116.869 29.7493C116.906 29.8508 116.894 29.9604 116.835 30.0546C116.707 30.2401 116.508 30.3861 116.269 30.4705C115.081 30.9803 113.691 31.0227 112.353 31.0518L104.176 31.2419V31.2441Z" fill="black"/>
</g>
<path d="M101.546 31.5415C102.672 31.5593 115.619 29.6141 115.619 29.6141L101.546 31.5415Z" fill="#6672FB"/>
<path d="M115.399 22.9691C116.348 23.0653 116.966 23.1927 118.075 24.1765C118.204 24.2924 118.314 24.4208 118.404 24.5588C119.639 26.3475 118.747 28.807 116.381 29.4889L114.091 29.8757L101.546 31.5415C101.546 31.5415 98.8749 32.0334 96.5792 29.1066C95.7387 28.0311 89.9424 20.9255 89.9424 20.9255L93.7504 18.8305L101.426 25.5806L115.399 22.9691Z" fill="#6672FB"/>
<path d="M98.2302 30.6605C98.2302 30.6605 98.2737 30.6963 98.3608 30.7567C98.4858 30.85 98.6195 30.9352 98.7606 31.0116C99.2763 31.2972 99.864 31.483 100.48 31.5549C100.904 31.6046 101.335 31.6009 101.758 31.5437C102.212 31.5012 102.699 31.4498 103.211 31.3939C104.236 31.2799 105.359 31.1368 106.534 30.9735L112.546 30.1083L114.371 29.8623L114.868 29.7975L115.04 29.7706L114.866 29.7885L114.368 29.8444C113.936 29.8936 113.31 29.9719 112.537 30.068C110.995 30.2715 108.874 30.5934 106.524 30.9221C105.348 31.0853 104.228 31.2284 103.205 31.3447C102.694 31.4006 102.207 31.4543 101.75 31.499C100.715 31.6419 99.6522 31.4608 98.7715 30.9914C98.6319 30.9156 98.4975 30.8335 98.3689 30.7455C98.2792 30.6896 98.2302 30.6605 98.2302 30.6605Z" fill="#263238"/>
<path d="M117.7 27.613C117.708 27.5967 117.714 27.5793 117.716 27.5616C117.716 27.5169 117.741 27.4677 117.754 27.4163C117.784 27.2888 117.822 27.1055 117.863 26.8752C117.982 26.2776 117.962 25.667 117.806 25.0753C117.631 24.4789 117.196 23.9557 116.585 23.6041C116.399 23.5027 116.194 23.4272 115.978 23.3805C115.9 23.362 115.82 23.3493 115.739 23.3425C116.03 23.3998 116.306 23.499 116.555 23.6354C117.148 23.9885 117.568 24.5038 117.741 25.0887C117.896 25.6765 117.92 26.2826 117.811 26.8774C117.779 27.101 117.746 27.2911 117.722 27.4185C117.722 27.4722 117.713 27.5214 117.697 27.5661C117.696 27.5818 117.697 27.5975 117.7 27.613Z" fill="#263238"/>
<path d="M101.377 29.1468C101.382 29.1 101.382 29.0529 101.377 29.006L101.334 28.6214C101.292 28.1998 101.276 27.7766 101.288 27.3537C101.302 26.9304 101.343 26.508 101.41 26.0882C101.434 25.9518 101.456 25.8266 101.478 25.7081C101.489 25.6616 101.495 25.6145 101.497 25.5672C101.479 25.6118 101.464 25.6574 101.453 25.7036C101.429 25.793 101.399 25.9272 101.369 26.0837C101.207 26.9246 101.18 27.7793 101.29 28.6259C101.312 28.7869 101.334 28.9188 101.353 29.0082C101.355 29.055 101.363 29.1014 101.377 29.1468Z" fill="#263238"/>
<path d="M92.336 15.7316C92.2602 15.3068 92.2365 14.8769 92.2653 14.4482C92.2679 14.4265 92.2646 14.4045 92.2555 14.3839C92.2464 14.3633 92.2317 14.3447 92.2126 14.3294C92.1935 14.3142 92.1705 14.3027 92.1452 14.2957C92.12 14.2888 92.0931 14.2867 92.0667 14.2895C91.9031 14.3071 91.7496 14.3641 91.6252 14.4532C91.5008 14.5422 91.4113 14.6595 91.3677 14.7903C91.2837 15.0244 91.2569 15.2699 91.2888 15.5125C91.2888 15.9105 91.2888 16.2258 91.2888 16.2258C91.2888 16.2258 88.8734 13.849 88.3838 13.7417C88.3432 13.7255 88.299 13.7161 88.2539 13.7141C88.2088 13.7121 88.1636 13.7175 88.1211 13.73C88.0786 13.7425 88.0395 13.7618 88.0061 13.7868C87.9728 13.8119 87.9458 13.8421 87.9269 13.8758C87.8371 13.9944 88.0166 14.2716 88.0166 14.2716L89.3766 15.8725C89.3766 15.8725 87.3176 13.8826 86.9449 13.887C86.5723 13.8915 86.4009 14.1106 86.643 14.4795C86.8198 14.7501 88.6177 16.4918 88.6177 16.4918C88.6177 16.4918 86.6947 14.967 86.3112 14.9781C85.9277 14.9893 85.9929 15.3247 86.1942 15.4633C86.3955 15.6019 87.8262 16.9636 87.8262 16.9636C87.8262 16.9636 86.4363 15.9977 86.1561 16.0692C85.876 16.1408 85.9957 16.4001 86.1425 16.6081C86.2894 16.816 89.7765 19.6802 89.7765 19.6802L92.8011 18.4326C92.8797 18.0837 92.8639 17.7249 92.7549 17.3817C92.5722 16.8397 92.4323 16.2885 92.336 15.7316Z" fill="#FFD3C1"/>
<path d="M47.9235 48C47.1874 47.9972 46.4825 47.7098 45.963 47.2008C45.4435 46.6917 45.1518 46.0025 45.1519 45.284V21.6711C45.1731 21.0751 45.4356 20.5116 45.8817 20.1041C46.3278 19.6965 46.9211 19.4781 47.5319 19.4968H49.8058C50.2532 19.5055 50.6942 19.3917 51.0787 19.1683C51.4633 18.945 51.7761 18.621 51.9818 18.233L52.4687 17.264C52.6733 16.8781 52.9839 16.5554 53.3659 16.3322C53.7478 16.109 54.1859 15.994 54.6311 16.0002H65.4267C65.8324 15.9951 66.2329 16.0897 66.5913 16.2753C66.9497 16.4609 67.2545 16.7315 67.4776 17.0622L68.008 17.8826C68.2307 18.2131 68.535 18.4836 68.893 18.6692C69.2509 18.8548 69.6509 18.9495 70.0562 18.9445H83.8194C84.4307 18.9252 85.0249 19.1437 85.4713 19.552C85.9176 19.9603 86.1795 20.5248 86.1994 21.1216V45.2814C86.1994 46.0017 85.9062 46.6925 85.3844 47.2019C84.8626 47.7112 84.1548 47.9973 83.4168 47.9973L47.9235 48Z" fill="#6672FB"/>
<g opacity="0.3">
<path d="M47.9235 48C47.1874 47.9972 46.4825 47.7098 45.963 47.2008C45.4435 46.6917 45.1518 46.0025 45.1519 45.284V21.6711C45.1731 21.0751 45.4356 20.5116 45.8817 20.1041C46.3278 19.6965 46.9211 19.4781 47.5319 19.4968H49.8058C50.2532 19.5055 50.6942 19.3917 51.0787 19.1683C51.4633 18.945 51.7761 18.621 51.9818 18.233L52.4687 17.264C52.6733 16.8781 52.9839 16.5554 53.3659 16.3322C53.7478 16.109 54.1859 15.994 54.6311 16.0002H65.4267C65.8324 15.9951 66.2329 16.0897 66.5913 16.2753C66.9497 16.4609 67.2545 16.7315 67.4776 17.0622L68.008 17.8826C68.2307 18.2131 68.535 18.4836 68.893 18.6692C69.2509 18.8548 69.6509 18.9495 70.0562 18.9445H83.8194C84.4307 18.9252 85.0249 19.1437 85.4713 19.552C85.9176 19.9603 86.1795 20.5248 86.1994 21.1216V45.2814C86.1994 46.0017 85.9062 46.6925 85.3844 47.2019C84.8626 47.7112 84.1548 47.9973 83.4168 47.9973L47.9235 48Z" fill="black"/>
</g>
<path d="M68.6745 18.9578L59.9162 18.9392L59.1355 17.5109C58.8701 17.0472 58.4813 16.6621 58.0102 16.3962C57.5391 16.1303 57.0032 15.9935 56.459 16.0002H47.8992C46.376 16.0002 45.1411 17.1286 45.1411 18.5224V45.1353C45.1411 46.7283 46.5446 48 48.2746 48H83.0416C84.7742 48 86.175 46.7177 86.175 45.1353V20.9145C86.175 20.3956 85.9638 19.8979 85.5879 19.5309C85.2119 19.164 84.7021 18.9578 84.1704 18.9578H68.6745Z" fill="#6672FB"/>
<path d="M73.0892 39.1246H69.2132C69.141 39.1246 69.0719 39.0966 69.0208 39.0469C68.9698 38.9971 68.9412 38.9295 68.9412 38.8591C68.9412 38.7887 68.9698 38.7212 69.0208 38.6714C69.0719 38.6216 69.141 38.5936 69.2132 38.5936H73.0892C74.0943 38.5956 75.0605 38.2141 75.7816 37.5307C76.5028 36.8473 76.9219 35.9159 76.9495 34.9352C76.9772 33.9545 76.6113 33.002 75.9298 32.2808C75.2482 31.5597 74.3051 31.127 73.3013 31.0749C73.2433 31.0721 73.1877 31.0513 73.1427 31.0155C73.0976 30.9797 73.0656 30.9307 73.0511 30.8758C72.7648 29.7965 72.1765 28.8162 71.3521 28.0444C70.5278 27.2727 69.4997 26.74 68.383 26.5059C67.2662 26.2717 66.1047 26.3454 65.0284 26.7186C63.952 27.0917 63.0032 27.7498 62.2881 28.6191C62.2589 28.6549 62.2209 28.6827 62.1775 28.6999C62.1341 28.7171 62.087 28.7231 62.0405 28.7173C61.8457 28.6928 61.6495 28.6803 61.453 28.6801C60.1269 28.7101 58.8654 29.2454 57.9384 30.1714C57.0113 31.0975 56.4923 32.3408 56.4923 33.6356C56.4923 34.9303 57.0113 36.1737 57.9384 37.0997C58.8654 38.0258 60.1269 38.561 61.453 38.591H64.5946C64.6668 38.591 64.7359 38.6189 64.7869 38.6687C64.838 38.7185 64.8666 38.786 64.8666 38.8565C64.8666 38.9269 64.838 38.9944 64.7869 39.0442C64.7359 39.094 64.6668 39.122 64.5946 39.122H61.4394C59.9476 39.122 58.5169 38.5435 57.462 37.5139C56.4071 36.4842 55.8145 35.0877 55.8145 33.6316C55.8145 32.1754 56.4071 30.7789 57.462 29.7493C58.5169 28.7197 59.9476 28.1412 61.4394 28.1412C61.6066 28.1413 61.7737 28.1501 61.9399 28.1678C62.721 27.2565 63.7415 26.5699 64.8919 26.1815C66.0424 25.7932 67.2794 25.7177 68.4704 25.9633C69.6614 26.2088 70.7615 26.7661 71.6528 27.5754C72.5441 28.3847 73.1929 29.4154 73.5298 30.5572C74.6597 30.6598 75.7053 31.1844 76.4483 32.0214C77.1914 32.8585 77.5745 33.9434 77.5176 35.0496C77.4608 36.1558 76.9684 37.1978 76.1432 37.9581C75.318 38.7184 74.2239 39.1382 73.0892 39.1299V39.1246Z" fill="white"/>
<path d="M66.8223 41.5459C66.7502 41.5459 66.681 41.5179 66.63 41.4681C66.5789 41.4183 66.5503 41.3508 66.5503 41.2804V34.3776C66.5503 34.3072 66.5789 34.2397 66.63 34.1899C66.681 34.1401 66.7502 34.1121 66.8223 34.1121C66.8944 34.1121 66.9636 34.1401 67.0146 34.1899C67.0656 34.2397 67.0943 34.3072 67.0943 34.3776V41.2804C67.0943 41.3508 67.0656 41.4183 67.0146 41.4681C66.9636 41.5179 66.8944 41.5459 66.8223 41.5459Z" fill="white"/>
<path d="M68.8893 37.1255C68.8466 37.1259 68.8044 37.1165 68.7662 37.098C68.7279 37.0796 68.6946 37.0526 68.669 37.0193L66.8684 34.6617C66.8617 34.6539 66.8534 34.6477 66.844 34.6436C66.8346 34.6395 66.8243 34.6375 66.814 34.6378C66.8041 34.638 66.7944 34.6403 66.7855 34.6444C66.7766 34.6485 66.7687 34.6544 66.7623 34.6617L64.8583 36.9529C64.8125 37.0082 64.746 37.0434 64.6736 37.0509C64.6012 37.0583 64.5287 37.0374 64.472 36.9927C64.4154 36.948 64.3793 36.8832 64.3716 36.8125C64.364 36.7418 64.3854 36.671 64.4312 36.6157L66.3352 34.3245C66.3951 34.2546 66.47 34.1983 66.5546 34.1598C66.6392 34.1212 66.7315 34.1013 66.8248 34.1015C66.9178 34.1028 67.0092 34.1248 67.0921 34.1657C67.1751 34.2067 67.2474 34.2655 67.3036 34.3378L69.1096 36.698C69.1313 36.7262 69.1471 36.7582 69.156 36.7924C69.1649 36.8265 69.1667 36.862 69.1614 36.8969C69.1561 36.9317 69.1437 36.9652 69.125 36.9953C69.1063 37.0254 69.0817 37.0516 69.0525 37.0724C69.0054 37.1068 68.9482 37.1255 68.8893 37.1255Z" fill="white"/>
<path d="M61.5156 51.4901V50.1469H61.7441V51.4811C61.7441 52.0388 61.9807 52.2936 62.3942 52.2936C62.8076 52.2936 63.047 52.0388 63.047 51.4811V50.1469H63.2673V51.4901C63.2673 52.1647 62.9382 52.5125 62.3942 52.5125C61.8502 52.5125 61.5156 52.1647 61.5156 51.4901Z" fill="#263238"/>
<path d="M65.5166 51.613C65.5227 51.7311 65.5064 51.8493 65.4688 51.9601C65.4312 52.0709 65.373 52.1718 65.298 52.2564C65.2231 52.341 65.1329 52.4075 65.0333 52.4516C64.9337 52.4957 64.8269 52.5164 64.7197 52.5125C64.5996 52.5169 64.4805 52.4872 64.3738 52.4263C64.2672 52.3654 64.1764 52.2753 64.1104 52.1647V53.1481H63.8955V50.7496H64.1022V51.0764C64.1672 50.9614 64.2584 50.8674 64.3668 50.8037C64.4752 50.74 64.5969 50.7089 64.7197 50.7136C64.8268 50.7101 64.9334 50.7311 65.0328 50.7754C65.1322 50.8196 65.2222 50.8861 65.2971 50.9706C65.372 51.0552 65.4302 51.1559 65.468 51.2665C65.5057 51.377 65.5223 51.4951 65.5166 51.613ZM65.3017 51.613C65.2969 51.4839 65.2578 51.3591 65.1892 51.2542C65.1206 51.1494 65.0256 51.069 64.9159 51.0232C64.8062 50.9774 64.6867 50.9681 64.5723 50.9965C64.4579 51.025 64.3536 51.0898 64.2723 51.1831C64.1911 51.2763 64.1365 51.3938 64.1153 51.5209C64.0941 51.6481 64.1073 51.7793 64.1532 51.8983C64.1991 52.0172 64.2758 52.1187 64.3736 52.1901C64.4714 52.2614 64.5861 52.2995 64.7033 52.2996C64.7844 52.301 64.8648 52.284 64.9396 52.2496C65.0144 52.2152 65.0819 52.1642 65.1381 52.0998C65.1942 52.0354 65.2377 51.959 65.2659 51.8752C65.294 51.7915 65.3062 51.7022 65.3017 51.613Z" fill="#263238"/>
<path d="M65.9573 50.006H66.1722V52.4945H65.9573V50.006Z" fill="#263238"/>
<path d="M66.6128 51.613C66.6128 51.4351 66.6607 51.2612 66.7503 51.1133C66.84 50.9654 66.9674 50.8501 67.1165 50.782C67.2656 50.714 67.4297 50.6962 67.588 50.7309C67.7463 50.7656 67.8917 50.8512 68.0058 50.977C68.1199 51.1028 68.1976 51.2631 68.2291 51.4376C68.2606 51.612 68.2444 51.7929 68.1827 51.9572C68.1209 52.1216 68.0163 52.2621 67.8821 52.3609C67.7479 52.4598 67.5902 52.5125 67.4288 52.5125C67.3206 52.5167 67.2128 52.4963 67.1121 52.4526C67.0114 52.4089 66.9199 52.3427 66.8433 52.2584C66.7668 52.174 66.7068 52.0732 66.6672 51.9621C66.6275 51.8511 66.609 51.7323 66.6128 51.613ZM68.0218 51.613C68.0164 51.4845 67.9769 51.3605 67.9082 51.2565C67.8395 51.1524 67.7445 51.073 67.6352 51.0279C67.5258 50.9829 67.4069 50.9743 67.2931 51.0031C67.1793 51.032 67.0757 51.0971 66.9952 51.1903C66.9148 51.2835 66.8609 51.4007 66.8403 51.5274C66.8198 51.6541 66.8334 51.7846 66.8796 51.9028C66.9258 52.021 67.0025 52.1216 67.1001 52.1922C67.1978 52.2627 67.312 52.3001 67.4288 52.2996C67.5096 52.3011 67.5898 52.284 67.6643 52.2496C67.7388 52.2151 67.806 52.1641 67.8618 52.0996C67.9175 52.035 67.9605 51.9585 67.988 51.8748C68.0155 51.791 68.027 51.7019 68.0218 51.613Z" fill="#263238"/>
<path d="M69.8794 51.4002V52.4945H69.6727V52.2187C69.6142 52.3172 69.533 52.3969 69.4375 52.4496C69.3419 52.5023 69.2353 52.526 69.1287 52.5185C68.767 52.5185 68.5466 52.3116 68.5466 52.0058C68.5466 51.7 68.7044 51.5081 69.1641 51.5081H69.67V51.4002C69.67 51.1003 69.515 50.9324 69.2185 50.9324C69.02 50.9271 68.8266 51.0018 68.6745 51.1423L68.5766 50.9624C68.7622 50.8037 68.9917 50.7201 69.2266 50.7256C69.3118 50.7111 69.3989 50.7182 69.4813 50.7463C69.5636 50.7744 69.6391 50.8228 69.702 50.8877C69.7649 50.9527 69.8135 51.0326 69.8443 51.1214C69.875 51.2102 69.887 51.3055 69.8794 51.4002ZM69.6618 51.9638V51.664H69.1614C68.8513 51.664 68.7506 51.7989 68.7506 51.9788C68.7506 52.1587 68.9002 52.3116 69.1559 52.3116C69.2614 52.3202 69.3667 52.2925 69.4573 52.2324C69.5479 52.1722 69.6194 52.0826 69.6618 51.9758V51.9638Z" fill="#263238"/>
<path d="M71.9304 50.006V52.4945H71.7237V52.1437C71.6598 52.2599 71.5688 52.355 71.4602 52.4193C71.3516 52.4837 71.2294 52.5148 71.1063 52.5095C70.8899 52.5095 70.6823 52.4147 70.5293 52.246C70.3762 52.0774 70.2903 51.8486 70.2903 51.61C70.2903 51.3715 70.3762 51.1427 70.5293 50.974C70.6823 50.8053 70.8899 50.7106 71.1063 50.7106C71.2264 50.7059 71.3456 50.7355 71.4523 50.7964C71.559 50.8573 71.6497 50.9476 71.7156 51.0584V50L71.9304 50.006ZM71.7183 51.613C71.713 51.4845 71.6735 51.3605 71.6047 51.2565C71.536 51.1524 71.4411 51.073 71.3317 51.0279C71.2223 50.9829 71.1034 50.9743 70.9896 51.0031C70.8758 51.032 70.7723 51.0971 70.6918 51.1903C70.6113 51.2835 70.5574 51.4007 70.5368 51.5274C70.5163 51.6541 70.53 51.7846 70.5761 51.9028C70.6223 52.021 70.699 52.1216 70.7966 52.1922C70.8943 52.2627 71.0086 52.3001 71.1253 52.2996C71.206 52.3006 71.286 52.2833 71.3603 52.2487C71.4347 52.2141 71.5017 52.163 71.5574 52.0986C71.613 52.0342 71.656 51.9578 71.6837 51.8743C71.7114 51.7907 71.7231 51.7018 71.7183 51.613Z" fill="#263238"/>
<path d="M72.3927 52.3266C72.3919 52.3029 72.3955 52.2792 72.4033 52.2571C72.411 52.2349 72.4227 52.2147 72.4377 52.1976C72.4527 52.1806 72.4706 52.167 72.4905 52.1577C72.5103 52.1485 72.5316 52.1437 72.5531 52.1437C72.5748 52.1437 72.5963 52.1485 72.6162 52.1577C72.6362 52.1669 72.6543 52.1804 72.6695 52.1975C72.6847 52.2145 72.6967 52.2347 72.7047 52.2568C72.7128 52.279 72.7167 52.3027 72.7164 52.3266C72.7164 52.3746 72.6993 52.4207 72.6687 52.4549C72.6382 52.4891 72.5967 52.5087 72.5531 52.5095C72.5317 52.5091 72.5106 52.5041 72.4909 52.4947C72.4712 52.4853 72.4534 52.4717 72.4385 52.4547C72.4236 52.4377 72.4119 52.4177 72.4041 52.3957C72.3962 52.3737 72.3923 52.3502 72.3927 52.3266Z" fill="#263238"/>
<path d="M73.0374 52.3266C73.037 52.303 73.0409 52.2795 73.0488 52.2575C73.0566 52.2355 73.0683 52.2155 73.0832 52.1985C73.0981 52.1815 73.1159 52.1679 73.1356 52.1585C73.1553 52.1491 73.1764 52.1441 73.1979 52.1437C73.2195 52.1437 73.241 52.1485 73.2609 52.1577C73.2809 52.1669 73.299 52.1804 73.3142 52.1975C73.3294 52.2145 73.3414 52.2347 73.3494 52.2568C73.3575 52.279 73.3614 52.3027 73.3611 52.3266C73.3611 52.3746 73.344 52.4207 73.3134 52.4549C73.2829 52.4891 73.2414 52.5087 73.1979 52.5095C73.1764 52.5091 73.1553 52.5041 73.1356 52.4947C73.1159 52.4853 73.0981 52.4717 73.0832 52.4547C73.0683 52.4377 73.0566 52.4177 73.0488 52.3957C73.0409 52.3737 73.037 52.3502 73.0374 52.3266Z" fill="#263238"/>
<path d="M73.682 52.3266C73.6812 52.3029 73.6849 52.2792 73.6926 52.2571C73.7003 52.2349 73.712 52.2147 73.727 52.1976C73.742 52.1806 73.7599 52.167 73.7798 52.1577C73.7996 52.1485 73.8209 52.1437 73.8425 52.1437C73.8641 52.1437 73.8856 52.1485 73.9055 52.1577C73.9255 52.1669 73.9436 52.1804 73.9588 52.1975C73.974 52.2145 73.986 52.2347 73.994 52.2568C74.0021 52.279 74.006 52.3027 74.0056 52.3266C74.0057 52.3746 73.9885 52.4207 73.958 52.4549C73.9275 52.4891 73.886 52.5087 73.8425 52.5095C73.821 52.5091 73.7999 52.5041 73.7802 52.4947C73.7605 52.4853 73.7427 52.4717 73.7278 52.4547C73.7129 52.4377 73.7012 52.4177 73.6933 52.3957C73.6855 52.3737 73.6816 52.3502 73.682 52.3266Z" fill="#263238"/>
<path d="M87.5323 56.5061H45.1112C44.1153 56.5061 43.3079 57.3961 43.3079 58.4939V59.0726C43.3079 60.1704 44.1153 61.0604 45.1112 61.0604H87.5323C88.5283 61.0604 89.3357 60.1704 89.3357 59.0726V58.4939C89.3357 57.3961 88.5283 56.5061 87.5323 56.5061Z" fill="#E0E0E0"/>
<path d="M64.5184 56.5061H45.1112C44.1153 56.5061 43.3079 57.3961 43.3079 58.4939V59.0726C43.3079 60.1704 44.1153 61.0604 45.1112 61.0604H64.5184C65.5144 61.0604 66.3218 60.1704 66.3218 59.0726V58.4939C66.3218 57.3961 65.5144 56.5061 64.5184 56.5061Z" fill="#6672FB"/>
<g opacity="0.3">
<path d="M46.7839 56.5061L44.3359 60.7905L44.7195 60.9794C44.8281 61.0332 44.9458 61.0608 45.0649 61.0604H45.8428L48.503 56.5061H46.7839Z" fill="white"/>
</g>
<g opacity="0.3">
<path d="M51.1631 56.5061L48.5601 61.0604H50.222L52.8794 56.5061H51.1631Z" fill="white"/>
</g>
<g opacity="0.3">
<path d="M55.5396 56.5061L52.9365 61.0604H54.5984L57.2586 56.5061H55.5396Z" fill="white"/>
</g>
<g opacity="0.3">
<path d="M59.919 56.5061L57.3132 61.0604H58.9752L61.6353 56.5061H59.919Z" fill="white"/>
</g>
<g opacity="0.3">
<path d="M64.2954 56.5061L61.6924 61.0604H63.3543L65.4487 57.4625L65.6989 57.0728C65.378 56.692 64.8857 56.5331 64.2954 56.5061Z" fill="white"/>
</g>
<path d="M87.584 61.0604C87.584 61.0604 87.6683 61.0604 87.8315 61.0304C88.074 60.9936 88.3067 60.9007 88.5142 60.7576C88.8547 60.5279 89.1159 60.1798 89.2568 59.7682C89.3457 59.5079 89.3864 59.2306 89.3765 58.9526C89.3933 58.636 89.3714 58.3184 89.3112 58.0082C89.2248 57.6484 89.0475 57.3231 88.8001 57.0699C88.5526 56.8168 88.245 56.6462 87.9131 56.5781C87.7258 56.5487 87.5365 56.5376 87.3474 56.5451H85.4869H79.5518L45.1928 56.5661C44.788 56.5665 44.3958 56.7214 44.0829 57.0045C43.77 57.2877 43.5557 57.6815 43.4765 58.1191C43.4462 58.3393 43.4353 58.5622 43.4438 58.7847C43.4351 59.0066 43.4488 59.2288 43.4846 59.4474C43.5661 59.8712 43.7751 60.2523 44.0778 60.5288C44.3805 60.8053 44.759 60.9609 45.152 60.9704H48.7696H57.8925L73.3394 60.9884L83.7542 61.0124L86.5858 61.0274H83.7542L73.3394 61.0544L57.8925 61.0694H48.7696H45.152C44.7237 61.0651 44.3095 60.9005 43.9773 60.6024C43.6452 60.3044 43.4149 59.8907 43.3242 59.4294C43.2855 59.2001 43.2709 58.9667 43.2806 58.7338C43.2709 58.5012 43.2828 58.2681 43.316 58.0382C43.4005 57.5646 43.6318 57.1381 43.9702 56.8318C44.3087 56.5255 44.7332 56.3585 45.171 56.3592L79.5301 56.3832H85.4651H87.3256C87.5194 56.375 87.7135 56.3881 87.905 56.4222C88.2476 56.4942 88.5646 56.6719 88.8193 56.9346C89.074 57.1973 89.2559 57.5342 89.3438 57.9063C89.4018 58.2228 89.4219 58.5464 89.4037 58.8687C89.4105 59.153 89.367 59.4361 89.2758 59.7022C89.1271 60.1192 88.8574 60.4702 88.5088 60.7006C88.2959 60.8411 88.0587 60.931 87.8125 60.9644C87.7391 61.0041 87.6627 61.0362 87.584 61.0604Z" fill="#263238"/>
</svg>
